# WaveFront *.obj file (generated by Autodesk ATF)

mtllib rw2_visual.mtl

g RW2

v -9.930131 -35.000000 4.954225
v -9.952771 -35.000000 4.478945
v -10.020487 -35.000000 4.007969
v -10.132666 -35.000000 3.545562
v -10.288291 -35.000000 3.095913
v -10.485953 -35.000000 2.663093
v -10.723863 -35.000000 2.251021
v -10.999865 -35.000000 1.863430
v -11.311461 -35.000000 1.503830
v -11.655827 -35.000000 1.175477
v -12.029846 -35.000000 0.881345
v -12.430131 -35.000000 0.624098
v -12.853056 -35.000000 0.406065
v -13.294791 -35.000000 0.229221
v -13.751336 -35.000000 0.095167
v -14.218557 -35.000000 0.005118
v -14.692221 -35.000000 -0.040112
v -15.168040 -35.000000 -0.040112
v -15.641705 -35.000000 0.005118
v -16.108925 -35.000000 0.095167
v -16.565471 -35.000000 0.229221
v -17.007206 -35.000000 0.406065
v -17.430131 -35.000000 0.624098
v -17.830415 -35.000000 0.881345
v -18.204434 -35.000000 1.175477
v -18.548801 -35.000000 1.503830
v -18.860396 -35.000000 1.863430
v -19.136398 -35.000000 2.251021
v -19.374308 -35.000000 2.663093
v -19.571970 -35.000000 3.095913
v -19.727596 -35.000000 3.545562
v -19.839774 -35.000000 4.007969
v -19.907490 -35.000000 4.478945
v -19.930131 -35.000000 4.954225
v -19.907490 -35.000000 5.429505
v -19.839774 -35.000000 5.900481
v -19.727596 -35.000000 6.362888
v -19.571970 -35.000000 6.812537
v -19.374308 -35.000000 7.245358
v -19.136398 -35.000000 7.657429
v -18.860396 -35.000000 8.045020
v -18.548801 -35.000000 8.404620
v -18.204434 -35.000000 8.732973
v -17.830415 -35.000000 9.027105
v -17.430131 -35.000000 9.284352
v -17.007206 -35.000000 9.502385
v -16.565471 -35.000000 9.679229
v -16.108925 -35.000000 9.813283
v -15.641705 -35.000000 9.903332
v -15.168040 -35.000000 9.948562
v -14.692221 -35.000000 9.948562
v -14.218557 -35.000000 9.903332
v -13.751336 -35.000000 9.813283
v -13.294791 -35.000000 9.679229
v -12.853056 -35.000000 9.502385
v -12.430131 -35.000000 9.284352
v -12.029846 -35.000000 9.027105
v -11.655827 -35.000000 8.732973
v -11.311461 -35.000000 8.404620
v -10.999865 -35.000000 8.045020
v -10.723863 -35.000000 7.657429
v -10.485953 -35.000000 7.245358
v -10.288291 -35.000000 6.812537
v -10.132666 -35.000000 6.362888
v -10.020487 -35.000000 5.900481
v -9.952771 -35.000000 5.429505
v -9.930131 -32.500000 4.954225
v -9.952771 -32.500000 5.429505
v -10.020487 -32.500000 5.900481
v -10.132666 -32.500000 6.362888
v -10.288291 -32.500000 6.812537
v -10.485953 -32.500000 7.245358
v -10.723863 -32.500000 7.657429
v -10.999865 -32.500000 8.045020
v -11.311461 -32.500000 8.404620
v -11.655827 -32.500000 8.732973
v -12.029846 -32.500000 9.027105
v -12.430131 -32.500000 9.284352
v -12.853056 -32.500000 9.502385
v -13.294791 -32.500000 9.679229
v -13.751336 -32.500000 9.813283
v -14.218557 -32.500000 9.903332
v -14.692221 -32.500000 9.948562
v -15.168040 -32.500000 9.948562
v -15.641705 -32.500000 9.903332
v -16.108925 -32.500000 9.813283
v -16.565471 -32.500000 9.679229
v -17.007206 -32.500000 9.502385
v -17.430131 -32.500000 9.284352
v -17.830415 -32.500000 9.027105
v -18.204434 -32.500000 8.732973
v -18.548801 -32.500000 8.404620
v -18.860396 -32.500000 8.045020
v -19.136398 -32.500000 7.657429
v -19.374308 -32.500000 7.245358
v -19.571970 -32.500000 6.812537
v -19.727596 -32.500000 6.362888
v -19.839774 -32.500000 5.900481
v -19.907490 -32.500000 5.429505
v -19.930131 -32.500000 4.954225
v -19.907490 -32.500000 4.478945
v -19.839774 -32.500000 4.007969
v -19.727596 -32.500000 3.545562
v -19.571970 -32.500000 3.095913
v -19.374308 -32.500000 2.663093
v -19.136398 -32.500000 2.251021
v -18.860396 -32.500000 1.863430
v -18.548801 -32.500000 1.503830
v -18.204434 -32.500000 1.175477
v -17.830415 -32.500000 0.881345
v -17.430131 -32.500000 0.624098
v -17.007206 -32.500000 0.406065
v -16.565471 -32.500000 0.229221
v -16.108925 -32.500000 0.095167
v -15.641705 -32.500000 0.005118
v -15.168040 -32.500000 -0.040112
v -14.692221 -32.500000 -0.040112
v -14.218557 -32.500000 0.005118
v -13.751336 -32.500000 0.095167
v -13.294791 -32.500000 0.229221
v -12.853056 -32.500000 0.406065
v -12.430131 -32.500000 0.624098
v -12.029846 -32.500000 0.881345
v -11.655827 -32.500000 1.175477
v -11.311461 -32.500000 1.503830
v -10.999865 -32.500000 1.863430
v -10.723863 -32.500000 2.251021
v -10.485953 -32.500000 2.663093
v -10.288291 -32.500000 3.095913
v -10.132666 -32.500000 3.545562
v -10.020487 -32.500000 4.007969
v -9.952771 -32.500000 4.478945
vt 2.500000 -15.231964 0.000000
vt -0.000000 -15.231964 0.000000
vt 2.500000 -15.707963 0.000000
vt -0.000000 -15.707963 0.000000
vt 2.500000 15.707963 0.000000
vt -0.000000 15.707963 0.000000
vt 2.500000 15.231964 0.000000
vt -0.000000 15.231964 0.000000
vt 2.500000 14.755965 0.000000
vt -0.000000 14.755965 0.000000
vt 2.500000 14.279967 0.000000
vt -0.000000 14.279967 0.000000
vt 2.500000 13.803968 0.000000
vt -0.000000 13.803968 0.000000
vt 2.500000 13.327969 0.000000
vt -0.000000 13.327969 0.000000
vt 2.500000 12.851970 0.000000
vt -0.000000 12.851970 0.000000
vt 2.500000 12.375971 0.000000
vt -0.000000 12.375971 0.000000
vt 2.500000 11.899972 0.000000
vt -0.000000 11.899972 0.000000
vt 2.500000 11.423973 0.000000
vt -0.000000 11.423973 0.000000
vt 2.500000 10.947974 0.000000
vt -0.000000 10.947974 0.000000
vt 2.500000 10.471976 0.000000
vt -0.000000 10.471976 0.000000
vt 2.500000 9.995977 0.000000
vt -0.000000 9.995977 0.000000
vt 2.500000 9.519978 0.000000
vt -0.000000 9.519978 0.000000
vt 2.500000 9.043979 0.000000
vt -0.000000 9.043979 0.000000
vt 2.500000 8.567980 0.000000
vt -0.000000 8.567980 0.000000
vt 2.500000 8.091981 0.000000
vt -0.000000 8.091981 0.000000
vt 2.500000 7.615982 0.000000
vt -0.000000 7.615982 0.000000
vt 2.500000 7.139983 0.000000
vt -0.000000 7.139983 0.000000
vt 2.500000 6.663984 0.000000
vt -0.000000 6.663984 0.000000
vt 2.500000 6.187986 0.000000
vt -0.000000 6.187986 0.000000
vt 2.500000 5.711987 0.000000
vt -0.000000 5.711987 0.000000
vt 2.500000 5.235988 0.000000
vt -0.000000 5.235988 0.000000
vt 2.500000 4.759989 0.000000
vt -0.000000 4.759989 0.000000
vt 2.500000 4.283990 0.000000
vt -0.000000 4.283990 0.000000
vt 2.500000 3.807991 0.000000
vt -0.000000 3.807991 0.000000
vt 2.500000 3.331992 0.000000
vt -0.000000 3.331992 0.000000
vt 2.500000 2.855993 0.000000
vt -0.000000 2.855993 0.000000
vt 2.500000 2.379994 0.000000
vt -0.000000 2.379994 0.000000
vt 2.500000 1.903996 0.000000
vt -0.000000 1.903996 0.000000
vt 2.500000 1.427997 0.000000
vt -0.000000 1.427997 0.000000
vt 2.500000 0.951998 0.000000
vt -0.000000 0.951998 0.000000
vt 2.500000 0.475999 0.000000
vt -0.000000 0.475999 0.000000
vt 2.500000 0.000000 0.000000
vt -0.000000 0.000000 0.000000
vt 2.500000 -0.475999 0.000000
vt -0.000000 -0.475999 0.000000
vt 2.500000 -0.951998 0.000000
vt -0.000000 -0.951998 0.000000
vt 2.500000 -1.427997 0.000000
vt -0.000000 -1.427997 0.000000
vt 2.500000 -1.903996 0.000000
vt -0.000000 -1.903996 0.000000
vt 2.500000 -2.379994 0.000000
vt -0.000000 -2.379994 0.000000
vt 2.500000 -2.855993 0.000000
vt -0.000000 -2.855993 0.000000
vt 2.500000 -3.331992 0.000000
vt -0.000000 -3.331992 0.000000
vt 2.500000 -3.807991 0.000000
vt -0.000000 -3.807991 0.000000
vt 2.500000 -4.283990 0.000000
vt -0.000000 -4.283990 0.000000
vt 2.500000 -4.759989 0.000000
vt -0.000000 -4.759989 0.000000
vt 2.500000 -5.235988 0.000000
vt -0.000000 -5.235988 0.000000
vt 2.500000 -5.711987 0.000000
vt -0.000000 -5.711987 0.000000
vt 2.500000 -6.187986 0.000000
vt -0.000000 -6.187986 0.000000
vt 2.500000 -6.663984 0.000000
vt -0.000000 -6.663984 0.000000
vt 2.500000 -7.139983 0.000000
vt -0.000000 -7.139983 0.000000
vt 2.500000 -7.615982 0.000000
vt -0.000000 -7.615982 0.000000
vt 2.500000 -8.091981 0.000000
vt -0.000000 -8.091981 0.000000
vt 2.500000 -8.567980 0.000000
vt -0.000000 -8.567980 0.000000
vt 2.500000 -9.043979 0.000000
vt -0.000000 -9.043979 0.000000
vt 2.500000 -9.519978 0.000000
vt -0.000000 -9.519978 0.000000
vt 2.500000 -9.995977 0.000000
vt -0.000000 -9.995977 0.000000
vt 2.500000 -10.471976 0.000000
vt -0.000000 -10.471976 0.000000
vt 2.500000 -10.947974 0.000000
vt -0.000000 -10.947974 0.000000
vt 2.500000 -11.423973 0.000000
vt -0.000000 -11.423973 0.000000
vt 2.500000 -11.899972 0.000000
vt -0.000000 -11.899972 0.000000
vt 2.500000 -12.375971 0.000000
vt -0.000000 -12.375971 0.000000
vt 2.500000 -12.851970 0.000000
vt -0.000000 -12.851970 0.000000
vt 2.500000 -13.327969 0.000000
vt -0.000000 -13.327969 0.000000
vt 2.500000 -13.803968 0.000000
vt -0.000000 -13.803968 0.000000
vt 2.500000 -14.279967 0.000000
vt -0.000000 -14.279967 0.000000
vt 2.500000 -14.755965 0.000000
vt -0.000000 -14.755965 0.000000
vt 4.977360 0.475280 0.000000
vt -4.977360 0.475280 0.000000
vt 5.000000 0.000000 0.000000
vt -5.000000 0.000000 0.000000
vt 4.977360 -0.475280 0.000000
vt -4.977360 -0.475280 0.000000
vt 4.909643 -0.946256 0.000000
vt -4.909643 -0.946256 0.000000
vt 4.797465 -1.408663 0.000000
vt -4.797465 -1.408663 0.000000
vt 4.641840 -1.858312 0.000000
vt -4.641840 -1.858312 0.000000
vt 4.444177 -2.291133 0.000000
vt -4.444177 -2.291133 0.000000
vt 4.206268 -2.703204 0.000000
vt -4.206268 -2.703204 0.000000
vt 3.930265 -3.090795 0.000000
vt -3.930265 -3.090795 0.000000
vt 3.618670 -3.450395 0.000000
vt -3.618670 -3.450395 0.000000
vt 3.274304 -3.778748 0.000000
vt -3.274304 -3.778748 0.000000
vt 2.900285 -4.072880 0.000000
vt -2.900285 -4.072880 0.000000
vt 2.500000 -4.330127 0.000000
vt -2.500000 -4.330127 0.000000
vt 2.077075 -4.548160 0.000000
vt -2.077075 -4.548160 0.000000
vt 1.635340 -4.725004 0.000000
vt -1.635340 -4.725004 0.000000
vt 1.178795 -4.859058 0.000000
vt -1.178795 -4.859058 0.000000
vt 0.711574 -4.949107 0.000000
vt -0.711574 -4.949107 0.000000
vt 0.237910 -4.994337 0.000000
vt -0.237910 -4.994337 0.000000
vt -4.909643 0.946256 0.000000
vt 4.909643 0.946256 0.000000
vt -4.797465 1.408663 0.000000
vt 4.797465 1.408663 0.000000
vt -4.641840 1.858312 0.000000
vt 4.641840 1.858312 0.000000
vt -4.444177 2.291133 0.000000
vt 4.444177 2.291133 0.000000
vt -4.206268 2.703204 0.000000
vt 4.206268 2.703204 0.000000
vt -3.930265 3.090795 0.000000
vt 3.930265 3.090795 0.000000
vt -3.618670 3.450395 0.000000
vt 3.618670 3.450395 0.000000
vt -3.274304 3.778748 0.000000
vt 3.274304 3.778748 0.000000
vt -2.900285 4.072880 0.000000
vt 2.900285 4.072880 0.000000
vt -2.500000 4.330127 0.000000
vt 2.500000 4.330127 0.000000
vt -2.077075 4.548160 0.000000
vt 2.077075 4.548160 0.000000
vt -1.635340 4.725004 0.000000
vt 1.635340 4.725004 0.000000
vt -1.178795 4.859058 0.000000
vt 1.178795 4.859058 0.000000
vt -0.711574 4.949107 0.000000
vt 0.711574 4.949107 0.000000
vt -0.237910 4.994337 0.000000
vt 0.237910 4.994337 0.000000
vt -4.977360 -0.475280 0.000000
vt 4.977360 -0.475280 0.000000
vt -5.000000 0.000000 0.000000
vt 5.000000 0.000000 0.000000
vt -4.977360 0.475280 0.000000
vt 4.977360 0.475280 0.000000
vt -4.909643 0.946256 0.000000
vt 4.909643 0.946256 0.000000
vt -4.797465 1.408663 0.000000
vt 4.797465 1.408663 0.000000
vt -4.641840 1.858312 0.000000
vt 4.641840 1.858312 0.000000
vt -4.444177 2.291133 0.000000
vt 4.444177 2.291133 0.000000
vt -4.206268 2.703204 0.000000
vt 4.206268 2.703204 0.000000
vt -3.930265 3.090795 0.000000
vt 3.930265 3.090795 0.000000
vt -3.618670 3.450395 0.000000
vt 3.618670 3.450395 0.000000
vt -3.274304 3.778748 0.000000
vt 3.274304 3.778748 0.000000
vt -2.900285 4.072880 0.000000
vt 2.900285 4.072880 0.000000
vt -2.500000 4.330127 0.000000
vt 2.500000 4.330127 0.000000
vt -2.077075 4.548160 0.000000
vt 2.077075 4.548160 0.000000
vt -1.635340 4.725004 0.000000
vt 1.635340 4.725004 0.000000
vt -1.178795 4.859058 0.000000
vt 1.178795 4.859058 0.000000
vt -0.711574 4.949107 0.000000
vt 0.711574 4.949107 0.000000
vt -0.237910 4.994337 0.000000
vt 0.237910 4.994337 0.000000
vt 4.909643 -0.946256 0.000000
vt -4.909643 -0.946256 0.000000
vt 4.797465 -1.408663 0.000000
vt -4.797465 -1.408663 0.000000
vt 4.641840 -1.858312 0.000000
vt -4.641840 -1.858312 0.000000
vt 4.444177 -2.291133 0.000000
vt -4.444177 -2.291133 0.000000
vt 4.206268 -2.703204 0.000000
vt -4.206268 -2.703204 0.000000
vt 3.930265 -3.090795 0.000000
vt -3.930265 -3.090795 0.000000
vt 3.618670 -3.450395 0.000000
vt -3.618670 -3.450395 0.000000
vt 3.274304 -3.778748 0.000000
vt -3.274304 -3.778748 0.000000
vt 2.900285 -4.072880 0.000000
vt -2.900285 -4.072880 0.000000
vt 2.500000 -4.330127 0.000000
vt -2.500000 -4.330127 0.000000
vt 2.077075 -4.548160 0.000000
vt -2.077075 -4.548160 0.000000
vt 1.635340 -4.725004 0.000000
vt -1.635340 -4.725004 0.000000
vt 1.178795 -4.859058 0.000000
vt -1.178795 -4.859058 0.000000
vt 0.711574 -4.949107 0.000000
vt -0.711574 -4.949107 0.000000
vt 0.237910 -4.994337 0.000000
vt -0.237910 -4.994337 0.000000
vn 0.995472 0.000000 -0.095056
vn 0.995472 0.000000 -0.095056
vn 1.000000 0.000000 -0.000000
vn 1.000000 0.000000 -0.000000
vn 0.995472 0.000000 0.095056
vn 0.995472 0.000000 0.095056
vn 0.981929 0.000000 0.189251
vn 0.981929 0.000000 0.189251
vn 0.959493 0.000000 0.281733
vn 0.959493 0.000000 0.281733
vn 0.928368 0.000000 0.371662
vn 0.928368 0.000000 0.371662
vn 0.888835 0.000000 0.458227
vn 0.888835 0.000000 0.458227
vn 0.841254 0.000000 0.540641
vn 0.841254 0.000000 0.540641
vn 0.786053 0.000000 0.618159
vn 0.786053 0.000000 0.618159
vn 0.723734 0.000000 0.690079
vn 0.723734 0.000000 0.690079
vn 0.654861 0.000000 0.755750
vn 0.654861 0.000000 0.755750
vn 0.580057 0.000000 0.814576
vn 0.580057 0.000000 0.814576
vn 0.500000 0.000000 0.866025
vn 0.500000 0.000000 0.866025
vn 0.415415 0.000000 0.909632
vn 0.415415 0.000000 0.909632
vn 0.327068 0.000000 0.945001
vn 0.327068 0.000000 0.945001
vn 0.235759 0.000000 0.971812
vn 0.235759 0.000000 0.971812
vn 0.142315 0.000000 0.989821
vn 0.142315 0.000000 0.989821
vn 0.047582 0.000000 0.998867
vn 0.047582 0.000000 0.998867
vn -0.047582 0.000000 0.998867
vn -0.047582 0.000000 0.998867
vn -0.142315 0.000000 0.989821
vn -0.142315 0.000000 0.989821
vn -0.235759 0.000000 0.971812
vn -0.235759 0.000000 0.971812
vn -0.327068 0.000000 0.945001
vn -0.327068 0.000000 0.945001
vn -0.415415 0.000000 0.909632
vn -0.415415 0.000000 0.909632
vn -0.500000 0.000000 0.866025
vn -0.500000 0.000000 0.866025
vn -0.580057 0.000000 0.814576
vn -0.580057 0.000000 0.814576
vn -0.654861 0.000000 0.755750
vn -0.654861 0.000000 0.755750
vn -0.723734 0.000000 0.690079
vn -0.723734 0.000000 0.690079
vn -0.786053 0.000000 0.618159
vn -0.786053 0.000000 0.618159
vn -0.841254 0.000000 0.540641
vn -0.841254 0.000000 0.540641
vn -0.888835 0.000000 0.458227
vn -0.888835 0.000000 0.458227
vn -0.928368 0.000000 0.371662
vn -0.928368 0.000000 0.371662
vn -0.959493 0.000000 0.281733
vn -0.959493 0.000000 0.281733
vn -0.981929 0.000000 0.189251
vn -0.981929 0.000000 0.189251
vn -0.995472 0.000000 0.095056
vn -0.995472 0.000000 0.095056
vn -1.000000 0.000000 0.000000
vn -1.000000 0.000000 0.000000
vn -0.995472 0.000000 -0.095056
vn -0.995472 0.000000 -0.095056
vn -0.981929 0.000000 -0.189251
vn -0.981929 0.000000 -0.189251
vn -0.959493 0.000000 -0.281733
vn -0.959493 0.000000 -0.281733
vn -0.928368 0.000000 -0.371662
vn -0.928368 0.000000 -0.371662
vn -0.888835 0.000000 -0.458227
vn -0.888835 0.000000 -0.458227
vn -0.841254 0.000000 -0.540641
vn -0.841254 0.000000 -0.540641
vn -0.786053 0.000000 -0.618159
vn -0.786053 0.000000 -0.618159
vn -0.723734 0.000000 -0.690079
vn -0.723734 0.000000 -0.690079
vn -0.654861 0.000000 -0.755750
vn -0.654861 0.000000 -0.755750
vn -0.580057 0.000000 -0.814576
vn -0.580057 0.000000 -0.814576
vn -0.500000 0.000000 -0.866025
vn -0.500000 0.000000 -0.866025
vn -0.415415 0.000000 -0.909632
vn -0.415415 0.000000 -0.909632
vn -0.327068 0.000000 -0.945001
vn -0.327068 0.000000 -0.945001
vn -0.235759 0.000000 -0.971812
vn -0.235759 0.000000 -0.971812
vn -0.142315 0.000000 -0.989821
vn -0.142315 0.000000 -0.989821
vn -0.047582 0.000000 -0.998867
vn -0.047582 0.000000 -0.998867
vn 0.047582 0.000000 -0.998867
vn 0.047582 0.000000 -0.998867
vn 0.142315 0.000000 -0.989821
vn 0.142315 0.000000 -0.989821
vn 0.235759 0.000000 -0.971812
vn 0.235759 0.000000 -0.971812
vn 0.327068 0.000000 -0.945001
vn 0.327068 0.000000 -0.945001
vn 0.415415 0.000000 -0.909632
vn 0.415415 0.000000 -0.909632
vn 0.500000 0.000000 -0.866025
vn 0.500000 0.000000 -0.866025
vn 0.580057 0.000000 -0.814576
vn 0.580057 0.000000 -0.814576
vn 0.654861 0.000000 -0.755750
vn 0.654861 0.000000 -0.755750
vn 0.723734 0.000000 -0.690079
vn 0.723734 0.000000 -0.690079
vn 0.786053 0.000000 -0.618159
vn 0.786053 0.000000 -0.618159
vn 0.841254 0.000000 -0.540641
vn 0.841254 0.000000 -0.540641
vn 0.888835 0.000000 -0.458227
vn 0.888835 0.000000 -0.458227
vn 0.928368 0.000000 -0.371662
vn 0.928368 0.000000 -0.371662
vn 0.959493 0.000000 -0.281733
vn 0.959493 0.000000 -0.281733
vn 0.981929 0.000000 -0.189251
vn 0.981929 0.000000 -0.189251
vn 0.000000 -1.000000 0.000000
vn 0.000000 -1.000000 0.000000
vn 0.000000 -1.000000 0.000000
vn 0.000000 -1.000000 0.000000
vn 0.000000 -1.000000 0.000000
vn 0.000000 -1.000000 0.000000
vn 0.000000 -1.000000 0.000000
vn 0.000000 -1.000000 0.000000
vn 0.000000 -1.000000 0.000000
vn 0.000000 -1.000000 0.000000
vn 0.000000 -1.000000 0.000000
vn 0.000000 -1.000000 0.000000
vn 0.000000 -1.000000 0.000000
vn 0.000000 -1.000000 0.000000
vn 0.000000 -1.000000 0.000000
vn 0.000000 -1.000000 0.000000
vn 0.000000 -1.000000 0.000000
vn 0.000000 -1.000000 0.000000
vn 0.000000 -1.000000 0.000000
vn 0.000000 -1.000000 0.000000
vn 0.000000 -1.000000 0.000000
vn 0.000000 -1.000000 0.000000
vn 0.000000 -1.000000 0.000000
vn 0.000000 -1.000000 0.000000
vn 0.000000 -1.000000 0.000000
vn 0.000000 -1.000000 0.000000
vn 0.000000 -1.000000 0.000000
vn 0.000000 -1.000000 0.000000
vn 0.000000 -1.000000 0.000000
vn 0.000000 -1.000000 0.000000
vn 0.000000 -1.000000 0.000000
vn 0.000000 -1.000000 0.000000
vn 0.000000 -1.000000 0.000000
vn 0.000000 -1.000000 0.000000
vn 0.000000 -1.000000 0.000000
vn 0.000000 -1.000000 0.000000
vn 0.000000 -1.000000 0.000000
vn 0.000000 -1.000000 0.000000
vn 0.000000 -1.000000 0.000000
vn 0.000000 -1.000000 0.000000
vn 0.000000 -1.000000 0.000000
vn 0.000000 -1.000000 0.000000
vn 0.000000 -1.000000 0.000000
vn 0.000000 -1.000000 0.000000
vn 0.000000 -1.000000 0.000000
vn 0.000000 -1.000000 0.000000
vn 0.000000 -1.000000 0.000000
vn 0.000000 -1.000000 0.000000
vn 0.000000 -1.000000 0.000000
vn 0.000000 -1.000000 0.000000
vn 0.000000 -1.000000 0.000000
vn 0.000000 -1.000000 0.000000
vn 0.000000 -1.000000 0.000000
vn 0.000000 -1.000000 0.000000
vn 0.000000 -1.000000 0.000000
vn 0.000000 -1.000000 0.000000
vn 0.000000 -1.000000 0.000000
vn 0.000000 -1.000000 0.000000
vn 0.000000 -1.000000 0.000000
vn 0.000000 -1.000000 0.000000
vn 0.000000 -1.000000 0.000000
vn 0.000000 -1.000000 0.000000
vn 0.000000 -1.000000 0.000000
vn 0.000000 -1.000000 0.000000
vn 0.000000 -1.000000 0.000000
vn 0.000000 -1.000000 0.000000
vn -0.000000 1.000000 -0.000000
vn -0.000000 1.000000 -0.000000
vn -0.000000 1.000000 -0.000000
vn -0.000000 1.000000 -0.000000
vn -0.000000 1.000000 -0.000000
vn -0.000000 1.000000 -0.000000
vn -0.000000 1.000000 -0.000000
vn -0.000000 1.000000 -0.000000
vn -0.000000 1.000000 -0.000000
vn -0.000000 1.000000 -0.000000
vn -0.000000 1.000000 -0.000000
vn -0.000000 1.000000 -0.000000
vn -0.000000 1.000000 -0.000000
vn -0.000000 1.000000 -0.000000
vn -0.000000 1.000000 -0.000000
vn -0.000000 1.000000 -0.000000
vn -0.000000 1.000000 -0.000000
vn -0.000000 1.000000 -0.000000
vn -0.000000 1.000000 -0.000000
vn -0.000000 1.000000 -0.000000
vn -0.000000 1.000000 -0.000000
vn -0.000000 1.000000 -0.000000
vn -0.000000 1.000000 -0.000000
vn -0.000000 1.000000 -0.000000
vn -0.000000 1.000000 -0.000000
vn -0.000000 1.000000 -0.000000
vn -0.000000 1.000000 -0.000000
vn -0.000000 1.000000 -0.000000
vn -0.000000 1.000000 -0.000000
vn -0.000000 1.000000 -0.000000
vn -0.000000 1.000000 -0.000000
vn -0.000000 1.000000 -0.000000
vn -0.000000 1.000000 -0.000000
vn -0.000000 1.000000 -0.000000
vn -0.000000 1.000000 -0.000000
vn -0.000000 1.000000 -0.000000
vn -0.000000 1.000000 -0.000000
vn -0.000000 1.000000 -0.000000
vn -0.000000 1.000000 -0.000000
vn -0.000000 1.000000 -0.000000
vn -0.000000 1.000000 -0.000000
vn -0.000000 1.000000 -0.000000
vn -0.000000 1.000000 -0.000000
vn -0.000000 1.000000 -0.000000
vn -0.000000 1.000000 -0.000000
vn -0.000000 1.000000 -0.000000
vn -0.000000 1.000000 -0.000000
vn -0.000000 1.000000 -0.000000
vn -0.000000 1.000000 -0.000000
vn -0.000000 1.000000 -0.000000
vn -0.000000 1.000000 -0.000000
vn -0.000000 1.000000 -0.000000
vn -0.000000 1.000000 -0.000000
vn -0.000000 1.000000 -0.000000
vn -0.000000 1.000000 -0.000000
vn -0.000000 1.000000 -0.000000
vn -0.000000 1.000000 -0.000000
vn -0.000000 1.000000 -0.000000
vn -0.000000 1.000000 -0.000000
vn -0.000000 1.000000 -0.000000
vn -0.000000 1.000000 -0.000000
vn -0.000000 1.000000 -0.000000
vn -0.000000 1.000000 -0.000000
vn -0.000000 1.000000 -0.000000
vn -0.000000 1.000000 -0.000000
vn -0.000000 1.000000 -0.000000
usemtl Rubber_-_Weathered
f 2/1/1 132/2/2 1/3/3
f 1/3/3 132/2/2 67/4/4
f 1/5/3 67/6/4 66/7/5
f 66/7/5 67/6/4 68/8/6
f 66/7/5 68/8/6 65/9/7
f 65/9/7 68/8/6 69/10/8
f 65/9/7 69/10/8 64/11/9
f 64/11/9 69/10/8 70/12/10
f 64/11/9 70/12/10 63/13/11
f 63/13/11 70/12/10 71/14/12
f 63/13/11 71/14/12 62/15/13
f 62/15/13 71/14/12 72/16/14
f 62/15/13 72/16/14 61/17/15
f 61/17/15 72/16/14 73/18/16
f 61/17/15 73/18/16 60/19/17
f 60/19/17 73/18/16 74/20/18
f 60/19/17 74/20/18 59/21/19
f 59/21/19 74/20/18 75/22/20
f 59/21/19 75/22/20 58/23/21
f 58/23/21 75/22/20 76/24/22
f 58/23/21 76/24/22 57/25/23
f 57/25/23 76/24/22 77/26/24
f 57/25/23 77/26/24 56/27/25
f 56/27/25 77/26/24 78/28/26
f 56/27/25 78/28/26 55/29/27
f 55/29/27 78/28/26 79/30/28
f 55/29/27 79/30/28 54/31/29
f 54/31/29 79/30/28 80/32/30
f 54/31/29 80/32/30 53/33/31
f 53/33/31 80/32/30 81/34/32
f 53/33/31 81/34/32 52/35/33
f 52/35/33 81/34/32 82/36/34
f 52/35/33 82/36/34 51/37/35
f 51/37/35 82/36/34 83/38/36
f 51/37/35 83/38/36 50/39/37
f 50/39/37 83/38/36 84/40/38
f 50/39/37 84/40/38 49/41/39
f 49/41/39 84/40/38 85/42/40
f 49/41/39 85/42/40 48/43/41
f 48/43/41 85/42/40 86/44/42
f 48/43/41 86/44/42 47/45/43
f 47/45/43 86/44/42 87/46/44
f 47/45/43 87/46/44 46/47/45
f 46/47/45 87/46/44 88/48/46
f 46/47/45 88/48/46 45/49/47
f 45/49/47 88/48/46 89/50/48
f 45/49/47 89/50/48 44/51/49
f 44/51/49 89/50/48 90/52/50
f 44/51/49 90/52/50 43/53/51
f 43/53/51 90/52/50 91/54/52
f 43/53/51 91/54/52 42/55/53
f 42/55/53 91/54/52 92/56/54
f 42/55/53 92/56/54 41/57/55
f 41/57/55 92/56/54 93/58/56
f 41/57/55 93/58/56 40/59/57
f 40/59/57 93/58/56 94/60/58
f 40/59/57 94/60/58 39/61/59
f 39/61/59 94/60/58 95/62/60
f 39/61/59 95/62/60 38/63/61
f 38/63/61 95/62/60 96/64/62
f 38/63/61 96/64/62 37/65/63
f 37/65/63 96/64/62 97/66/64
f 37/65/63 97/66/64 36/67/65
f 36/67/65 97/66/64 98/68/66
f 36/67/65 98/68/66 35/69/67
f 35/69/67 98/68/66 99/70/68
f 35/69/67 99/70/68 34/71/69
f 34/71/69 99/70/68 100/72/70
f 34/71/69 100/72/70 33/73/71
f 33/73/71 100/72/70 101/74/72
f 33/73/71 101/74/72 32/75/73
f 32/75/73 101/74/72 102/76/74
f 32/75/73 102/76/74 31/77/75
f 31/77/75 102/76/74 103/78/76
f 31/77/75 103/78/76 30/79/77
f 30/79/77 103/78/76 104/80/78
f 30/79/77 104/80/78 29/81/79
f 29/81/79 104/80/78 105/82/80
f 29/81/79 105/82/80 28/83/81
f 28/83/81 105/82/80 106/84/82
f 28/83/81 106/84/82 27/85/83
f 27/85/83 106/84/82 107/86/84
f 27/85/83 107/86/84 26/87/85
f 26/87/85 107/86/84 108/88/86
f 26/87/85 108/88/86 25/89/87
f 25/89/87 108/88/86 109/90/88
f 25/89/87 109/90/88 24/91/89
f 24/91/89 109/90/88 110/92/90
f 24/91/89 110/92/90 23/93/91
f 23/93/91 110/92/90 111/94/92
f 23/93/91 111/94/92 22/95/93
f 22/95/93 111/94/92 112/96/94
f 22/95/93 112/96/94 21/97/95
f 21/97/95 112/96/94 113/98/96
f 21/97/95 113/98/96 20/99/97
f 20/99/97 113/98/96 114/100/98
f 20/99/97 114/100/98 19/101/99
f 19/101/99 114/100/98 115/102/100
f 19/101/99 115/102/100 18/103/101
f 18/103/101 115/102/100 116/104/102
f 18/103/101 116/104/102 17/105/103
f 17/105/103 116/104/102 117/106/104
f 17/105/103 117/106/104 16/107/105
f 16/107/105 117/106/104 118/108/106
f 16/107/105 118/108/106 15/109/107
f 15/109/107 118/108/106 119/110/108
f 15/109/107 119/110/108 14/111/109
f 14/111/109 119/110/108 120/112/110
f 14/111/109 120/112/110 13/113/111
f 13/113/111 120/112/110 121/114/112
f 13/113/111 121/114/112 12/115/113
f 12/115/113 121/114/112 122/116/114
f 12/115/113 122/116/114 11/117/115
f 11/117/115 122/116/114 123/118/116
f 11/117/115 123/118/116 10/119/117
f 10/119/117 123/118/116 124/120/118
f 10/119/117 124/120/118 9/121/119
f 9/121/119 124/120/118 125/122/120
f 9/121/119 125/122/120 8/123/121
f 8/123/121 125/122/120 126/124/122
f 8/123/121 126/124/122 7/125/123
f 7/125/123 126/124/122 127/126/124
f 7/125/123 127/126/124 6/127/125
f 6/127/125 127/126/124 128/128/126
f 6/127/125 128/128/126 5/129/127
f 5/129/127 128/128/126 129/130/128
f 5/129/127 129/130/128 4/131/129
f 4/131/129 129/130/128 130/132/130
f 4/131/129 130/132/130 3/133/131
f 3/133/131 130/132/130 131/134/132
f 3/133/131 131/134/132 2/1/1
f 2/1/1 131/134/132 132/2/2
f 66/135/133 35/136/134 1/137/135
f 1/137/135 35/136/134 34/138/136
f 1/137/135 34/138/136 2/139/137
f 2/139/137 34/138/136 33/140/138
f 2/139/137 33/140/138 3/141/139
f 3/141/139 33/140/138 32/142/140
f 3/141/139 32/142/140 4/143/141
f 4/143/141 32/142/140 31/144/142
f 4/143/141 31/144/142 5/145/143
f 5/145/143 31/144/142 30/146/144
f 5/145/143 30/146/144 6/147/145
f 6/147/145 30/146/144 29/148/146
f 6/147/145 29/148/146 7/149/147
f 7/149/147 29/148/146 28/150/148
f 7/149/147 28/150/148 8/151/149
f 8/151/149 28/150/148 27/152/150
f 8/151/149 27/152/150 9/153/151
f 9/153/151 27/152/150 26/154/152
f 9/153/151 26/154/152 10/155/153
f 10/155/153 26/154/152 25/156/154
f 10/155/153 25/156/154 11/157/155
f 11/157/155 25/156/154 24/158/156
f 11/157/155 24/158/156 12/159/157
f 12/159/157 24/158/156 23/160/158
f 12/159/157 23/160/158 13/161/159
f 13/161/159 23/160/158 22/162/160
f 13/161/159 22/162/160 14/163/161
f 14/163/161 22/162/160 21/164/162
f 14/163/161 21/164/162 15/165/163
f 15/165/163 21/164/162 20/166/164
f 15/165/163 20/166/164 16/167/165
f 16/167/165 20/166/164 19/168/166
f 16/167/165 19/168/166 17/169/167
f 17/169/167 19/168/166 18/170/168
f 35/136/134 66/135/133 36/171/169
f 36/171/169 66/135/133 65/172/170
f 36/171/169 65/172/170 37/173/171
f 37/173/171 65/172/170 64/174/172
f 37/173/171 64/174/172 38/175/173
f 38/175/173 64/174/172 63/176/174
f 38/175/173 63/176/174 39/177/175
f 39/177/175 63/176/174 62/178/176
f 39/177/175 62/178/176 40/179/177
f 40/179/177 62/178/176 61/180/178
f 40/179/177 61/180/178 41/181/179
f 41/181/179 61/180/178 60/182/180
f 41/181/179 60/182/180 42/183/181
f 42/183/181 60/182/180 59/184/182
f 42/183/181 59/184/182 43/185/183
f 43/185/183 59/184/182 58/186/184
f 43/185/183 58/186/184 44/187/185
f 44/187/185 58/186/184 57/188/186
f 44/187/185 57/188/186 45/189/187
f 45/189/187 57/188/186 56/190/188
f 45/189/187 56/190/188 46/191/189
f 46/191/189 56/190/188 55/192/190
f 46/191/189 55/192/190 47/193/191
f 47/193/191 55/192/190 54/194/192
f 47/193/191 54/194/192 48/195/193
f 48/195/193 54/194/192 53/196/194
f 48/195/193 53/196/194 49/197/195
f 49/197/195 53/196/194 52/198/196
f 49/197/195 52/198/196 50/199/197
f 50/199/197 52/198/196 51/200/198
f 132/201/199 101/202/200 67/203/201
f 67/203/201 101/202/200 100/204/202
f 67/203/201 100/204/202 68/205/203
f 68/205/203 100/204/202 99/206/204
f 68/205/203 99/206/204 69/207/205
f 69/207/205 99/206/204 98/208/206
f 69/207/205 98/208/206 70/209/207
f 70/209/207 98/208/206 97/210/208
f 70/209/207 97/210/208 71/211/209
f 71/211/209 97/210/208 96/212/210
f 71/211/209 96/212/210 72/213/211
f 72/213/211 96/212/210 95/214/212
f 72/213/211 95/214/212 73/215/213
f 73/215/213 95/214/212 94/216/214
f 73/215/213 94/216/214 74/217/215
f 74/217/215 94/216/214 93/218/216
f 74/217/215 93/218/216 75/219/217
f 75/219/217 93/218/216 92/220/218
f 75/219/217 92/220/218 76/221/219
f 76/221/219 92/220/218 91/222/220
f 76/221/219 91/222/220 77/223/221
f 77/223/221 91/222/220 90/224/222
f 77/223/221 90/224/222 78/225/223
f 78/225/223 90/224/222 89/226/224
f 78/225/223 89/226/224 79/227/225
f 79/227/225 89/226/224 88/228/226
f 79/227/225 88/228/226 80/229/227
f 80/229/227 88/228/226 87/230/228
f 80/229/227 87/230/228 81/231/229
f 81/231/229 87/230/228 86/232/230
f 81/231/229 86/232/230 82/233/231
f 82/233/231 86/232/230 85/234/232
f 82/233/231 85/234/232 83/235/233
f 83/235/233 85/234/232 84/236/234
f 101/202/200 132/201/199 102/237/235
f 102/237/235 132/201/199 131/238/236
f 102/237/235 131/238/236 103/239/237
f 103/239/237 131/238/236 130/240/238
f 103/239/237 130/240/238 104/241/239
f 104/241/239 130/240/238 129/242/240
f 104/241/239 129/242/240 105/243/241
f 105/243/241 129/242/240 128/244/242
f 105/243/241 128/244/242 106/245/243
f 106/245/243 128/244/242 127/246/244
f 106/245/243 127/246/244 107/247/245
f 107/247/245 127/246/244 126/248/246
f 107/247/245 126/248/246 108/249/247
f 108/249/247 126/248/246 125/250/248
f 108/249/247 125/250/248 109/251/249
f 109/251/249 125/250/248 124/252/250
f 109/251/249 124/252/250 110/253/251
f 110/253/251 124/252/250 123/254/252
f 110/253/251 123/254/252 111/255/253
f 111/255/253 123/254/252 122/256/254
f 111/255/253 122/256/254 112/257/255
f 112/257/255 122/256/254 121/258/256
f 112/257/255 121/258/256 113/259/257
f 113/259/257 121/258/256 120/260/258
f 113/259/257 120/260/258 114/261/259
f 114/261/259 120/260/258 119/262/260
f 114/261/259 119/262/260 115/263/261
f 115/263/261 119/262/260 118/264/262
f 115/263/261 118/264/262 116/265/263
f 116/265/263 118/264/262 117/266/264
# 132 vertices
# 266 texture params
# 264 normals
# 260 facets

# 1 groups
