# WaveFront *.obj file (generated by Autodesk ATF)

mtllib lw1_visual.mtl

g LW1

v 5.966074 25.204286 3.956632
v 5.677914 25.204286 3.577993
v 5.427050 25.204286 3.173677
v 5.215754 25.204286 2.747346
v 5.045941 25.204286 2.302861
v 4.919148 25.204286 1.844246
v 4.836523 25.204286 1.375656
v 4.798814 25.204286 0.901333
v 4.806363 25.204286 0.425574
v 4.859102 25.204286 -0.047313
v 4.956553 25.204286 -0.513046
v 5.097834 25.204286 -0.967407
v 5.281664 25.204286 -1.406281
v 5.506380 25.204286 -1.825693
v 5.769945 25.204286 -2.221846
v 6.069974 25.204286 -2.591151
v 6.403750 25.204286 -2.930265
v 6.768248 25.204286 -3.236116
v 7.160169 25.204286 -3.505933
v 7.575964 25.204286 -3.737275
v 8.011866 25.204286 -3.928046
v 8.463928 25.204286 -4.076517
v 8.928056 25.204286 -4.181345
v 9.400047 25.204286 -4.241580
v 9.875626 25.204286 -4.256677
v 10.350488 25.204286 -4.226499
v 10.820330 25.204286 -4.151319
v 11.280898 25.204286 -4.031818
v 11.728022 25.204286 -3.869078
v 12.157652 25.204286 -3.664573
v 12.565897 25.204286 -3.420156
v 12.949060 25.204286 -3.138039
v 13.303671 25.204286 -2.820777
v 13.626519 25.204286 -2.471244
v 13.914680 25.204286 -2.092606
v 14.165543 25.204286 -1.688290
v 14.376839 25.204286 -1.261959
v 14.546652 25.204286 -0.817474
v 14.673446 25.204286 -0.358859
v 14.756071 25.204286 0.109731
v 14.793779 25.204286 0.584054
v 14.786230 25.204286 1.059813
v 14.733491 25.204286 1.532701
v 14.636040 25.204286 1.998434
v 14.494760 25.204286 2.452794
v 14.310929 25.204286 2.891668
v 14.086214 25.204286 3.311081
v 13.822648 25.204286 3.707233
v 13.522619 25.204286 4.076539
v 13.188844 25.204286 4.415652
v 12.824345 25.204286 4.721503
v 12.432424 25.204286 4.991321
v 12.016630 25.204286 5.222663
v 11.580728 25.204286 5.413433
v 11.128666 25.204286 5.561904
v 10.664538 25.204286 5.666732
v 10.192546 25.204286 5.726968
v 9.716967 25.204286 5.742064
v 9.242106 25.204286 5.711886
v 8.772263 25.204286 5.636706
v 8.311695 25.204286 5.517205
v 7.864571 25.204286 5.354465
v 7.434941 25.204286 5.149960
v 7.026696 25.204286 4.905543
v 6.643533 25.204286 4.623426
v 6.288922 25.204286 4.306165
v 5.966074 22.704286 3.956632
v 6.288922 22.704286 4.306165
v 6.643533 22.704286 4.623426
v 7.026696 22.704286 4.905543
v 7.434941 22.704286 5.149960
v 7.864571 22.704286 5.354465
v 8.311695 22.704286 5.517205
v 8.772263 22.704286 5.636706
v 9.242106 22.704286 5.711886
v 9.716967 22.704286 5.742064
v 10.192546 22.704286 5.726968
v 10.664538 22.704286 5.666732
v 11.128666 22.704286 5.561904
v 11.580728 22.704286 5.413433
v 12.016630 22.704286 5.222663
v 12.432424 22.704286 4.991321
v 12.824345 22.704286 4.721503
v 13.188844 22.704286 4.415652
v 13.522619 22.704286 4.076539
v 13.822648 22.704286 3.707233
v 14.086214 22.704286 3.311081
v 14.310929 22.704286 2.891668
v 14.494760 22.704286 2.452794
v 14.636040 22.704286 1.998434
v 14.733491 22.704286 1.532701
v 14.786230 22.704286 1.059813
v 14.793779 22.704286 0.584054
v 14.756071 22.704286 0.109731
v 14.673446 22.704286 -0.358859
v 14.546652 22.704286 -0.817474
v 14.376839 22.704286 -1.261959
v 14.165543 22.704286 -1.688290
v 13.914680 22.704286 -2.092606
v 13.626519 22.704286 -2.471244
v 13.303671 22.704286 -2.820777
v 12.949060 22.704286 -3.138039
v 12.565897 22.704286 -3.420156
v 12.157652 22.704286 -3.664573
v 11.728022 22.704286 -3.869078
v 11.280898 22.704286 -4.031818
v 10.820330 22.704286 -4.151319
v 10.350488 22.704286 -4.226499
v 9.875626 22.704286 -4.256677
v 9.400047 22.704286 -4.241580
v 8.928056 22.704286 -4.181345
v 8.463928 22.704286 -4.076517
v 8.011866 22.704286 -3.928046
v 7.575964 22.704286 -3.737275
v 7.160169 22.704286 -3.505933
v 6.768248 22.704286 -3.236116
v 6.403750 22.704286 -2.930265
v 6.069974 22.704286 -2.591151
v 5.769945 22.704286 -2.221846
v 5.506380 22.704286 -1.825693
v 5.281664 22.704286 -1.406281
v 5.097834 22.704286 -0.967407
v 4.956553 22.704286 -0.513046
v 4.859102 22.704286 -0.047313
v 4.806363 22.704286 0.425574
v 4.798814 22.704286 0.901333
v 4.836523 22.704286 1.375656
v 4.919148 22.704286 1.844246
v 5.045941 22.704286 2.302861
v 5.215754 22.704286 2.747346
v 5.427050 22.704286 3.173677
v 5.677914 22.704286 3.577993
vt 2.500000 -15.231964 0.000000
vt -0.000000 -15.231964 0.000000
vt 2.500000 -15.707963 0.000000
vt -0.000000 -15.707963 0.000000
vt 2.500000 15.707963 0.000000
vt -0.000000 15.707963 0.000000
vt 2.500000 15.231964 0.000000
vt -0.000000 15.231964 0.000000
vt 2.500000 14.755965 0.000000
vt -0.000000 14.755965 0.000000
vt 2.500000 14.279967 0.000000
vt -0.000000 14.279967 0.000000
vt 2.500000 13.803968 0.000000
vt -0.000000 13.803968 0.000000
vt 2.500000 13.327969 0.000000
vt -0.000000 13.327969 0.000000
vt 2.500000 12.851970 0.000000
vt -0.000000 12.851970 0.000000
vt 2.500000 12.375971 0.000000
vt -0.000000 12.375971 0.000000
vt 2.500000 11.899972 0.000000
vt -0.000000 11.899972 0.000000
vt 2.500000 11.423973 0.000000
vt -0.000000 11.423973 0.000000
vt 2.500000 10.947974 0.000000
vt -0.000000 10.947974 0.000000
vt 2.500000 10.471976 0.000000
vt -0.000000 10.471976 0.000000
vt 2.500000 9.995977 0.000000
vt -0.000000 9.995977 0.000000
vt 2.500000 9.519978 0.000000
vt -0.000000 9.519978 0.000000
vt 2.500000 9.043979 0.000000
vt -0.000000 9.043979 0.000000
vt 2.500000 8.567980 0.000000
vt -0.000000 8.567980 0.000000
vt 2.500000 8.091981 0.000000
vt -0.000000 8.091981 0.000000
vt 2.500000 7.615982 0.000000
vt -0.000000 7.615982 0.000000
vt 2.500000 7.139983 0.000000
vt -0.000000 7.139983 0.000000
vt 2.500000 6.663984 0.000000
vt -0.000000 6.663984 0.000000
vt 2.500000 6.187986 0.000000
vt -0.000000 6.187986 0.000000
vt 2.500000 5.711987 0.000000
vt -0.000000 5.711987 0.000000
vt 2.500000 5.235988 0.000000
vt -0.000000 5.235988 0.000000
vt 2.500000 4.759989 0.000000
vt -0.000000 4.759989 0.000000
vt 2.500000 4.283990 0.000000
vt -0.000000 4.283990 0.000000
vt 2.500000 3.807991 0.000000
vt -0.000000 3.807991 0.000000
vt 2.500000 3.331992 0.000000
vt -0.000000 3.331992 0.000000
vt 2.500000 2.855993 0.000000
vt -0.000000 2.855993 0.000000
vt 2.500000 2.379994 0.000000
vt -0.000000 2.379994 0.000000
vt 2.500000 1.903996 0.000000
vt -0.000000 1.903996 0.000000
vt 2.500000 1.427997 0.000000
vt -0.000000 1.427997 0.000000
vt 2.500000 0.951998 0.000000
vt -0.000000 0.951998 0.000000
vt 2.500000 0.475999 0.000000
vt -0.000000 0.475999 0.000000
vt 2.500000 0.000000 0.000000
vt -0.000000 0.000000 0.000000
vt 2.500000 -0.475999 0.000000
vt -0.000000 -0.475999 0.000000
vt 2.500000 -0.951998 0.000000
vt -0.000000 -0.951998 0.000000
vt 2.500000 -1.427997 0.000000
vt -0.000000 -1.427997 0.000000
vt 2.500000 -1.903996 0.000000
vt -0.000000 -1.903996 0.000000
vt 2.500000 -2.379994 0.000000
vt -0.000000 -2.379994 0.000000
vt 2.500000 -2.855993 0.000000
vt -0.000000 -2.855993 0.000000
vt 2.500000 -3.331992 0.000000
vt -0.000000 -3.331992 0.000000
vt 2.500000 -3.807991 0.000000
vt -0.000000 -3.807991 0.000000
vt 2.500000 -4.283990 0.000000
vt -0.000000 -4.283990 0.000000
vt 2.500000 -4.759989 0.000000
vt -0.000000 -4.759989 0.000000
vt 2.500000 -5.235988 0.000000
vt -0.000000 -5.235988 0.000000
vt 2.500000 -5.711987 0.000000
vt -0.000000 -5.711987 0.000000
vt 2.500000 -6.187986 0.000000
vt -0.000000 -6.187986 0.000000
vt 2.500000 -6.663984 0.000000
vt -0.000000 -6.663984 0.000000
vt 2.500000 -7.139983 0.000000
vt -0.000000 -7.139983 0.000000
vt 2.500000 -7.615982 0.000000
vt -0.000000 -7.615982 0.000000
vt 2.500000 -8.091981 0.000000
vt -0.000000 -8.091981 0.000000
vt 2.500000 -8.567980 0.000000
vt 0.000000 -8.567980 0.000000
vt 2.500000 -9.043979 0.000000
vt -0.000000 -9.043979 0.000000
vt 2.500000 -9.519978 0.000000
vt -0.000000 -9.519978 0.000000
vt 2.500000 -9.995977 0.000000
vt -0.000000 -9.995977 0.000000
vt 2.500000 -10.471976 0.000000
vt -0.000000 -10.471976 0.000000
vt 2.500000 -10.947974 0.000000
vt -0.000000 -10.947974 0.000000
vt 2.500000 -11.423973 0.000000
vt -0.000000 -11.423973 0.000000
vt 2.500000 -11.899972 0.000000
vt -0.000000 -11.899972 0.000000
vt 2.500000 -12.375971 0.000000
vt -0.000000 -12.375971 0.000000
vt 2.500000 -12.851970 0.000000
vt -0.000000 -12.851970 0.000000
vt 2.500000 -13.327969 0.000000
vt -0.000000 -13.327969 0.000000
vt 2.500000 -13.803968 0.000000
vt -0.000000 -13.803968 0.000000
vt 2.500000 -14.279967 0.000000
vt -0.000000 -14.279967 0.000000
vt 2.500000 -14.755965 0.000000
vt -0.000000 -14.755965 0.000000
vt 4.977360 0.475280 0.000000
vt -4.977360 0.475280 0.000000
vt 5.000000 -0.000000 0.000000
vt -5.000000 0.000000 0.000000
vt 4.977360 -0.475280 0.000000
vt -4.977360 -0.475280 0.000000
vt 4.909643 -0.946256 0.000000
vt -4.909643 -0.946256 0.000000
vt 4.797465 -1.408663 0.000000
vt -4.797465 -1.408663 0.000000
vt 4.641840 -1.858312 0.000000
vt -4.641840 -1.858312 0.000000
vt 4.444177 -2.291133 0.000000
vt -4.444177 -2.291133 0.000000
vt 4.206268 -2.703204 0.000000
vt -4.206268 -2.703204 0.000000
vt 3.930265 -3.090795 0.000000
vt -3.930265 -3.090795 0.000000
vt 3.618670 -3.450395 0.000000
vt -3.618670 -3.450395 0.000000
vt 3.274304 -3.778748 0.000000
vt -3.274304 -3.778748 0.000000
vt 2.900285 -4.072880 0.000000
vt -2.900285 -4.072880 0.000000
vt 2.500000 -4.330127 0.000000
vt -2.500000 -4.330127 0.000000
vt 2.077075 -4.548160 0.000000
vt -2.077075 -4.548160 0.000000
vt 1.635340 -4.725004 0.000000
vt -1.635340 -4.725004 0.000000
vt 1.178795 -4.859058 0.000000
vt -1.178795 -4.859058 0.000000
vt 0.711574 -4.949107 0.000000
vt -0.711574 -4.949107 0.000000
vt 0.237910 -4.994337 0.000000
vt -0.237910 -4.994337 0.000000
vt -4.909643 0.946256 0.000000
vt 4.909643 0.946256 0.000000
vt -4.797465 1.408663 0.000000
vt 4.797465 1.408663 0.000000
vt -4.641840 1.858312 0.000000
vt 4.641840 1.858312 0.000000
vt -4.444177 2.291133 0.000000
vt 4.444177 2.291133 0.000000
vt -4.206268 2.703204 0.000000
vt 4.206268 2.703204 0.000000
vt -3.930265 3.090795 0.000000
vt 3.930265 3.090795 0.000000
vt -3.618670 3.450395 0.000000
vt 3.618670 3.450395 0.000000
vt -3.274304 3.778748 0.000000
vt 3.274304 3.778748 0.000000
vt -2.900285 4.072880 0.000000
vt 2.900285 4.072880 0.000000
vt -2.500000 4.330127 0.000000
vt 2.500000 4.330127 0.000000
vt -2.077075 4.548160 0.000000
vt 2.077075 4.548160 0.000000
vt -1.635340 4.725004 0.000000
vt 1.635340 4.725004 0.000000
vt -1.178795 4.859058 0.000000
vt 1.178795 4.859058 0.000000
vt -0.711574 4.949107 0.000000
vt 0.711574 4.949107 0.000000
vt -0.237910 4.994337 0.000000
vt 0.237910 4.994337 0.000000
vt -4.977360 -0.475280 0.000000
vt 4.977360 -0.475280 0.000000
vt -5.000000 -0.000000 0.000000
vt 5.000000 0.000000 0.000000
vt -4.977360 0.475280 0.000000
vt 4.977360 0.475280 0.000000
vt -4.909643 0.946256 0.000000
vt 4.909643 0.946256 0.000000
vt -4.797465 1.408663 0.000000
vt 4.797465 1.408663 0.000000
vt -4.641840 1.858312 0.000000
vt 4.641840 1.858312 0.000000
vt -4.444177 2.291133 0.000000
vt 4.444177 2.291133 0.000000
vt -4.206268 2.703204 0.000000
vt 4.206268 2.703204 0.000000
vt -3.930265 3.090795 0.000000
vt 3.930265 3.090795 0.000000
vt -3.618670 3.450395 0.000000
vt 3.618670 3.450395 0.000000
vt -3.274304 3.778748 0.000000
vt 3.274304 3.778748 0.000000
vt -2.900285 4.072880 0.000000
vt 2.900285 4.072880 0.000000
vt -2.500000 4.330127 0.000000
vt 2.500000 4.330127 0.000000
vt -2.077075 4.548160 0.000000
vt 2.077075 4.548160 0.000000
vt -1.635340 4.725004 0.000000
vt 1.635340 4.725004 0.000000
vt -1.178795 4.859058 0.000000
vt 1.178795 4.859058 0.000000
vt -0.711574 4.949107 0.000000
vt 0.711574 4.949107 0.000000
vt -0.237910 4.994337 0.000000
vt 0.237910 4.994337 0.000000
vt 4.909643 -0.946256 0.000000
vt -4.909643 -0.946256 0.000000
vt 4.797465 -1.408663 0.000000
vt -4.797465 -1.408663 0.000000
vt 4.641840 -1.858312 0.000000
vt -4.641840 -1.858312 0.000000
vt 4.444177 -2.291133 0.000000
vt -4.444177 -2.291133 0.000000
vt 4.206268 -2.703204 0.000000
vt -4.206268 -2.703204 0.000000
vt 3.930265 -3.090795 0.000000
vt -3.930265 -3.090795 0.000000
vt 3.618670 -3.450395 0.000000
vt -3.618670 -3.450395 0.000000
vt 3.274304 -3.778748 0.000000
vt -3.274304 -3.778748 0.000000
vt 2.900285 -4.072880 0.000000
vt -2.900285 -4.072880 0.000000
vt 2.500000 -4.330127 0.000000
vt -2.500000 -4.330127 0.000000
vt 2.077075 -4.548160 0.000000
vt -2.077075 -4.548160 0.000000
vt 1.635340 -4.725004 0.000000
vt -1.635340 -4.725004 0.000000
vt 1.178795 -4.859058 0.000000
vt -1.178795 -4.859058 0.000000
vt 0.711574 -4.949107 0.000000
vt -0.711574 -4.949107 0.000000
vt 0.237910 -4.994337 0.000000
vt -0.237910 -4.994337 0.000000
vn -0.823677 -0.000000 0.567060
vn -0.823677 -0.000000 0.567060
vn -0.766044 -0.000000 0.642788
vn -0.766044 -0.000000 0.642788
vn -0.701475 -0.000000 0.712694
vn -0.701475 -0.000000 0.712694
vn -0.630553 -0.000000 0.776146
vn -0.630553 -0.000000 0.776146
vn -0.553920 -0.000000 0.832570
vn -0.553920 -0.000000 0.832570
vn -0.472271 -0.000000 0.881453
vn -0.472271 -0.000000 0.881453
vn -0.386345 -0.000000 0.922354
vn -0.386345 -0.000000 0.922354
vn -0.296920 -0.000000 0.954902
vn -0.296920 -0.000000 0.954902
vn -0.204807 -0.000000 0.978802
vn -0.204807 -0.000000 0.978802
vn -0.110838 -0.000000 0.993838
vn -0.110838 -0.000000 0.993838
vn -0.015866 -0.000000 0.999874
vn -0.015866 -0.000000 0.999874
vn 0.079250 -0.000000 0.996855
vn 0.079250 -0.000000 0.996855
vn 0.173648 -0.000000 0.984808
vn 0.173648 -0.000000 0.984808
vn 0.266474 -0.000000 0.963842
vn 0.266474 -0.000000 0.963842
vn 0.356886 -0.000000 0.934148
vn 0.356886 -0.000000 0.934148
vn 0.444067 -0.000000 0.895994
vn 0.444067 -0.000000 0.895994
vn 0.527225 -0.000000 0.849725
vn 0.527225 -0.000000 0.849725
vn 0.605610 -0.000000 0.795762
vn 0.605610 -0.000000 0.795762
vn 0.678509 -0.000000 0.734592
vn 0.678509 -0.000000 0.734592
vn 0.745264 -0.000000 0.666769
vn 0.745264 -0.000000 0.666769
vn 0.805270 -0.000000 0.592908
vn 0.805270 -0.000000 0.592908
vn 0.857983 -0.000000 0.513677
vn 0.857983 -0.000000 0.513677
vn 0.902927 -0.000000 0.429795
vn 0.902927 -0.000000 0.429795
vn 0.939693 -0.000000 0.342020
vn 0.939693 -0.000000 0.342020
vn 0.967949 -0.000000 0.251148
vn 0.967949 -0.000000 0.251148
vn 0.987439 -0.000000 0.158001
vn 0.987439 -0.000000 0.158001
vn 0.997987 -0.000000 0.063424
vn 0.997987 -0.000000 0.063424
vn 0.999497 -0.000000 -0.031728
vn 0.999497 -0.000000 -0.031728
vn 0.991955 -0.000000 -0.126592
vn 0.991955 -0.000000 -0.126592
vn 0.975430 -0.000000 -0.220311
vn 0.975430 -0.000000 -0.220311
vn 0.950071 -0.000000 -0.312033
vn 0.950071 -0.000000 -0.312033
vn 0.916108 -0.000000 -0.400931
vn 0.916108 -0.000000 -0.400931
vn 0.873849 -0.000000 -0.486197
vn 0.873849 -0.000000 -0.486197
vn 0.823677 -0.000000 -0.567060
vn 0.823677 -0.000000 -0.567060
vn 0.766044 -0.000000 -0.642788
vn 0.766044 -0.000000 -0.642788
vn 0.701475 -0.000000 -0.712694
vn 0.701475 -0.000000 -0.712694
vn 0.630553 -0.000000 -0.776146
vn 0.630553 -0.000000 -0.776146
vn 0.553920 -0.000000 -0.832570
vn 0.553920 -0.000000 -0.832570
vn 0.472271 -0.000000 -0.881453
vn 0.472271 -0.000000 -0.881453
vn 0.386345 -0.000000 -0.922354
vn 0.386345 -0.000000 -0.922354
vn 0.296920 -0.000000 -0.954902
vn 0.296920 -0.000000 -0.954902
vn 0.204807 -0.000000 -0.978802
vn 0.204807 -0.000000 -0.978802
vn 0.110838 -0.000000 -0.993838
vn 0.110838 -0.000000 -0.993838
vn 0.015866 -0.000000 -0.999874
vn 0.015866 -0.000000 -0.999874
vn -0.079250 -0.000000 -0.996855
vn -0.079250 -0.000000 -0.996855
vn -0.173648 -0.000000 -0.984808
vn -0.173648 -0.000000 -0.984808
vn -0.266474 -0.000000 -0.963842
vn -0.266474 -0.000000 -0.963842
vn -0.356886 -0.000000 -0.934148
vn -0.356886 -0.000000 -0.934148
vn -0.444067 -0.000000 -0.895994
vn -0.444067 -0.000000 -0.895994
vn -0.527225 -0.000000 -0.849725
vn -0.527225 -0.000000 -0.849725
vn -0.605610 -0.000000 -0.795762
vn -0.605610 -0.000000 -0.795762
vn -0.678509 -0.000000 -0.734592
vn -0.678509 -0.000000 -0.734592
vn -0.745264 -0.000000 -0.666769
vn -0.745264 -0.000000 -0.666769
vn -0.805270 -0.000000 -0.592908
vn -0.805270 -0.000000 -0.592908
vn -0.857983 -0.000000 -0.513677
vn -0.857983 -0.000000 -0.513677
vn -0.902927 -0.000000 -0.429795
vn -0.902927 -0.000000 -0.429795
vn -0.939693 -0.000000 -0.342020
vn -0.939693 -0.000000 -0.342020
vn -0.967949 -0.000000 -0.251148
vn -0.967949 -0.000000 -0.251148
vn -0.987439 -0.000000 -0.158001
vn -0.987439 -0.000000 -0.158001
vn -0.997987 -0.000000 -0.063424
vn -0.997987 -0.000000 -0.063424
vn -0.999497 -0.000000 0.031728
vn -0.999497 -0.000000 0.031728
vn -0.991955 -0.000000 0.126592
vn -0.991955 -0.000000 0.126592
vn -0.975430 -0.000000 0.220311
vn -0.975430 -0.000000 0.220311
vn -0.950071 -0.000000 0.312033
vn -0.950071 -0.000000 0.312033
vn -0.916108 -0.000000 0.400931
vn -0.916108 -0.000000 0.400931
vn -0.873849 -0.000000 0.486197
vn -0.873849 -0.000000 0.486197
vn 0.000000 1.000000 0.000000
vn 0.000000 1.000000 0.000000
vn 0.000000 1.000000 0.000000
vn 0.000000 1.000000 0.000000
vn 0.000000 1.000000 0.000000
vn 0.000000 1.000000 0.000000
vn 0.000000 1.000000 0.000000
vn 0.000000 1.000000 0.000000
vn 0.000000 1.000000 0.000000
vn 0.000000 1.000000 0.000000
vn 0.000000 1.000000 0.000000
vn 0.000000 1.000000 0.000000
vn 0.000000 1.000000 0.000000
vn 0.000000 1.000000 0.000000
vn 0.000000 1.000000 0.000000
vn 0.000000 1.000000 0.000000
vn 0.000000 1.000000 0.000000
vn 0.000000 1.000000 0.000000
vn 0.000000 1.000000 0.000000
vn 0.000000 1.000000 0.000000
vn 0.000000 1.000000 0.000000
vn 0.000000 1.000000 0.000000
vn 0.000000 1.000000 0.000000
vn 0.000000 1.000000 0.000000
vn 0.000000 1.000000 0.000000
vn 0.000000 1.000000 0.000000
vn 0.000000 1.000000 0.000000
vn 0.000000 1.000000 0.000000
vn 0.000000 1.000000 0.000000
vn 0.000000 1.000000 0.000000
vn 0.000000 1.000000 0.000000
vn 0.000000 1.000000 0.000000
vn 0.000000 1.000000 0.000000
vn 0.000000 1.000000 0.000000
vn 0.000000 1.000000 0.000000
vn 0.000000 1.000000 0.000000
vn 0.000000 1.000000 0.000000
vn 0.000000 1.000000 0.000000
vn 0.000000 1.000000 0.000000
vn 0.000000 1.000000 0.000000
vn 0.000000 1.000000 0.000000
vn 0.000000 1.000000 0.000000
vn 0.000000 1.000000 0.000000
vn 0.000000 1.000000 0.000000
vn 0.000000 1.000000 0.000000
vn 0.000000 1.000000 0.000000
vn 0.000000 1.000000 0.000000
vn 0.000000 1.000000 0.000000
vn 0.000000 1.000000 0.000000
vn 0.000000 1.000000 0.000000
vn 0.000000 1.000000 0.000000
vn 0.000000 1.000000 0.000000
vn 0.000000 1.000000 0.000000
vn 0.000000 1.000000 0.000000
vn 0.000000 1.000000 0.000000
vn 0.000000 1.000000 0.000000
vn 0.000000 1.000000 0.000000
vn 0.000000 1.000000 0.000000
vn 0.000000 1.000000 0.000000
vn 0.000000 1.000000 0.000000
vn 0.000000 1.000000 0.000000
vn 0.000000 1.000000 0.000000
vn 0.000000 1.000000 0.000000
vn 0.000000 1.000000 0.000000
vn 0.000000 1.000000 0.000000
vn 0.000000 1.000000 0.000000
vn -0.000000 -1.000000 -0.000000
vn -0.000000 -1.000000 -0.000000
vn -0.000000 -1.000000 -0.000000
vn -0.000000 -1.000000 -0.000000
vn -0.000000 -1.000000 -0.000000
vn -0.000000 -1.000000 -0.000000
vn -0.000000 -1.000000 -0.000000
vn -0.000000 -1.000000 -0.000000
vn -0.000000 -1.000000 -0.000000
vn -0.000000 -1.000000 -0.000000
vn -0.000000 -1.000000 -0.000000
vn -0.000000 -1.000000 -0.000000
vn -0.000000 -1.000000 -0.000000
vn -0.000000 -1.000000 -0.000000
vn -0.000000 -1.000000 -0.000000
vn -0.000000 -1.000000 -0.000000
vn -0.000000 -1.000000 -0.000000
vn -0.000000 -1.000000 -0.000000
vn -0.000000 -1.000000 -0.000000
vn -0.000000 -1.000000 -0.000000
vn -0.000000 -1.000000 -0.000000
vn -0.000000 -1.000000 -0.000000
vn -0.000000 -1.000000 -0.000000
vn -0.000000 -1.000000 -0.000000
vn -0.000000 -1.000000 -0.000000
vn -0.000000 -1.000000 -0.000000
vn -0.000000 -1.000000 -0.000000
vn -0.000000 -1.000000 -0.000000
vn -0.000000 -1.000000 -0.000000
vn -0.000000 -1.000000 -0.000000
vn -0.000000 -1.000000 -0.000000
vn -0.000000 -1.000000 -0.000000
vn -0.000000 -1.000000 -0.000000
vn -0.000000 -1.000000 -0.000000
vn -0.000000 -1.000000 -0.000000
vn -0.000000 -1.000000 -0.000000
vn -0.000000 -1.000000 -0.000000
vn -0.000000 -1.000000 -0.000000
vn -0.000000 -1.000000 -0.000000
vn -0.000000 -1.000000 -0.000000
vn -0.000000 -1.000000 -0.000000
vn -0.000000 -1.000000 -0.000000
vn -0.000000 -1.000000 -0.000000
vn -0.000000 -1.000000 -0.000000
vn -0.000000 -1.000000 -0.000000
vn -0.000000 -1.000000 -0.000000
vn -0.000000 -1.000000 -0.000000
vn -0.000000 -1.000000 -0.000000
vn -0.000000 -1.000000 -0.000000
vn -0.000000 -1.000000 -0.000000
vn -0.000000 -1.000000 -0.000000
vn -0.000000 -1.000000 -0.000000
vn -0.000000 -1.000000 -0.000000
vn -0.000000 -1.000000 -0.000000
vn -0.000000 -1.000000 -0.000000
vn -0.000000 -1.000000 -0.000000
vn -0.000000 -1.000000 -0.000000
vn -0.000000 -1.000000 -0.000000
vn -0.000000 -1.000000 -0.000000
vn -0.000000 -1.000000 -0.000000
vn -0.000000 -1.000000 -0.000000
vn -0.000000 -1.000000 -0.000000
vn -0.000000 -1.000000 -0.000000
vn -0.000000 -1.000000 -0.000000
vn -0.000000 -1.000000 -0.000000
vn -0.000000 -1.000000 -0.000000
usemtl Rubber_-_Weathered
f 2/1/1 132/2/2 1/3/3
f 1/3/3 132/2/2 67/4/4
f 1/5/3 67/6/4 66/7/5
f 66/7/5 67/6/4 68/8/6
f 66/7/5 68/8/6 65/9/7
f 65/9/7 68/8/6 69/10/8
f 65/9/7 69/10/8 64/11/9
f 64/11/9 69/10/8 70/12/10
f 64/11/9 70/12/10 63/13/11
f 63/13/11 70/12/10 71/14/12
f 63/13/11 71/14/12 62/15/13
f 62/15/13 71/14/12 72/16/14
f 62/15/13 72/16/14 61/17/15
f 61/17/15 72/16/14 73/18/16
f 61/17/15 73/18/16 60/19/17
f 60/19/17 73/18/16 74/20/18
f 60/19/17 74/20/18 59/21/19
f 59/21/19 74/20/18 75/22/20
f 59/21/19 75/22/20 58/23/21
f 58/23/21 75/22/20 76/24/22
f 58/23/21 76/24/22 57/25/23
f 57/25/23 76/24/22 77/26/24
f 57/25/23 77/26/24 56/27/25
f 56/27/25 77/26/24 78/28/26
f 56/27/25 78/28/26 55/29/27
f 55/29/27 78/28/26 79/30/28
f 55/29/27 79/30/28 54/31/29
f 54/31/29 79/30/28 80/32/30
f 54/31/29 80/32/30 53/33/31
f 53/33/31 80/32/30 81/34/32
f 53/33/31 81/34/32 52/35/33
f 52/35/33 81/34/32 82/36/34
f 52/35/33 82/36/34 51/37/35
f 51/37/35 82/36/34 83/38/36
f 51/37/35 83/38/36 50/39/37
f 50/39/37 83/38/36 84/40/38
f 50/39/37 84/40/38 49/41/39
f 49/41/39 84/40/38 85/42/40
f 49/41/39 85/42/40 48/43/41
f 48/43/41 85/42/40 86/44/42
f 48/43/41 86/44/42 47/45/43
f 47/45/43 86/44/42 87/46/44
f 47/45/43 87/46/44 46/47/45
f 46/47/45 87/46/44 88/48/46
f 46/47/45 88/48/46 45/49/47
f 45/49/47 88/48/46 89/50/48
f 45/49/47 89/50/48 44/51/49
f 44/51/49 89/50/48 90/52/50
f 44/51/49 90/52/50 43/53/51
f 43/53/51 90/52/50 91/54/52
f 43/53/51 91/54/52 42/55/53
f 42/55/53 91/54/52 92/56/54
f 42/55/53 92/56/54 41/57/55
f 41/57/55 92/56/54 93/58/56
f 41/57/55 93/58/56 40/59/57
f 40/59/57 93/58/56 94/60/58
f 40/59/57 94/60/58 39/61/59
f 39/61/59 94/60/58 95/62/60
f 39/61/59 95/62/60 38/63/61
f 38/63/61 95/62/60 96/64/62
f 38/63/61 96/64/62 37/65/63
f 37/65/63 96/64/62 97/66/64
f 37/65/63 97/66/64 36/67/65
f 36/67/65 97/66/64 98/68/66
f 36/67/65 98/68/66 35/69/67
f 35/69/67 98/68/66 99/70/68
f 35/69/67 99/70/68 34/71/69
f 34/71/69 99/70/68 100/72/70
f 34/71/69 100/72/70 33/73/71
f 33/73/71 100/72/70 101/74/72
f 33/73/71 101/74/72 32/75/73
f 32/75/73 101/74/72 102/76/74
f 32/75/73 102/76/74 31/77/75
f 31/77/75 102/76/74 103/78/76
f 31/77/75 103/78/76 30/79/77
f 30/79/77 103/78/76 104/80/78
f 30/79/77 104/80/78 29/81/79
f 29/81/79 104/80/78 105/82/80
f 29/81/79 105/82/80 28/83/81
f 28/83/81 105/82/80 106/84/82
f 28/83/81 106/84/82 27/85/83
f 27/85/83 106/84/82 107/86/84
f 27/85/83 107/86/84 26/87/85
f 26/87/85 107/86/84 108/88/86
f 26/87/85 108/88/86 25/89/87
f 25/89/87 108/88/86 109/90/88
f 25/89/87 109/90/88 24/91/89
f 24/91/89 109/90/88 110/92/90
f 24/91/89 110/92/90 23/93/91
f 23/93/91 110/92/90 111/94/92
f 23/93/91 111/94/92 22/95/93
f 22/95/93 111/94/92 112/96/94
f 22/95/93 112/96/94 21/97/95
f 21/97/95 112/96/94 113/98/96
f 21/97/95 113/98/96 20/99/97
f 20/99/97 113/98/96 114/100/98
f 20/99/97 114/100/98 19/101/99
f 19/101/99 114/100/98 115/102/100
f 19/101/99 115/102/100 18/103/101
f 18/103/101 115/102/100 116/104/102
f 18/103/101 116/104/102 17/105/103
f 17/105/103 116/104/102 117/106/104
f 17/105/103 117/106/104 16/107/105
f 16/107/105 117/106/104 118/108/106
f 16/107/105 118/108/106 15/109/107
f 15/109/107 118/108/106 119/110/108
f 15/109/107 119/110/108 14/111/109
f 14/111/109 119/110/108 120/112/110
f 14/111/109 120/112/110 13/113/111
f 13/113/111 120/112/110 121/114/112
f 13/113/111 121/114/112 12/115/113
f 12/115/113 121/114/112 122/116/114
f 12/115/113 122/116/114 11/117/115
f 11/117/115 122/116/114 123/118/116
f 11/117/115 123/118/116 10/119/117
f 10/119/117 123/118/116 124/120/118
f 10/119/117 124/120/118 9/121/119
f 9/121/119 124/120/118 125/122/120
f 9/121/119 125/122/120 8/123/121
f 8/123/121 125/122/120 126/124/122
f 8/123/121 126/124/122 7/125/123
f 7/125/123 126/124/122 127/126/124
f 7/125/123 127/126/124 6/127/125
f 6/127/125 127/126/124 128/128/126
f 6/127/125 128/128/126 5/129/127
f 5/129/127 128/128/126 129/130/128
f 5/129/127 129/130/128 4/131/129
f 4/131/129 129/130/128 130/132/130
f 4/131/129 130/132/130 3/133/131
f 3/133/131 130/132/130 131/134/132
f 3/133/131 131/134/132 2/1/1
f 2/1/1 131/134/132 132/2/2
f 66/135/133 35/136/134 1/137/135
f 1/137/135 35/136/134 34/138/136
f 1/137/135 34/138/136 2/139/137
f 2/139/137 34/138/136 33/140/138
f 2/139/137 33/140/138 3/141/139
f 3/141/139 33/140/138 32/142/140
f 3/141/139 32/142/140 4/143/141
f 4/143/141 32/142/140 31/144/142
f 4/143/141 31/144/142 5/145/143
f 5/145/143 31/144/142 30/146/144
f 5/145/143 30/146/144 6/147/145
f 6/147/145 30/146/144 29/148/146
f 6/147/145 29/148/146 7/149/147
f 7/149/147 29/148/146 28/150/148
f 7/149/147 28/150/148 8/151/149
f 8/151/149 28/150/148 27/152/150
f 8/151/149 27/152/150 9/153/151
f 9/153/151 27/152/150 26/154/152
f 9/153/151 26/154/152 10/155/153
f 10/155/153 26/154/152 25/156/154
f 10/155/153 25/156/154 11/157/155
f 11/157/155 25/156/154 24/158/156
f 11/157/155 24/158/156 12/159/157
f 12/159/157 24/158/156 23/160/158
f 12/159/157 23/160/158 13/161/159
f 13/161/159 23/160/158 22/162/160
f 13/161/159 22/162/160 14/163/161
f 14/163/161 22/162/160 21/164/162
f 14/163/161 21/164/162 15/165/163
f 15/165/163 21/164/162 20/166/164
f 15/165/163 20/166/164 16/167/165
f 16/167/165 20/166/164 19/168/166
f 16/167/165 19/168/166 17/169/167
f 17/169/167 19/168/166 18/170/168
f 35/136/134 66/135/133 36/171/169
f 36/171/169 66/135/133 65/172/170
f 36/171/169 65/172/170 37/173/171
f 37/173/171 65/172/170 64/174/172
f 37/173/171 64/174/172 38/175/173
f 38/175/173 64/174/172 63/176/174
f 38/175/173 63/176/174 39/177/175
f 39/177/175 63/176/174 62/178/176
f 39/177/175 62/178/176 40/179/177
f 40/179/177 62/178/176 61/180/178
f 40/179/177 61/180/178 41/181/179
f 41/181/179 61/180/178 60/182/180
f 41/181/179 60/182/180 42/183/181
f 42/183/181 60/182/180 59/184/182
f 42/183/181 59/184/182 43/185/183
f 43/185/183 59/184/182 58/186/184
f 43/185/183 58/186/184 44/187/185
f 44/187/185 58/186/184 57/188/186
f 44/187/185 57/188/186 45/189/187
f 45/189/187 57/188/186 56/190/188
f 45/189/187 56/190/188 46/191/189
f 46/191/189 56/190/188 55/192/190
f 46/191/189 55/192/190 47/193/191
f 47/193/191 55/192/190 54/194/192
f 47/193/191 54/194/192 48/195/193
f 48/195/193 54/194/192 53/196/194
f 48/195/193 53/196/194 49/197/195
f 49/197/195 53/196/194 52/198/196
f 49/197/195 52/198/196 50/199/197
f 50/199/197 52/198/196 51/200/198
f 132/201/199 101/202/200 67/203/201
f 67/203/201 101/202/200 100/204/202
f 67/203/201 100/204/202 68/205/203
f 68/205/203 100/204/202 99/206/204
f 68/205/203 99/206/204 69/207/205
f 69/207/205 99/206/204 98/208/206
f 69/207/205 98/208/206 70/209/207
f 70/209/207 98/208/206 97/210/208
f 70/209/207 97/210/208 71/211/209
f 71/211/209 97/210/208 96/212/210
f 71/211/209 96/212/210 72/213/211
f 72/213/211 96/212/210 95/214/212
f 72/213/211 95/214/212 73/215/213
f 73/215/213 95/214/212 94/216/214
f 73/215/213 94/216/214 74/217/215
f 74/217/215 94/216/214 93/218/216
f 74/217/215 93/218/216 75/219/217
f 75/219/217 93/218/216 92/220/218
f 75/219/217 92/220/218 76/221/219
f 76/221/219 92/220/218 91/222/220
f 76/221/219 91/222/220 77/223/221
f 77/223/221 91/222/220 90/224/222
f 77/223/221 90/224/222 78/225/223
f 78/225/223 90/224/222 89/226/224
f 78/225/223 89/226/224 79/227/225
f 79/227/225 89/226/224 88/228/226
f 79/227/225 88/228/226 80/229/227
f 80/229/227 88/228/226 87/230/228
f 80/229/227 87/230/228 81/231/229
f 81/231/229 87/230/228 86/232/230
f 81/231/229 86/232/230 82/233/231
f 82/233/231 86/232/230 85/234/232
f 82/233/231 85/234/232 83/235/233
f 83/235/233 85/234/232 84/236/234
f 101/202/200 132/201/199 102/237/235
f 102/237/235 132/201/199 131/238/236
f 102/237/235 131/238/236 103/239/237
f 103/239/237 131/238/236 130/240/238
f 103/239/237 130/240/238 104/241/239
f 104/241/239 130/240/238 129/242/240
f 104/241/239 129/242/240 105/243/241
f 105/243/241 129/242/240 128/244/242
f 105/243/241 128/244/242 106/245/243
f 106/245/243 128/244/242 127/246/244
f 106/245/243 127/246/244 107/247/245
f 107/247/245 127/246/244 126/248/246
f 107/247/245 126/248/246 108/249/247
f 108/249/247 126/248/246 125/250/248
f 108/249/247 125/250/248 109/251/249
f 109/251/249 125/250/248 124/252/250
f 109/251/249 124/252/250 110/253/251
f 110/253/251 124/252/250 123/254/252
f 110/253/251 123/254/252 111/255/253
f 111/255/253 123/254/252 122/256/254
f 111/255/253 122/256/254 112/257/255
f 112/257/255 122/256/254 121/258/256
f 112/257/255 121/258/256 113/259/257
f 113/259/257 121/258/256 120/260/258
f 113/259/257 120/260/258 114/261/259
f 114/261/259 120/260/258 119/262/260
f 114/261/259 119/262/260 115/263/261
f 115/263/261 119/262/260 118/264/262
f 115/263/261 118/264/262 116/265/263
f 116/265/263 118/264/262 117/266/264
# 132 vertices
# 266 texture params
# 264 normals
# 260 facets

# 1 groups
