# WaveFront *.obj file (generated by Autodesk ATF)

mtllib holder_visual.mtl

g Holder

v 18.698798 14.039744 35.000000
v 19.567038 13.963782 35.000000
v 20.408898 13.738207 35.000000
v 21.198798 13.369871 35.000000
v 21.912736 12.869966 35.000000
v 22.529020 12.253682 35.000000
v 23.028925 11.539744 35.000000
v 23.397261 10.749844 35.000000
v 23.622836 9.907984 35.000000
v 23.698798 9.039744 35.000000
v 23.698798 9.039744 32.500000
v 23.622836 9.907984 32.500000
v 23.397261 10.749844 32.500000
v 23.028925 11.539744 32.500000
v 22.529020 12.253682 32.500000
v 21.912736 12.869966 32.500000
v 21.198798 13.369871 32.500000
v 20.408898 13.738207 32.500000
v 19.567038 13.963782 32.500000
v 18.698798 14.039744 32.500000
v -18.698798 14.039744 32.500000
v -18.698798 14.039744 35.000000
v 23.698798 -9.039744 32.500000
v 23.622836 -9.907984 32.500000
v 23.397261 -10.749844 32.500000
v 23.028925 -11.539744 32.500000
v 22.529020 -12.253682 32.500000
v 21.912736 -12.869966 32.500000
v 21.198798 -13.369871 32.500000
v 20.408898 -13.738207 32.500000
v 19.567038 -13.963782 32.500000
v 18.698798 -14.039744 32.500000
v -18.698798 -14.039744 32.500000
v -19.567038 -13.963782 32.500000
v -20.408898 -13.738207 32.500000
v -21.198798 -13.369871 32.500000
v -21.912736 -12.869966 32.500000
v -22.529020 -12.253682 32.500000
v -23.028925 -11.539744 32.500000
v -23.397261 -10.749844 32.500000
v -23.622836 -9.907984 32.500000
v -23.698798 -9.039744 32.500000
v -23.698798 9.039744 32.500000
v -23.622836 9.907984 32.500000
v -23.397261 10.749844 32.500000
v -23.028925 11.539744 32.500000
v -22.529020 12.253682 32.500000
v -21.912736 12.869966 32.500000
v -21.198798 13.369871 32.500000
v -20.408898 13.738207 32.500000
v -19.567038 13.963782 32.500000
v 23.698798 -9.039744 35.000000
v 23.622836 -9.907984 35.000000
v 23.397261 -10.749844 35.000000
v 23.028925 -11.539744 35.000000
v 22.529020 -12.253682 35.000000
v 21.912736 -12.869966 35.000000
v 21.198798 -13.369871 35.000000
v 20.408898 -13.738207 35.000000
v 19.567038 -13.963782 35.000000
v 18.698798 -14.039744 35.000000
v -18.698798 -14.039744 35.000000
v -19.567038 -13.963782 35.000000
v -20.408898 -13.738207 35.000000
v -21.198798 -13.369871 35.000000
v -21.912736 -12.869966 35.000000
v -22.529020 -12.253682 35.000000
v -23.028925 -11.539744 35.000000
v -23.397261 -10.749844 35.000000
v -23.622836 -9.907984 35.000000
v -23.698798 -9.039744 35.000000
v -23.698798 9.039744 35.000000
v -23.622836 9.907984 35.000000
v -23.397261 10.749844 35.000000
v -23.028925 11.539744 35.000000
v -22.529020 12.253682 35.000000
v -21.912736 12.869966 35.000000
v -21.198798 13.369871 35.000000
v -20.408898 13.738207 35.000000
v -19.567038 13.963782 35.000000
vt -0.000000 3.926991 0.000000
vt -2.500000 3.926991 0.000000
vt -0.000000 3.054326 0.000000
vt -2.500000 3.054326 0.000000
vt -0.000000 2.181662 0.000000
vt -2.500000 2.181662 0.000000
vt -0.000000 1.308997 0.000000
vt -2.500000 1.308997 0.000000
vt -0.000000 0.436332 0.000000
vt -2.500000 0.436332 0.000000
vt -0.000000 -0.436332 0.000000
vt -2.500000 -0.436332 0.000000
vt -0.000000 -1.308997 0.000000
vt -2.500000 -1.308997 0.000000
vt -0.000000 -2.181662 0.000000
vt -2.500000 -2.181662 0.000000
vt -0.000000 -3.054326 0.000000
vt -2.500000 -3.054326 0.000000
vt -0.000000 -3.926991 0.000000
vt -2.500000 -3.926991 0.000000
vt 5.000000 0.000000 0.000000
vt 42.397595 0.000000 0.000000
vt 5.000000 2.500000 0.000000
vt 42.397595 2.500000 0.000000
vt 19.567038 -13.963782 0.000000
vt 20.408898 -13.738207 0.000000
vt 18.698798 -14.039744 0.000000
vt 21.198798 -13.369871 0.000000
vt 21.912736 -12.869966 0.000000
vt 22.529020 -12.253682 0.000000
vt 23.028925 -11.539744 0.000000
vt 23.397261 -10.749844 0.000000
vt 23.622836 -9.907984 0.000000
vt 23.698798 -9.039744 0.000000
vt -23.698798 -9.039744 0.000000
vt -23.698798 9.039744 0.000000
vt 23.698798 9.039744 0.000000
vt -18.698798 14.039744 0.000000
vt 18.698798 14.039744 0.000000
vt 23.622836 9.907984 0.000000
vt 23.397261 10.749844 0.000000
vt 23.028925 11.539744 0.000000
vt 22.529020 12.253682 0.000000
vt 21.912736 12.869966 0.000000
vt 21.198798 13.369871 0.000000
vt 20.408898 13.738207 0.000000
vt 19.567038 13.963782 0.000000
vt -19.567038 13.963782 0.000000
vt -20.408898 13.738207 0.000000
vt -21.198798 13.369871 0.000000
vt -21.912736 12.869966 0.000000
vt -22.529020 12.253682 0.000000
vt -23.028925 11.539744 0.000000
vt -23.397261 10.749844 0.000000
vt -23.622836 9.907984 0.000000
vt -18.698798 -14.039744 0.000000
vt -23.622836 -9.907984 0.000000
vt -23.397261 -10.749844 0.000000
vt -23.028925 -11.539744 0.000000
vt -22.529020 -12.253682 0.000000
vt -21.912736 -12.869966 0.000000
vt -21.198798 -13.369871 0.000000
vt -20.408898 -13.738207 0.000000
vt -19.567038 -13.963782 0.000000
vt -0.000000 3.926991 0.000000
vt -2.500000 3.926991 0.000000
vt -0.000000 3.054326 0.000000
vt -2.500000 3.054326 0.000000
vt -0.000000 2.181662 0.000000
vt -2.500000 2.181662 0.000000
vt -0.000000 1.308997 0.000000
vt -2.500000 1.308997 0.000000
vt -0.000000 0.436332 0.000000
vt -2.500000 0.436332 0.000000
vt -0.000000 -0.436332 0.000000
vt -2.500000 -0.436332 0.000000
vt -0.000000 -1.308997 0.000000
vt -2.500000 -1.308997 0.000000
vt -0.000000 -2.181662 0.000000
vt -2.500000 -2.181662 0.000000
vt -0.000000 -3.054326 0.000000
vt -2.500000 -3.054326 0.000000
vt -0.000000 -3.926991 0.000000
vt -2.500000 -3.926991 0.000000
vt 42.397595 2.500000 0.000000
vt 5.000000 2.500000 0.000000
vt 42.397595 0.000000 0.000000
vt 5.000000 0.000000 0.000000
vt -0.000000 3.926991 0.000000
vt -2.500000 3.926991 0.000000
vt -0.000000 3.054326 0.000000
vt -2.500000 3.054326 0.000000
vt -0.000000 2.181662 0.000000
vt -2.500000 2.181662 0.000000
vt -0.000000 1.308997 0.000000
vt -2.500000 1.308997 0.000000
vt -0.000000 0.436332 0.000000
vt -2.500000 0.436332 0.000000
vt -0.000000 -0.436332 0.000000
vt -2.500000 -0.436332 0.000000
vt -0.000000 -1.308997 0.000000
vt -2.500000 -1.308997 0.000000
vt -0.000000 -2.181662 0.000000
vt -2.500000 -2.181662 0.000000
vt -0.000000 -3.054326 0.000000
vt -2.500000 -3.054326 0.000000
vt -0.000000 -3.926991 0.000000
vt -2.500000 -3.926991 0.000000
vt -0.000000 3.926991 0.000000
vt -2.500000 3.926991 0.000000
vt -0.000000 3.054326 0.000000
vt -2.500000 3.054326 0.000000
vt -0.000000 2.181662 0.000000
vt -2.500000 2.181662 0.000000
vt -0.000000 1.308997 0.000000
vt -2.500000 1.308997 0.000000
vt -0.000000 0.436332 0.000000
vt -2.500000 0.436332 0.000000
vt -0.000000 -0.436332 0.000000
vt -2.500000 -0.436332 0.000000
vt -0.000000 -1.308997 0.000000
vt -2.500000 -1.308997 0.000000
vt -0.000000 -2.181662 0.000000
vt -2.500000 -2.181662 0.000000
vt -0.000000 -3.054326 0.000000
vt -2.500000 -3.054326 0.000000
vt -0.000000 -3.926991 0.000000
vt -2.500000 -3.926991 0.000000
vt 23.079487 2.500000 0.000000
vt 5.000000 2.500000 0.000000
vt 23.079487 0.000000 0.000000
vt 5.000000 0.000000 0.000000
vt 23.079487 2.500000 0.000000
vt 5.000000 2.500000 0.000000
vt 23.079487 0.000000 0.000000
vt 5.000000 0.000000 0.000000
vt 23.622836 9.907984 0.000000
vt 18.698798 14.039744 0.000000
vt 23.698798 9.039744 0.000000
vt -18.698798 14.039744 0.000000
vt -23.698798 9.039744 0.000000
vt -23.622836 9.907984 0.000000
vt -23.397261 10.749844 0.000000
vt -23.028925 11.539744 0.000000
vt -22.529020 12.253682 0.000000
vt -21.912736 12.869966 0.000000
vt -21.198798 13.369871 0.000000
vt -20.408898 13.738207 0.000000
vt -19.567038 13.963782 0.000000
vt 23.397261 10.749844 0.000000
vt 23.028925 11.539744 0.000000
vt 22.529020 12.253682 0.000000
vt 21.912736 12.869966 0.000000
vt 21.198798 13.369871 0.000000
vt 20.408898 13.738207 0.000000
vt 19.567038 13.963782 0.000000
vt 23.698798 -9.039744 0.000000
vt -23.698798 -9.039744 0.000000
vt 18.698798 -14.039744 0.000000
vt -18.698798 -14.039744 0.000000
vt -23.622836 -9.907984 0.000000
vt -23.397261 -10.749844 0.000000
vt -23.028925 -11.539744 0.000000
vt -22.529020 -12.253682 0.000000
vt -21.912736 -12.869966 0.000000
vt -21.198798 -13.369871 0.000000
vt -20.408898 -13.738207 0.000000
vt -19.567038 -13.963782 0.000000
vt 19.567038 -13.963782 0.000000
vt 20.408898 -13.738207 0.000000
vt 21.198798 -13.369871 0.000000
vt 21.912736 -12.869966 0.000000
vt 22.529020 -12.253682 0.000000
vt 23.028925 -11.539744 0.000000
vt 23.397261 -10.749844 0.000000
vt 23.622836 -9.907984 0.000000
vn -0.000000 1.000000 -0.000000
vn -0.000000 1.000000 -0.000000
vn 0.173648 0.984808 -0.000000
vn 0.173648 0.984808 -0.000000
vn 0.342020 0.939693 -0.000000
vn 0.342020 0.939693 -0.000000
vn 0.500000 0.866025 -0.000000
vn 0.500000 0.866025 -0.000000
vn 0.642788 0.766044 -0.000000
vn 0.642788 0.766044 -0.000000
vn 0.766044 0.642788 -0.000000
vn 0.766044 0.642788 -0.000000
vn 0.866025 0.500000 -0.000000
vn 0.866025 0.500000 -0.000000
vn 0.939693 0.342020 -0.000000
vn 0.939693 0.342020 -0.000000
vn 0.984808 0.173648 -0.000000
vn 0.984808 0.173648 -0.000000
vn 1.000000 -0.000000 -0.000000
vn 1.000000 -0.000000 -0.000000
vn 0.000000 1.000000 0.000000
vn 0.000000 1.000000 0.000000
vn -0.000000 -0.000000 -1.000000
vn -0.000000 -0.000000 -1.000000
vn -0.000000 -0.000000 -1.000000
vn -0.000000 -0.000000 -1.000000
vn -0.000000 -0.000000 -1.000000
vn -0.000000 -0.000000 -1.000000
vn -0.000000 -0.000000 -1.000000
vn -0.000000 -0.000000 -1.000000
vn -0.000000 -0.000000 -1.000000
vn -0.000000 -0.000000 -1.000000
vn -0.000000 -0.000000 -1.000000
vn -0.000000 -0.000000 -1.000000
vn -0.000000 -0.000000 -1.000000
vn -0.000000 -0.000000 -1.000000
vn -0.000000 -0.000000 -1.000000
vn -0.000000 -0.000000 -1.000000
vn -0.000000 -0.000000 -1.000000
vn -0.000000 -0.000000 -1.000000
vn -0.000000 -0.000000 -1.000000
vn -0.000000 -0.000000 -1.000000
vn -0.000000 -0.000000 -1.000000
vn -0.000000 -0.000000 -1.000000
vn -0.000000 -0.000000 -1.000000
vn -0.000000 -0.000000 -1.000000
vn -0.000000 -0.000000 -1.000000
vn -0.000000 -0.000000 -1.000000
vn -0.000000 -0.000000 -1.000000
vn -0.000000 -0.000000 -1.000000
vn -0.000000 -0.000000 -1.000000
vn -0.000000 -0.000000 -1.000000
vn -0.000000 -0.000000 -1.000000
vn -0.000000 -0.000000 -1.000000
vn -0.000000 -0.000000 -1.000000
vn -0.000000 -0.000000 -1.000000
vn -0.000000 -0.000000 -1.000000
vn -0.000000 -0.000000 -1.000000
vn -0.000000 -0.000000 -1.000000
vn -0.000000 -0.000000 -1.000000
vn -0.000000 -0.000000 -1.000000
vn -0.000000 -0.000000 -1.000000
vn 1.000000 -0.000000 -0.000000
vn 1.000000 -0.000000 -0.000000
vn 0.984808 -0.173648 -0.000000
vn 0.984808 -0.173648 -0.000000
vn 0.939693 -0.342020 -0.000000
vn 0.939693 -0.342020 -0.000000
vn 0.866025 -0.500000 -0.000000
vn 0.866025 -0.500000 -0.000000
vn 0.766044 -0.642788 -0.000000
vn 0.766044 -0.642788 -0.000000
vn 0.642788 -0.766044 -0.000000
vn 0.642788 -0.766044 -0.000000
vn 0.500000 -0.866025 -0.000000
vn 0.500000 -0.866025 -0.000000
vn 0.342020 -0.939693 -0.000000
vn 0.342020 -0.939693 -0.000000
vn 0.173648 -0.984808 -0.000000
vn 0.173648 -0.984808 -0.000000
vn -0.000000 -1.000000 -0.000000
vn -0.000000 -1.000000 -0.000000
vn 0.000000 -1.000000 0.000000
vn 0.000000 -1.000000 0.000000
vn -0.173648 -0.984808 0.000000
vn -0.173648 -0.984808 0.000000
vn -0.342020 -0.939693 0.000000
vn -0.342020 -0.939693 0.000000
vn -0.500000 -0.866025 0.000000
vn -0.500000 -0.866025 0.000000
vn -0.642788 -0.766044 0.000000
vn -0.642788 -0.766044 0.000000
vn -0.766044 -0.642788 0.000000
vn -0.766044 -0.642788 0.000000
vn -0.866025 -0.500000 0.000000
vn -0.866025 -0.500000 0.000000
vn -0.939693 -0.342020 0.000000
vn -0.939693 -0.342020 0.000000
vn -0.984808 -0.173648 0.000000
vn -0.984808 -0.173648 0.000000
vn -1.000000 -0.000000 0.000000
vn -1.000000 -0.000000 0.000000
vn -1.000000 -0.000000 0.000000
vn -1.000000 -0.000000 0.000000
vn -0.984808 0.173648 -0.000000
vn -0.984808 0.173648 -0.000000
vn -0.939693 0.342020 -0.000000
vn -0.939693 0.342020 -0.000000
vn -0.866025 0.500000 -0.000000
vn -0.866025 0.500000 -0.000000
vn -0.766044 0.642788 -0.000000
vn -0.766044 0.642788 -0.000000
vn -0.642788 0.766044 -0.000000
vn -0.642788 0.766044 -0.000000
vn -0.500000 0.866025 -0.000000
vn -0.500000 0.866025 -0.000000
vn -0.342020 0.939693 -0.000000
vn -0.342020 0.939693 -0.000000
vn -0.173648 0.984808 -0.000000
vn -0.173648 0.984808 -0.000000
vn 0.000000 0.000000 1.000000
vn 0.000000 0.000000 1.000000
vn 0.000000 0.000000 1.000000
vn 0.000000 0.000000 1.000000
vn 0.000000 0.000000 1.000000
vn 0.000000 0.000000 1.000000
vn 0.000000 0.000000 1.000000
vn 0.000000 0.000000 1.000000
vn 0.000000 0.000000 1.000000
vn 0.000000 0.000000 1.000000
vn 0.000000 0.000000 1.000000
vn 0.000000 0.000000 1.000000
vn 0.000000 0.000000 1.000000
vn 0.000000 0.000000 1.000000
vn 0.000000 0.000000 1.000000
vn 0.000000 0.000000 1.000000
vn 0.000000 0.000000 1.000000
vn 0.000000 0.000000 1.000000
vn 0.000000 0.000000 1.000000
vn 0.000000 0.000000 1.000000
vn 0.000000 0.000000 1.000000
vn 0.000000 0.000000 1.000000
vn 0.000000 0.000000 1.000000
vn 0.000000 0.000000 1.000000
vn 0.000000 0.000000 1.000000
vn 0.000000 0.000000 1.000000
vn 0.000000 0.000000 1.000000
vn 0.000000 0.000000 1.000000
vn 0.000000 0.000000 1.000000
vn 0.000000 0.000000 1.000000
vn 0.000000 0.000000 1.000000
vn 0.000000 0.000000 1.000000
vn 0.000000 0.000000 1.000000
vn 0.000000 0.000000 1.000000
vn 0.000000 0.000000 1.000000
vn 0.000000 0.000000 1.000000
vn 0.000000 0.000000 1.000000
vn 0.000000 0.000000 1.000000
vn 0.000000 0.000000 1.000000
vn 0.000000 0.000000 1.000000
usemtl Mirror
f 20/1/1 1/2/2 19/3/3
f 19/3/3 1/2/2 2/4/4
f 19/3/3 2/4/4 18/5/5
f 18/5/5 2/4/4 3/6/6
f 18/5/5 3/6/6 17/7/7
f 17/7/7 3/6/6 4/8/8
f 17/7/7 4/8/8 16/9/9
f 16/9/9 4/8/8 5/10/10
f 16/9/9 5/10/10 15/11/11
f 15/11/11 5/10/10 6/12/12
f 15/11/11 6/12/12 14/13/13
f 14/13/13 6/12/12 7/14/14
f 14/13/13 7/14/14 13/15/15
f 13/15/15 7/14/14 8/16/16
f 13/15/15 8/16/16 12/17/17
f 12/17/17 8/16/16 9/18/18
f 12/17/17 9/18/18 11/19/19
f 11/19/19 9/18/18 10/20/20
usemtl Paint_-_Enamel_Glossy_(Black)
f 20/21/1 21/22/21 1/23/2
f 1/23/2 21/22/21 22/24/22
usemtl Steel_-_Satin
f 19/25/23 18/26/24 20/27/25
f 20/27/25 18/26/24 17/28/26
f 20/27/25 17/28/26 16/29/27
f 16/29/27 15/30/28 20/27/25
f 20/27/25 15/30/28 14/31/29
f 20/27/25 14/31/29 13/32/30
f 13/32/30 12/33/31 20/27/25
f 20/27/25 12/33/31 11/34/32
f 20/27/25 11/34/32 43/35/33
f 43/35/33 11/34/32 42/36/34
f 42/36/34 11/34/32 23/37/35
f 42/36/34 23/37/35 33/38/36
f 33/38/36 23/37/35 32/39/37
f 32/39/37 23/37/35 24/40/38
f 32/39/37 24/40/38 25/41/39
f 25/41/39 26/42/40 32/39/37
f 32/39/37 26/42/40 27/43/41
f 32/39/37 27/43/41 28/44/42
f 28/44/42 29/45/43 32/39/37
f 32/39/37 29/45/43 30/46/44
f 32/39/37 30/46/44 31/47/45
f 34/48/46 35/49/47 33/38/36
f 33/38/36 35/49/47 36/50/48
f 33/38/36 36/50/48 37/51/49
f 37/51/49 38/52/50 33/38/36
f 33/38/36 38/52/50 39/53/51
f 33/38/36 39/53/51 40/54/52
f 40/54/52 41/55/53 33/38/36
f 33/38/36 41/55/53 42/36/34
f 20/27/25 43/35/33 21/56/54
f 21/56/54 43/35/33 44/57/55
f 21/56/54 44/57/55 45/58/56
f 45/58/56 46/59/57 21/56/54
f 21/56/54 46/59/57 47/60/58
f 21/56/54 47/60/58 48/61/59
f 48/61/59 49/62/60 21/56/54
f 21/56/54 49/62/60 50/63/61
f 21/56/54 50/63/61 51/64/62
usemtl Mirror
f 23/65/63 52/66/64 24/67/65
f 24/67/65 52/66/64 53/68/66
f 24/67/65 53/68/66 25/69/67
f 25/69/67 53/68/66 54/70/68
f 25/69/67 54/70/68 26/71/69
f 26/71/69 54/70/68 55/72/70
f 26/71/69 55/72/70 27/73/71
f 27/73/71 55/72/70 56/74/72
f 27/73/71 56/74/72 28/75/73
f 28/75/73 56/74/72 57/76/74
f 28/75/73 57/76/74 29/77/75
f 29/77/75 57/76/74 58/78/76
f 29/77/75 58/78/76 30/79/77
f 30/79/77 58/78/76 59/80/78
f 30/79/77 59/80/78 31/81/79
f 31/81/79 59/80/78 60/82/80
f 31/81/79 60/82/80 32/83/81
f 32/83/81 60/82/80 61/84/82
usemtl Paint_-_Enamel_Glossy_(Black)
f 61/85/82 62/86/83 32/87/81
f 32/87/81 62/86/83 33/88/84
usemtl Mirror
f 33/89/84 62/90/83 34/91/85
f 34/91/85 62/90/83 63/92/86
f 34/91/85 63/92/86 35/93/87
f 35/93/87 63/92/86 64/94/88
f 35/93/87 64/94/88 36/95/89
f 36/95/89 64/94/88 65/96/90
f 36/95/89 65/96/90 37/97/91
f 37/97/91 65/96/90 66/98/92
f 37/97/91 66/98/92 38/99/93
f 38/99/93 66/98/92 67/100/94
f 38/99/93 67/100/94 39/101/95
f 39/101/95 67/100/94 68/102/96
f 39/101/95 68/102/96 40/103/97
f 40/103/97 68/102/96 69/104/98
f 40/103/97 69/104/98 41/105/99
f 41/105/99 69/104/98 70/106/100
f 41/105/99 70/106/100 42/107/101
f 42/107/101 70/106/100 71/108/102
f 43/109/103 72/110/104 44/111/105
f 44/111/105 72/110/104 73/112/106
f 44/111/105 73/112/106 45/113/107
f 45/113/107 73/112/106 74/114/108
f 45/113/107 74/114/108 46/115/109
f 46/115/109 74/114/108 75/116/110
f 46/115/109 75/116/110 47/117/111
f 47/117/111 75/116/110 76/118/112
f 47/117/111 76/118/112 48/119/113
f 48/119/113 76/118/112 77/120/114
f 48/119/113 77/120/114 49/121/115
f 49/121/115 77/120/114 78/122/116
f 49/121/115 78/122/116 50/123/117
f 50/123/117 78/122/116 79/124/118
f 50/123/117 79/124/118 51/125/119
f 51/125/119 79/124/118 80/126/120
f 51/125/119 80/126/120 21/127/21
f 21/127/21 80/126/120 22/128/22
usemtl Paint_-_Enamel_Glossy_(Black)
f 71/129/102 72/130/104 42/131/101
f 42/131/101 72/130/104 43/132/103
f 10/133/20 52/134/64 11/135/19
f 11/135/19 52/134/64 23/136/63
f 9/137/121 1/138/122 10/139/123
f 10/139/123 1/138/122 22/140/124
f 10/139/123 22/140/124 72/141/125
f 72/141/125 22/140/124 73/142/126
f 73/142/126 22/140/124 74/143/127
f 74/143/127 22/140/124 75/144/128
f 75/144/128 22/140/124 76/145/129
f 76/145/129 22/140/124 77/146/130
f 77/146/130 22/140/124 78/147/131
f 78/147/131 22/140/124 79/148/132
f 79/148/132 22/140/124 80/149/133
f 9/137/121 8/150/134 1/138/122
f 1/138/122 8/150/134 7/151/135
f 1/138/122 7/151/135 6/152/136
f 6/152/136 5/153/137 1/138/122
f 1/138/122 5/153/137 4/154/138
f 1/138/122 4/154/138 3/155/139
f 3/155/139 2/156/140 1/138/122
f 10/139/123 72/141/125 52/157/141
f 52/157/141 72/141/125 71/158/142
f 52/157/141 71/158/142 61/159/143
f 61/159/143 71/158/142 62/160/144
f 62/160/144 71/158/142 70/161/145
f 62/160/144 70/161/145 69/162/146
f 69/162/146 68/163/147 62/160/144
f 62/160/144 68/163/147 67/164/148
f 62/160/144 67/164/148 66/165/149
f 66/165/149 65/166/150 62/160/144
f 62/160/144 65/166/150 64/167/151
f 62/160/144 64/167/151 63/168/152
f 60/169/153 59/170/154 61/159/143
f 61/159/143 59/170/154 58/171/155
f 61/159/143 58/171/155 57/172/156
f 57/172/156 56/173/157 61/159/143
f 61/159/143 56/173/157 55/174/158
f 61/159/143 55/174/158 54/175/159
f 54/175/159 53/176/160 61/159/143
f 61/159/143 53/176/160 52/157/141
# 80 vertices
# 176 texture params
# 160 normals
# 156 facets

# 1 groups
