# WaveFront *.obj file (generated by Autodesk ATF)

mtllib lidar_visual.mtl

g Lidar

v 41.000000 1.780449 11.000000
v 41.000000 0.000000 11.000000
v 41.000000 0.000000 12.000000
v 41.000000 1.780449 12.000000
v 40.889025 -1.776987 11.000000
v 41.039068 -1.780021 11.000000
v 41.188833 -1.770407 11.000000
v 41.337257 -1.748216 11.000000
v 41.483285 -1.713603 11.000000
v 41.625879 -1.666816 11.000000
v 41.764027 -1.608186 11.000000
v 41.896746 -1.538131 11.000000
v 42.023094 -1.457148 11.000000
v 42.142173 -1.365811 11.000000
v 42.253138 -1.264771 11.000000
v 42.355199 -1.154746 11.000000
v 42.447631 -1.036515 11.000000
v 42.529779 -0.910921 11.000000
v 42.601058 -0.778855 11.000000
v 42.660961 -0.641255 11.000000
v 42.709064 -0.499099 11.000000
v 42.745025 -0.353398 11.000000
v 42.768587 -0.205185 11.000000
v 42.779584 -0.055515 11.000000
v 42.777937 0.094550 11.000000
v 42.763659 0.243943 11.000000
v 42.736850 0.391603 11.000000
v 42.697701 0.536480 11.000000
v 42.646491 0.677546 11.000000
v 42.583582 0.813799 11.000000
v 42.509423 0.944269 11.000000
v 42.424539 1.068031 11.000000
v 42.329534 1.184204 11.000000
v 42.225084 1.291964 11.000000
v 42.111929 1.390545 11.000000
v 41.990874 1.479246 11.000000
v 41.862780 1.557438 11.000000
v 41.728555 1.624564 11.000000
v 41.589155 1.680148 11.000000
v 41.445568 1.723795 11.000000
v 41.298816 1.755195 11.000000
v 41.149941 1.774125 11.000000
v 41.149941 1.774125 12.000000
v 41.298816 1.755195 12.000000
v 41.445568 1.723795 12.000000
v 41.589155 1.680148 12.000000
v 41.728555 1.624564 12.000000
v 41.862780 1.557438 12.000000
v 41.990874 1.479246 12.000000
v 42.111929 1.390545 12.000000
v 42.225084 1.291964 12.000000
v 42.329534 1.184204 12.000000
v 42.424539 1.068031 12.000000
v 42.509423 0.944269 12.000000
v 42.583582 0.813799 12.000000
v 42.646491 0.677546 12.000000
v 42.697701 0.536480 12.000000
v 42.736850 0.391603 12.000000
v 42.763659 0.243943 12.000000
v 42.777937 0.094550 12.000000
v 42.779584 -0.055515 12.000000
v 42.768587 -0.205185 12.000000
v 42.745025 -0.353398 12.000000
v 42.709064 -0.499099 12.000000
v 42.660961 -0.641255 12.000000
v 42.601058 -0.778855 12.000000
v 42.529779 -0.910921 12.000000
v 42.447631 -1.036515 12.000000
v 42.355199 -1.154746 12.000000
v 42.253138 -1.264771 12.000000
v 42.142173 -1.365811 12.000000
v 42.023094 -1.457148 12.000000
v 41.896746 -1.538131 12.000000
v 41.764027 -1.608186 12.000000
v 41.625879 -1.666816 12.000000
v 41.483285 -1.713603 12.000000
v 41.337257 -1.748216 12.000000
v 41.188833 -1.770407 12.000000
v 41.039068 -1.780021 12.000000
v 40.889025 -1.776987 12.000000
vt -0.000000 0.000000 0.000000
vt 1.780449 0.000000 0.000000
vt -0.000000 1.000000 0.000000
vt 1.780449 1.000000 0.000000
vt -1.000000 0.000000 0.000000
vt -0.000000 0.000000 0.000000
vt -1.000000 0.150118 0.000000
vt -0.000000 0.150118 0.000000
vt -1.000000 0.300237 0.000000
vt -0.000000 0.300237 0.000000
vt -1.000000 0.450355 0.000000
vt -0.000000 0.450355 0.000000
vt -1.000000 0.600473 0.000000
vt -0.000000 0.600473 0.000000
vt -1.000000 0.750591 0.000000
vt -0.000000 0.750591 0.000000
vt -1.000000 0.900710 0.000000
vt -0.000000 0.900710 0.000000
vt -1.000000 1.050828 0.000000
vt -0.000000 1.050828 0.000000
vt -1.000000 1.200946 0.000000
vt -0.000000 1.200946 0.000000
vt -1.000000 1.351064 0.000000
vt -0.000000 1.351064 0.000000
vt -1.000000 1.501183 0.000000
vt -0.000000 1.501183 0.000000
vt -1.000000 1.651301 0.000000
vt -0.000000 1.651301 0.000000
vt -1.000000 1.801419 0.000000
vt -0.000000 1.801419 0.000000
vt -1.000000 1.951538 0.000000
vt -0.000000 1.951538 0.000000
vt -1.000000 2.101656 0.000000
vt -0.000000 2.101656 0.000000
vt -1.000000 2.251774 0.000000
vt -0.000000 2.251774 0.000000
vt -1.000000 2.401892 0.000000
vt -0.000000 2.401892 0.000000
vt -1.000000 2.552011 0.000000
vt -0.000000 2.552011 0.000000
vt -1.000000 2.702129 0.000000
vt -0.000000 2.702129 0.000000
vt -1.000000 2.852247 0.000000
vt -0.000000 2.852247 0.000000
vt -1.000000 3.002365 0.000000
vt -0.000000 3.002365 0.000000
vt -1.000000 3.152484 0.000000
vt -0.000000 3.152484 0.000000
vt -1.000000 3.302602 0.000000
vt -0.000000 3.302602 0.000000
vt -1.000000 3.452720 0.000000
vt -0.000000 3.452720 0.000000
vt -1.000000 3.602839 0.000000
vt -0.000000 3.602839 0.000000
vt -1.000000 3.752957 0.000000
vt -0.000000 3.752957 0.000000
vt -1.000000 3.903075 0.000000
vt -0.000000 3.903075 0.000000
vt -1.000000 4.053193 0.000000
vt -0.000000 4.053193 0.000000
vt -1.000000 4.203312 0.000000
vt -0.000000 4.203312 0.000000
vt -1.000000 4.353430 0.000000
vt -0.000000 4.353430 0.000000
vt -1.000000 4.503548 0.000000
vt -0.000000 4.503548 0.000000
vt -1.000000 4.653666 0.000000
vt -0.000000 4.653666 0.000000
vt -1.000000 4.803785 0.000000
vt -0.000000 4.803785 0.000000
vt -1.000000 4.953903 0.000000
vt -0.000000 4.953903 0.000000
vt -1.000000 5.104021 0.000000
vt -0.000000 5.104021 0.000000
vt -1.000000 5.254140 0.000000
vt -0.000000 5.254140 0.000000
vt -1.000000 5.404258 0.000000
vt -0.000000 5.404258 0.000000
vt -1.000000 5.554376 0.000000
vt -0.000000 5.554376 0.000000
vt -1.000000 5.704494 0.000000
vt -0.000000 5.704494 0.000000
vt 0.000000 0.000000 0.000000
vt 1.780449 0.000000 0.000000
vt 0.000000 1.000000 0.000000
vt 1.780449 1.000000 0.000000
vt 0.945713 1.776987 0.000000
vt 0.795669 1.780021 0.000000
vt 0.834737 0.000000 0.000000
vt 0.645904 1.770407 0.000000
vt 0.497480 1.748216 0.000000
vt 0.351452 1.713603 0.000000
vt 0.208858 1.666816 0.000000
vt 0.070710 1.608186 0.000000
vt -0.062009 1.538131 0.000000
vt -0.188357 1.457148 0.000000
vt -0.307436 1.365811 0.000000
vt -0.418400 1.264771 0.000000
vt -0.390346 -1.291964 0.000000
vt -0.277192 -1.390545 0.000000
vt -0.156137 -1.479246 0.000000
vt -0.028043 -1.557438 0.000000
vt -0.494797 -1.184204 0.000000
vt -0.520462 1.154746 0.000000
vt -0.589802 -1.068031 0.000000
vt -0.612894 1.036515 0.000000
vt -0.674686 -0.944269 0.000000
vt -0.695042 0.910921 0.000000
vt -0.748845 -0.813799 0.000000
vt -0.766321 0.778855 0.000000
vt -0.811754 -0.677546 0.000000
vt -0.826224 0.641255 0.000000
vt -0.862964 -0.536480 0.000000
vt -0.874327 0.499099 0.000000
vt -0.902113 -0.391603 0.000000
vt -0.910288 0.353398 0.000000
vt -0.928922 -0.243943 0.000000
vt -0.933850 0.205185 0.000000
vt -0.943200 -0.094550 0.000000
vt -0.944847 0.055515 0.000000
vt 0.106182 -1.624564 0.000000
vt 0.245583 -1.680148 0.000000
vt 0.389169 -1.723795 0.000000
vt 0.535921 -1.755195 0.000000
vt 0.684796 -1.774125 0.000000
vt 0.834737 -1.780449 0.000000
vt -0.945713 1.776987 0.000000
vt -0.834737 0.000000 0.000000
vt -0.795669 1.780021 0.000000
vt -0.645904 1.770407 0.000000
vt -0.497480 1.748216 0.000000
vt -0.351452 1.713603 0.000000
vt -0.208858 1.666816 0.000000
vt -0.070710 1.608186 0.000000
vt 0.062009 1.538131 0.000000
vt 0.188357 1.457148 0.000000
vt 0.307436 1.365811 0.000000
vt 0.277192 -1.390545 0.000000
vt 0.390346 -1.291964 0.000000
vt -0.834737 -1.780449 0.000000
vt -0.684796 -1.774125 0.000000
vt -0.535921 -1.755195 0.000000
vt -0.389169 -1.723795 0.000000
vt -0.245583 -1.680148 0.000000
vt -0.106182 -1.624564 0.000000
vt 0.028043 -1.557438 0.000000
vt 0.156137 -1.479246 0.000000
vt 0.418400 1.264771 0.000000
vt 0.494797 -1.184204 0.000000
vt 0.520462 1.154746 0.000000
vt 0.589802 -1.068031 0.000000
vt 0.612894 1.036515 0.000000
vt 0.674686 -0.944269 0.000000
vt 0.695042 0.910921 0.000000
vt 0.748845 -0.813799 0.000000
vt 0.766321 0.778855 0.000000
vt 0.811754 -0.677546 0.000000
vt 0.826224 0.641255 0.000000
vt 0.862964 -0.536480 0.000000
vt 0.874327 0.499099 0.000000
vt 0.902113 -0.391603 0.000000
vt 0.910288 0.353398 0.000000
vt 0.928922 -0.243943 0.000000
vt 0.933850 0.205185 0.000000
vt 0.943200 -0.094550 0.000000
vt 0.944847 0.055515 0.000000
vn -1.000000 0.000000 0.000000
vn -1.000000 0.000000 0.000000
vn -1.000000 0.000000 0.000000
vn -1.000000 0.000000 0.000000
vn -0.062330 -0.998056 0.000000
vn -0.062330 -0.998056 0.000000
vn 0.021943 -0.999759 -0.000000
vn 0.021943 -0.999759 -0.000000
vn 0.106059 -0.994360 -0.000000
vn 0.106059 -0.994360 -0.000000
vn 0.189422 -0.981896 -0.000000
vn 0.189422 -0.981896 -0.000000
vn 0.271440 -0.962455 -0.000000
vn 0.271440 -0.962455 -0.000000
vn 0.351529 -0.936177 -0.000000
vn 0.351529 -0.936177 -0.000000
vn 0.429120 -0.903247 -0.000000
vn 0.429120 -0.903247 -0.000000
vn 0.503663 -0.863900 -0.000000
vn 0.503663 -0.863900 -0.000000
vn 0.574627 -0.818416 -0.000000
vn 0.574627 -0.818416 -0.000000
vn 0.641508 -0.767116 -0.000000
vn 0.641508 -0.767116 -0.000000
vn 0.703832 -0.710366 -0.000000
vn 0.703832 -0.710366 -0.000000
vn 0.761155 -0.648570 -0.000000
vn 0.761155 -0.648570 -0.000000
vn 0.813071 -0.582165 -0.000000
vn 0.813071 -0.582165 -0.000000
vn 0.859209 -0.511624 -0.000000
vn 0.859209 -0.511624 -0.000000
vn 0.899243 -0.437449 -0.000000
vn 0.899243 -0.437449 -0.000000
vn 0.932889 -0.360165 -0.000000
vn 0.932889 -0.360165 -0.000000
vn 0.959906 -0.280322 -0.000000
vn 0.959906 -0.280322 -0.000000
vn 0.980103 -0.198488 -0.000000
vn 0.980103 -0.198488 -0.000000
vn 0.993337 -0.115243 -0.000000
vn 0.993337 -0.115243 -0.000000
vn 0.999514 -0.031180 -0.000000
vn 0.999514 -0.031180 -0.000000
vn 0.998589 0.053105 -0.000000
vn 0.998589 0.053105 -0.000000
vn 0.990569 0.137012 -0.000000
vn 0.990569 0.137012 -0.000000
vn 0.975512 0.219946 -0.000000
vn 0.975512 0.219946 -0.000000
vn 0.953524 0.301317 -0.000000
vn 0.953524 0.301317 -0.000000
vn 0.924761 0.380548 -0.000000
vn 0.924761 0.380548 -0.000000
vn 0.889428 0.457075 -0.000000
vn 0.889428 0.457075 -0.000000
vn 0.847776 0.530354 -0.000000
vn 0.847776 0.530354 -0.000000
vn 0.800101 0.599866 -0.000000
vn 0.800101 0.599866 -0.000000
vn 0.746741 0.665115 -0.000000
vn 0.746741 0.665115 -0.000000
vn 0.688075 0.725639 -0.000000
vn 0.688075 0.725639 -0.000000
vn 0.624521 0.781008 -0.000000
vn 0.624521 0.781008 -0.000000
vn 0.556530 0.830827 -0.000000
vn 0.556530 0.830827 -0.000000
vn 0.484585 0.874744 -0.000000
vn 0.484585 0.874744 -0.000000
vn 0.409197 0.912446 -0.000000
vn 0.409197 0.912446 -0.000000
vn 0.330902 0.943665 -0.000000
vn 0.330902 0.943665 -0.000000
vn 0.250256 0.968180 -0.000000
vn 0.250256 0.968180 -0.000000
vn 0.167832 0.985816 -0.000000
vn 0.167832 0.985816 -0.000000
vn 0.084215 0.996448 -0.000000
vn 0.084215 0.996448 -0.000000
vn 0.000000 1.000000 -0.000000
vn 0.000000 1.000000 -0.000000
vn -0.998056 0.062330 0.000000
vn -0.998056 0.062330 0.000000
vn -0.998056 0.062330 0.000000
vn -0.998056 0.062330 0.000000
vn 0.000000 0.000000 1.000000
vn 0.000000 0.000000 1.000000
vn 0.000000 0.000000 1.000000
vn 0.000000 0.000000 1.000000
vn 0.000000 0.000000 1.000000
vn 0.000000 0.000000 1.000000
vn 0.000000 0.000000 1.000000
vn 0.000000 0.000000 1.000000
vn 0.000000 0.000000 1.000000
vn 0.000000 0.000000 1.000000
vn 0.000000 0.000000 1.000000
vn 0.000000 0.000000 1.000000
vn 0.000000 0.000000 1.000000
vn 0.000000 0.000000 1.000000
vn 0.000000 0.000000 1.000000
vn 0.000000 0.000000 1.000000
vn 0.000000 0.000000 1.000000
vn 0.000000 0.000000 1.000000
vn 0.000000 0.000000 1.000000
vn 0.000000 0.000000 1.000000
vn 0.000000 0.000000 1.000000
vn 0.000000 0.000000 1.000000
vn 0.000000 0.000000 1.000000
vn 0.000000 0.000000 1.000000
vn 0.000000 0.000000 1.000000
vn 0.000000 0.000000 1.000000
vn 0.000000 0.000000 1.000000
vn 0.000000 0.000000 1.000000
vn 0.000000 0.000000 1.000000
vn 0.000000 0.000000 1.000000
vn 0.000000 0.000000 1.000000
vn 0.000000 0.000000 1.000000
vn 0.000000 0.000000 1.000000
vn 0.000000 0.000000 1.000000
vn 0.000000 0.000000 1.000000
vn 0.000000 0.000000 1.000000
vn 0.000000 0.000000 1.000000
vn 0.000000 0.000000 1.000000
vn 0.000000 0.000000 1.000000
vn 0.000000 0.000000 1.000000
vn -0.000000 -0.000000 -1.000000
vn -0.000000 -0.000000 -1.000000
vn -0.000000 -0.000000 -1.000000
vn -0.000000 -0.000000 -1.000000
vn -0.000000 -0.000000 -1.000000
vn -0.000000 -0.000000 -1.000000
vn -0.000000 -0.000000 -1.000000
vn -0.000000 -0.000000 -1.000000
vn -0.000000 -0.000000 -1.000000
vn -0.000000 -0.000000 -1.000000
vn -0.000000 -0.000000 -1.000000
vn -0.000000 -0.000000 -1.000000
vn -0.000000 -0.000000 -1.000000
vn -0.000000 -0.000000 -1.000000
vn -0.000000 -0.000000 -1.000000
vn -0.000000 -0.000000 -1.000000
vn -0.000000 -0.000000 -1.000000
vn -0.000000 -0.000000 -1.000000
vn -0.000000 -0.000000 -1.000000
vn -0.000000 -0.000000 -1.000000
vn -0.000000 -0.000000 -1.000000
vn -0.000000 -0.000000 -1.000000
vn -0.000000 -0.000000 -1.000000
vn -0.000000 -0.000000 -1.000000
vn -0.000000 -0.000000 -1.000000
vn -0.000000 -0.000000 -1.000000
vn -0.000000 -0.000000 -1.000000
vn -0.000000 -0.000000 -1.000000
vn -0.000000 -0.000000 -1.000000
vn -0.000000 -0.000000 -1.000000
vn -0.000000 -0.000000 -1.000000
vn -0.000000 -0.000000 -1.000000
vn -0.000000 -0.000000 -1.000000
vn -0.000000 -0.000000 -1.000000
vn -0.000000 -0.000000 -1.000000
vn -0.000000 -0.000000 -1.000000
vn -0.000000 -0.000000 -1.000000
vn -0.000000 -0.000000 -1.000000
vn -0.000000 -0.000000 -1.000000
vn -0.000000 -0.000000 -1.000000
usemtl Plastic_-_Glossy_(Black)
f 1/1/1 2/2/2 4/3/3
f 4/3/3 2/2/2 3/4/4
f 80/5/5 5/6/6 79/7/7
f 79/7/7 5/6/6 6/8/8
f 79/7/7 6/8/8 78/9/9
f 78/9/9 6/8/8 7/10/10
f 78/9/9 7/10/10 77/11/11
f 77/11/11 7/10/10 8/12/12
f 77/11/11 8/12/12 76/13/13
f 76/13/13 8/12/12 9/14/14
f 76/13/13 9/14/14 75/15/15
f 75/15/15 9/14/14 10/16/16
f 75/15/15 10/16/16 74/17/17
f 74/17/17 10/16/16 11/18/18
f 74/17/17 11/18/18 73/19/19
f 73/19/19 11/18/18 12/20/20
f 73/19/19 12/20/20 72/21/21
f 72/21/21 12/20/20 13/22/22
f 72/21/21 13/22/22 71/23/23
f 71/23/23 13/22/22 14/24/24
f 71/23/23 14/24/24 70/25/25
f 70/25/25 14/24/24 15/26/26
f 70/25/25 15/26/26 69/27/27
f 69/27/27 15/26/26 16/28/28
f 69/27/27 16/28/28 68/29/29
f 68/29/29 16/28/28 17/30/30
f 68/29/29 17/30/30 67/31/31
f 67/31/31 17/30/30 18/32/32
f 67/31/31 18/32/32 66/33/33
f 66/33/33 18/32/32 19/34/34
f 66/33/33 19/34/34 65/35/35
f 65/35/35 19/34/34 20/36/36
f 65/35/35 20/36/36 64/37/37
f 64/37/37 20/36/36 21/38/38
f 64/37/37 21/38/38 63/39/39
f 63/39/39 21/38/38 22/40/40
f 63/39/39 22/40/40 62/41/41
f 62/41/41 22/40/40 23/42/42
f 62/41/41 23/42/42 61/43/43
f 61/43/43 23/42/42 24/44/44
f 61/43/43 24/44/44 60/45/45
f 60/45/45 24/44/44 25/46/46
f 60/45/45 25/46/46 59/47/47
f 59/47/47 25/46/46 26/48/48
f 59/47/47 26/48/48 58/49/49
f 58/49/49 26/48/48 27/50/50
f 58/49/49 27/50/50 57/51/51
f 57/51/51 27/50/50 28/52/52
f 57/51/51 28/52/52 56/53/53
f 56/53/53 28/52/52 29/54/54
f 56/53/53 29/54/54 55/55/55
f 55/55/55 29/54/54 30/56/56
f 55/55/55 30/56/56 54/57/57
f 54/57/57 30/56/56 31/58/58
f 54/57/57 31/58/58 53/59/59
f 53/59/59 31/58/58 32/60/60
f 53/59/59 32/60/60 52/61/61
f 52/61/61 32/60/60 33/62/62
f 52/61/61 33/62/62 51/63/63
f 51/63/63 33/62/62 34/64/64
f 51/63/63 34/64/64 50/65/65
f 50/65/65 34/64/64 35/66/66
f 50/65/65 35/66/66 49/67/67
f 49/67/67 35/66/66 36/68/68
f 49/67/67 36/68/68 48/69/69
f 48/69/69 36/68/68 37/70/70
f 48/69/69 37/70/70 47/71/71
f 47/71/71 37/70/70 38/72/72
f 47/71/71 38/72/72 46/73/73
f 46/73/73 38/72/72 39/74/74
f 46/73/73 39/74/74 45/75/75
f 45/75/75 39/74/74 40/76/76
f 45/75/75 40/76/76 44/77/77
f 44/77/77 40/76/76 41/78/78
f 44/77/77 41/78/78 43/79/79
f 43/79/79 41/78/78 42/80/80
f 43/79/79 42/80/80 4/81/81
f 4/81/81 42/80/80 1/82/82
f 2/83/83 5/84/84 3/85/85
f 3/85/85 5/84/84 80/86/86
f 80/87/87 79/88/88 3/89/89
f 3/89/89 79/88/88 78/90/90
f 3/89/89 78/90/90 77/91/91
f 77/91/91 76/92/92 3/89/89
f 3/89/89 76/92/92 75/93/93
f 3/89/89 75/93/93 74/94/94
f 74/94/94 73/95/95 3/89/89
f 3/89/89 73/95/95 72/96/96
f 3/89/89 72/96/96 71/97/97
f 70/98/98 51/99/99 71/97/97
f 71/97/97 51/99/99 50/100/100
f 71/97/97 50/100/100 3/89/89
f 3/89/89 50/100/100 49/101/101
f 3/89/89 49/101/101 48/102/102
f 51/99/99 70/98/98 52/103/103
f 52/103/103 70/98/98 69/104/104
f 52/103/103 69/104/104 53/105/105
f 53/105/105 69/104/104 68/106/106
f 53/105/105 68/106/106 54/107/107
f 54/107/107 68/106/106 67/108/108
f 54/107/107 67/108/108 55/109/109
f 55/109/109 67/108/108 66/110/110
f 55/109/109 66/110/110 56/111/111
f 56/111/111 66/110/110 65/112/112
f 56/111/111 65/112/112 57/113/113
f 57/113/113 65/112/112 64/114/114
f 57/113/113 64/114/114 58/115/115
f 58/115/115 64/114/114 63/116/116
f 58/115/115 63/116/116 59/117/117
f 59/117/117 63/116/116 62/118/118
f 59/117/117 62/118/118 60/119/119
f 60/119/119 62/118/118 61/120/120
f 48/102/102 47/121/121 3/89/89
f 3/89/89 47/121/121 46/122/122
f 3/89/89 46/122/122 45/123/123
f 45/123/123 44/124/124 3/89/89
f 3/89/89 44/124/124 43/125/125
f 3/89/89 43/125/125 4/126/126
f 5/127/127 2/128/128 6/129/129
f 6/129/129 2/128/128 7/130/130
f 7/130/130 2/128/128 8/131/131
f 8/131/131 2/128/128 9/132/132
f 9/132/132 2/128/128 10/133/133
f 10/133/133 2/128/128 11/134/134
f 11/134/134 2/128/128 12/135/135
f 12/135/135 2/128/128 13/136/136
f 13/136/136 2/128/128 14/137/137
f 14/137/137 2/128/128 35/138/138
f 14/137/137 35/138/138 34/139/139
f 1/140/140 42/141/141 2/128/128
f 2/128/128 42/141/141 41/142/142
f 2/128/128 41/142/142 40/143/143
f 40/143/143 39/144/144 2/128/128
f 2/128/128 39/144/144 38/145/145
f 2/128/128 38/145/145 37/146/146
f 37/146/146 36/147/147 2/128/128
f 2/128/128 36/147/147 35/138/138
f 14/137/137 34/139/139 15/148/148
f 15/148/148 34/139/139 33/149/149
f 15/148/148 33/149/149 16/150/150
f 16/150/150 33/149/149 32/151/151
f 16/150/150 32/151/151 17/152/152
f 17/152/152 32/151/151 31/153/153
f 17/152/152 31/153/153 18/154/154
f 18/154/154 31/153/153 30/155/155
f 18/154/154 30/155/155 19/156/156
f 19/156/156 30/155/155 29/157/157
f 19/156/156 29/157/157 20/158/158
f 20/158/158 29/157/157 28/159/159
f 20/158/158 28/159/159 21/160/160
f 21/160/160 28/159/159 27/161/161
f 21/160/160 27/161/161 22/162/162
f 22/162/162 27/161/161 26/163/163
f 22/162/162 26/163/163 23/164/164
f 23/164/164 26/163/163 25/165/165
f 23/164/164 25/165/165 24/166/166
# 80 vertices
# 166 texture params
# 166 normals
# 156 facets

# 1 groups
