# WaveFront *.obj file (generated by Autodesk ATF)

mtllib body1_visual.mtl

g Body1

v 23.800000 7.300000 13.000000
v 23.800000 7.305812 13.047863
v 23.800000 7.322909 13.092945
v 23.800000 7.350298 13.132625
v 23.800000 7.386387 13.164597
v 23.800000 7.429079 13.187003
v 23.800000 7.475893 13.198542
v 23.800000 7.524107 13.198542
v 23.800000 7.570921 13.187003
v 23.800000 7.613613 13.164597
v 23.800000 7.649702 13.132625
v 23.800000 7.677091 13.092945
v 23.800000 7.694188 13.047863
v 23.800000 7.700000 13.000000
v 23.800000 7.694188 12.952137
v 23.800000 7.677091 12.907055
v 23.800000 7.649702 12.867375
v 23.800000 7.613613 12.835403
v 23.800000 7.570921 12.812997
v 23.800000 7.524107 12.801458
v 23.800000 7.475893 12.801458
v 23.800000 7.429079 12.812997
v 23.800000 7.386387 12.835403
v 23.800000 7.350298 12.867375
v 23.800000 7.322909 12.907055
v 23.800000 7.305812 12.952137
v 24.000000 7.300000 13.000000
v 24.000000 7.305812 12.952137
v 24.000000 7.322909 12.907055
v 24.000000 7.350298 12.867375
v 24.000000 7.386387 12.835403
v 24.000000 7.429079 12.812997
v 24.000000 7.475893 12.801458
v 24.000000 7.524107 12.801458
v 24.000000 7.570921 12.812997
v 24.000000 7.613613 12.835403
v 24.000000 7.649702 12.867375
v 24.000000 7.677091 12.907055
v 24.000000 7.694188 12.952137
v 24.000000 7.700000 13.000000
v 24.000000 7.694188 13.047863
v 24.000000 7.677091 13.092945
v 24.000000 7.649702 13.132625
v 24.000000 7.613613 13.164597
v 24.000000 7.570921 13.187003
v 24.000000 7.524107 13.198542
v 24.000000 7.475893 13.198542
v 24.000000 7.429079 13.187003
v 24.000000 7.386387 13.164597
v 24.000000 7.350298 13.132625
v 24.000000 7.322909 13.092945
v 24.000000 7.305812 13.047863
v 23.800000 8.800000 13.000000
v 23.800000 8.805812 13.047863
v 23.800000 8.822909 13.092945
v 23.800000 8.850298 13.132625
v 23.800000 8.886387 13.164597
v 23.800000 8.929079 13.187003
v 23.800000 8.975893 13.198542
v 23.800000 9.024107 13.198542
v 23.800000 9.070921 13.187003
v 23.800000 9.113613 13.164597
v 23.800000 9.149702 13.132625
v 23.800000 9.177091 13.092945
v 23.800000 9.194188 13.047863
v 23.800000 9.200000 13.000000
v 23.800000 9.194188 12.952137
v 23.800000 9.177091 12.907055
v 23.800000 9.149702 12.867375
v 23.800000 9.113613 12.835403
v 23.800000 9.070921 12.812997
v 23.800000 9.024107 12.801458
v 23.800000 8.975893 12.801458
v 23.800000 8.929079 12.812997
v 23.800000 8.886387 12.835403
v 23.800000 8.850298 12.867375
v 23.800000 8.822909 12.907055
v 23.800000 8.805812 12.952137
v 24.000000 8.800000 13.000000
v 24.000000 8.805812 12.952137
v 24.000000 8.822909 12.907055
v 24.000000 8.850298 12.867375
v 24.000000 8.886387 12.835403
v 24.000000 8.929079 12.812997
v 24.000000 8.975893 12.801458
v 24.000000 9.024107 12.801458
v 24.000000 9.070921 12.812997
v 24.000000 9.113613 12.835403
v 24.000000 9.149702 12.867375
v 24.000000 9.177091 12.907055
v 24.000000 9.194188 12.952137
v 24.000000 9.200000 13.000000
v 24.000000 9.194188 13.047863
v 24.000000 9.177091 13.092945
v 24.000000 9.149702 13.132625
v 24.000000 9.113613 13.164597
v 24.000000 9.070921 13.187003
v 24.000000 9.024107 13.198542
v 24.000000 8.975893 13.198542
v 24.000000 8.929079 13.187003
v 24.000000 8.886387 13.164597
v 24.000000 8.850298 13.132625
v 24.000000 8.822909 13.092945
v 24.000000 8.805812 13.047863
v 24.000000 9.500000 13.500000
v 24.000000 9.500000 12.500000
v 23.993844 9.578217 12.500000
v 23.975528 9.654508 12.500000
v 23.945503 9.726995 12.500000
v 23.904508 9.793893 12.500000
v 23.853553 9.853553 12.500000
v 23.793893 9.904508 12.500000
v 23.726995 9.945503 12.500000
v 23.654508 9.975528 12.500000
v 23.578217 9.993844 12.500000
v 23.500000 10.000000 12.500000
v 23.500000 10.000000 13.000000
v 23.549009 9.997592 13.049009
v 23.597545 9.990393 13.097545
v 23.645142 9.978470 13.145142
v 23.691342 9.961940 13.191342
v 23.735698 9.940961 13.235698
v 23.777785 9.915735 13.277785
v 23.817197 9.886505 13.317197
v 23.853553 9.853553 13.353553
v 23.886505 9.817197 13.386505
v 23.915735 9.777785 13.415735
v 23.940961 9.735698 13.440961
v 23.961940 9.691342 13.461940
v 23.978470 9.645142 13.478470
v 23.990393 9.597545 13.490393
v 23.997592 9.549009 13.497592
v 23.500000 6.500000 13.000000
v 23.500000 6.500000 12.500000
v 23.578217 6.506156 12.500000
v 23.654508 6.524472 12.500000
v 23.726995 6.554497 12.500000
v 23.793893 6.595492 12.500000
v 23.853553 6.646447 12.500000
v 23.904508 6.706107 12.500000
v 23.945503 6.773005 12.500000
v 23.975528 6.845492 12.500000
v 23.993844 6.921783 12.500000
v 24.000000 7.000000 12.500000
v 24.000000 7.000000 13.500000
v 23.997592 6.950991 13.497592
v 23.990393 6.902455 13.490393
v 23.978470 6.854858 13.478470
v 23.961940 6.808658 13.461940
v 23.940961 6.764302 13.440961
v 23.915735 6.722215 13.415735
v 23.886505 6.682803 13.386505
v 23.853553 6.646447 13.353553
v 23.817197 6.613495 13.317197
v 23.777785 6.584265 13.277785
v 23.735698 6.559039 13.235698
v 23.691342 6.538060 13.191342
v 23.645142 6.521530 13.145142
v 23.597545 6.509607 13.097545
v 23.549009 6.502408 13.049009
v 22.500000 6.500000 13.000000
v 23.000000 7.000000 13.500000
v 22.950991 6.950991 13.497592
v 22.902455 6.902455 13.490393
v 22.854858 6.854858 13.478470
v 22.808658 6.808658 13.461940
v 22.764302 6.764302 13.440961
v 22.722215 6.722215 13.415735
v 22.682803 6.682803 13.386505
v 22.646447 6.646447 13.353553
v 22.613495 6.613495 13.317197
v 22.584265 6.584265 13.277785
v 22.559039 6.559039 13.235698
v 22.538060 6.538060 13.191342
v 22.521530 6.521530 13.145142
v 22.509607 6.509607 13.097545
v 22.502408 6.502408 13.049009
v 22.500000 10.000000 13.000000
v 23.000000 9.500000 13.500000
v 22.950991 9.549009 13.497592
v 22.902455 9.597545 13.490393
v 22.854858 9.645142 13.478470
v 22.808658 9.691342 13.461940
v 22.764302 9.735698 13.440961
v 22.722215 9.777785 13.415735
v 22.682803 9.817197 13.386505
v 22.646447 9.853553 13.353553
v 22.613495 9.886505 13.317197
v 22.584265 9.915735 13.277785
v 22.559039 9.940961 13.235698
v 22.538060 9.961940 13.191342
v 22.521530 9.978470 13.145142
v 22.509607 9.990393 13.097545
v 22.502408 9.997592 13.049009
v 22.506156 8.250000 13.078217
v 22.524472 8.250000 13.154508
v 22.554497 8.250000 13.226995
v 22.595492 8.250000 13.293893
v 22.646447 8.250000 13.353553
v 22.706107 8.250000 13.404508
v 22.773005 8.250000 13.445503
v 22.845492 8.250000 13.475528
v 22.921783 8.250000 13.493844
v 22.500000 6.500000 12.500000
v 22.500000 10.000000 12.500000
vt 0.200000 -0.579986 0.000000
vt 0.000000 -0.579986 0.000000
vt 0.200000 -0.628319 0.000000
vt 0.000000 -0.628319 0.000000
vt 0.200000 0.628319 0.000000
vt 0.000000 0.628319 0.000000
vt 0.200000 0.579986 0.000000
vt -0.000000 0.579986 0.000000
vt 0.000000 0.531654 0.000000
vt 0.200000 -0.531654 0.000000
vt 0.000000 -0.531654 0.000000
vt 0.200000 -0.483322 0.000000
vt 0.000000 -0.483322 0.000000
vt 0.200000 -0.434990 0.000000
vt 0.000000 -0.434990 0.000000
vt 0.200000 -0.386658 0.000000
vt 0.000000 -0.386658 0.000000
vt 0.200000 -0.338325 0.000000
vt 0.000000 -0.338325 0.000000
vt 0.200000 -0.289993 0.000000
vt 0.000000 -0.289993 0.000000
vt 0.200000 -0.241661 0.000000
vt 0.000000 -0.241661 0.000000
vt 0.200000 -0.193329 0.000000
vt 0.000000 -0.193329 0.000000
vt 0.200000 -0.144997 0.000000
vt 0.000000 -0.144997 0.000000
vt 0.200000 -0.096664 0.000000
vt 0.000000 -0.096664 0.000000
vt 0.200000 -0.048332 0.000000
vt 0.000000 -0.048332 0.000000
vt 0.200000 0.000000 0.000000
vt 0.000000 0.000000 0.000000
vt 0.200000 0.048332 0.000000
vt 0.000000 0.048332 0.000000
vt 0.200000 0.096664 0.000000
vt 0.000000 0.096664 0.000000
vt 0.200000 0.144997 0.000000
vt 0.000000 0.144997 0.000000
vt 0.200000 0.193329 0.000000
vt 0.000000 0.193329 0.000000
vt 0.200000 0.241661 0.000000
vt 0.000000 0.241661 0.000000
vt 0.200000 0.289993 0.000000
vt 0.000000 0.289993 0.000000
vt 0.200000 0.338325 0.000000
vt 0.000000 0.338325 0.000000
vt 0.200000 0.386658 0.000000
vt 0.000000 0.386658 0.000000
vt 0.200000 0.434990 0.000000
vt 0.000000 0.434990 0.000000
vt 0.200000 0.483322 0.000000
vt 0.000000 0.483322 0.000000
vt 0.200000 0.531654 0.000000
vt -0.194188 -0.047863 0.000000
vt 0.194188 -0.047863 0.000000
vt -0.200000 0.000000 0.000000
vt 0.200000 0.000000 0.000000
vt -0.194188 0.047863 0.000000
vt 0.194188 0.047863 0.000000
vt -0.177091 0.092945 0.000000
vt 0.177091 0.092945 0.000000
vt -0.149702 0.132625 0.000000
vt 0.149702 0.132625 0.000000
vt -0.113613 0.164597 0.000000
vt 0.113613 0.164597 0.000000
vt -0.070921 0.187003 0.000000
vt 0.070921 0.187003 0.000000
vt -0.024107 0.198542 0.000000
vt 0.024107 0.198542 0.000000
vt 0.177091 -0.092945 0.000000
vt -0.177091 -0.092945 0.000000
vt 0.149702 -0.132625 0.000000
vt -0.149702 -0.132625 0.000000
vt 0.113613 -0.164597 0.000000
vt -0.113613 -0.164597 0.000000
vt 0.070921 -0.187003 0.000000
vt -0.070921 -0.187003 0.000000
vt 0.024107 -0.198542 0.000000
vt -0.024107 -0.198542 0.000000
vt 0.200000 -0.579986 0.000000
vt 0.000000 -0.579986 0.000000
vt 0.200000 -0.628319 0.000000
vt 0.000000 -0.628319 0.000000
vt 0.200000 0.628319 0.000000
vt 0.000000 0.628319 0.000000
vt 0.200000 0.579986 0.000000
vt 0.000000 0.579986 0.000000
vt 0.000000 0.531654 0.000000
vt 0.200000 -0.531654 0.000000
vt 0.000000 -0.531654 0.000000
vt 0.200000 -0.483322 0.000000
vt 0.000000 -0.483322 0.000000
vt 0.200000 -0.434990 0.000000
vt 0.000000 -0.434990 0.000000
vt 0.200000 -0.386658 0.000000
vt 0.000000 -0.386658 0.000000
vt 0.200000 -0.338325 0.000000
vt 0.000000 -0.338325 0.000000
vt 0.200000 -0.289993 0.000000
vt 0.000000 -0.289993 0.000000
vt 0.200000 -0.241661 0.000000
vt 0.000000 -0.241661 0.000000
vt 0.200000 -0.193329 0.000000
vt 0.000000 -0.193329 0.000000
vt 0.200000 -0.144997 0.000000
vt 0.000000 -0.144997 0.000000
vt 0.200000 -0.096664 0.000000
vt 0.000000 -0.096664 0.000000
vt 0.200000 -0.048332 0.000000
vt 0.000000 -0.048332 0.000000
vt 0.200000 0.000000 0.000000
vt 0.000000 0.000000 0.000000
vt 0.200000 0.048332 0.000000
vt 0.000000 0.048332 0.000000
vt 0.200000 0.096664 0.000000
vt 0.000000 0.096664 0.000000
vt 0.200000 0.144997 0.000000
vt 0.000000 0.144997 0.000000
vt 0.200000 0.193329 0.000000
vt 0.000000 0.193329 0.000000
vt 0.200000 0.241661 0.000000
vt 0.000000 0.241661 0.000000
vt 0.200000 0.289993 0.000000
vt 0.000000 0.289993 0.000000
vt 0.200000 0.338325 0.000000
vt -0.000000 0.338325 0.000000
vt 0.200000 0.386658 0.000000
vt 0.000000 0.386658 0.000000
vt 0.200000 0.434990 0.000000
vt -0.000000 0.434990 0.000000
vt 0.200000 0.483322 0.000000
vt -0.000000 0.483322 0.000000
vt 0.200000 0.531654 0.000000
vt -0.194188 -0.047863 0.000000
vt 0.194188 -0.047863 0.000000
vt -0.200000 0.000000 0.000000
vt 0.200000 0.000000 0.000000
vt -0.194188 0.047863 0.000000
vt 0.194188 0.047863 0.000000
vt -0.177091 0.092945 0.000000
vt 0.177091 0.092945 0.000000
vt -0.149702 0.132625 0.000000
vt 0.149702 0.132625 0.000000
vt -0.113613 0.164597 0.000000
vt 0.113613 0.164597 0.000000
vt -0.070921 0.187003 0.000000
vt 0.070921 0.187003 0.000000
vt -0.024107 0.198542 0.000000
vt 0.024107 0.198542 0.000000
vt 0.177091 -0.092945 0.000000
vt -0.177091 -0.092945 0.000000
vt 0.149702 -0.132625 0.000000
vt -0.149702 -0.132625 0.000000
vt 0.113613 -0.164597 0.000000
vt -0.113613 -0.164597 0.000000
vt 0.070921 -0.187003 0.000000
vt -0.070921 -0.187003 0.000000
vt 0.024107 -0.198542 0.000000
vt -0.024107 -0.198542 0.000000
vt -1.000000 -0.392699 0.000000
vt -0.000000 -0.392699 0.000000
vt -0.997592 -0.343612 0.000000
vt -0.000000 -0.314159 0.000000
vt -0.990393 -0.294524 0.000000
vt -0.000000 -0.235619 0.000000
vt -0.978470 -0.245437 0.000000
vt -0.961940 -0.196350 0.000000
vt -0.000000 -0.157080 0.000000
vt -0.940961 -0.147262 0.000000
vt -0.915735 -0.098175 0.000000
vt -0.000000 -0.078540 0.000000
vt -0.886505 -0.049087 0.000000
vt -0.000000 0.000000 0.000000
vt -0.853553 0.000000 0.000000
vt -0.817197 0.049087 0.000000
vt -0.000000 0.078540 0.000000
vt -0.777785 0.098175 0.000000
vt -0.000000 0.157080 0.000000
vt -0.735698 0.147262 0.000000
vt -0.691342 0.196350 0.000000
vt -0.000000 0.235619 0.000000
vt -0.645142 0.245437 0.000000
vt -0.597545 0.294524 0.000000
vt -0.000000 0.314159 0.000000
vt -0.549009 0.343612 0.000000
vt -0.000000 0.392699 0.000000
vt -0.500000 0.392699 0.000000
vt -0.500000 -0.392699 0.000000
vt -0.000000 -0.392699 0.000000
vt -0.549009 -0.343612 0.000000
vt -0.000000 -0.314159 0.000000
vt -0.597545 -0.294524 0.000000
vt -0.000000 -0.235619 0.000000
vt -0.645142 -0.245437 0.000000
vt -0.691342 -0.196350 0.000000
vt -0.000000 -0.157080 0.000000
vt -0.735698 -0.147262 0.000000
vt -0.777785 -0.098175 0.000000
vt -0.000000 -0.078540 0.000000
vt -0.817197 -0.049087 0.000000
vt -0.000000 -0.000000 0.000000
vt -0.853553 -0.000000 0.000000
vt -0.886505 0.049087 0.000000
vt -0.000000 0.078540 0.000000
vt -0.915735 0.098175 0.000000
vt -0.000000 0.157080 0.000000
vt -0.940961 0.147262 0.000000
vt -0.961940 0.196350 0.000000
vt -0.000000 0.235619 0.000000
vt -0.978470 0.245437 0.000000
vt -0.990393 0.294524 0.000000
vt -0.000000 0.314159 0.000000
vt -0.997592 0.343612 0.000000
vt -0.000000 0.392699 0.000000
vt -1.000000 0.392699 0.000000
vt 0.375000 0.392699 0.000000
vt -0.625000 0.392699 0.000000
vt 0.372592 0.343612 0.000000
vt -0.674009 0.343612 0.000000
vt 0.365393 0.294524 0.000000
vt -0.722545 0.294524 0.000000
vt 0.353470 0.245437 0.000000
vt -0.770142 0.245437 0.000000
vt 0.336940 0.196350 0.000000
vt -0.816342 0.196350 0.000000
vt 0.315961 0.147262 0.000000
vt -0.860698 0.147262 0.000000
vt 0.290735 0.098175 0.000000
vt -0.902785 0.098175 0.000000
vt 0.261505 0.049087 0.000000
vt -0.942197 0.049087 0.000000
vt 0.228553 0.000000 0.000000
vt -0.978553 0.000000 0.000000
vt 0.192197 -0.049087 0.000000
vt -1.011505 -0.049087 0.000000
vt 0.152785 -0.098175 0.000000
vt -1.040735 -0.098175 0.000000
vt 0.110698 -0.147262 0.000000
vt -1.065961 -0.147262 0.000000
vt 0.066342 -0.196350 0.000000
vt -1.086940 -0.196350 0.000000
vt 0.020142 -0.245437 0.000000
vt -1.103470 -0.245437 0.000000
vt -0.027455 -0.294524 0.000000
vt -1.115393 -0.294524 0.000000
vt -0.075991 -0.343612 0.000000
vt -1.122592 -0.343612 0.000000
vt -0.125000 -0.392699 0.000000
vt -1.125000 -0.392699 0.000000
vt 0.875000 0.392699 0.000000
vt -2.625000 0.392699 0.000000
vt 0.872592 0.343612 0.000000
vt -0.875000 0.314159 0.000000
vt 0.865393 0.294524 0.000000
vt -0.875000 0.235619 0.000000
vt 0.853470 0.245437 0.000000
vt 0.836940 0.196350 0.000000
vt -0.875000 0.157080 0.000000
vt 0.815961 0.147262 0.000000
vt 0.790735 0.098175 0.000000
vt -0.875000 0.078540 0.000000
vt 0.761505 0.049087 0.000000
vt -0.875000 0.000000 0.000000
vt 0.728553 0.000000 0.000000
vt 0.692197 -0.049087 0.000000
vt -0.875000 -0.078540 0.000000
vt 0.652785 -0.098175 0.000000
vt -0.875000 -0.157080 0.000000
vt 0.610698 -0.147262 0.000000
vt 0.566342 -0.196350 0.000000
vt -0.875000 -0.235619 0.000000
vt 0.520142 -0.245437 0.000000
vt 0.472545 -0.294524 0.000000
vt -0.875000 -0.314159 0.000000
vt 0.424009 -0.343612 0.000000
vt 0.375000 -0.392699 0.000000
vt -2.174009 -0.343612 0.000000
vt -2.125000 -0.392699 0.000000
vt -2.622592 0.343612 0.000000
vt -2.615393 0.294524 0.000000
vt -2.603470 0.245437 0.000000
vt -2.586940 0.196350 0.000000
vt -2.565961 0.147262 0.000000
vt -2.540735 0.098175 0.000000
vt -2.511505 0.049087 0.000000
vt -2.478553 0.000000 0.000000
vt -2.442197 -0.049087 0.000000
vt -2.402785 -0.098175 0.000000
vt -2.360698 -0.147262 0.000000
vt -2.316342 -0.196350 0.000000
vt -2.270142 -0.245437 0.000000
vt -2.222545 -0.294524 0.000000
vt -1.125000 0.392699 0.000000
vt -1.122592 0.343612 0.000000
vt -0.125000 0.392699 0.000000
vt -0.075991 0.343612 0.000000
vt -1.115393 0.294524 0.000000
vt -0.027455 0.294524 0.000000
vt -1.103470 0.245437 0.000000
vt 0.020142 0.245437 0.000000
vt -1.086940 0.196350 0.000000
vt 0.066342 0.196350 0.000000
vt -1.065961 0.147262 0.000000
vt 0.110698 0.147262 0.000000
vt -1.040735 0.098175 0.000000
vt 0.152785 0.098175 0.000000
vt -1.011505 0.049087 0.000000
vt 0.192197 0.049087 0.000000
vt -0.978553 0.000000 0.000000
vt 0.228553 0.000000 0.000000
vt -0.942197 -0.049087 0.000000
vt 0.261505 -0.049087 0.000000
vt -0.902785 -0.098175 0.000000
vt 0.290735 -0.098175 0.000000
vt -0.860698 -0.147262 0.000000
vt 0.315961 -0.147262 0.000000
vt -0.816342 -0.196350 0.000000
vt 0.336940 -0.196350 0.000000
vt -0.770142 -0.245437 0.000000
vt 0.353470 -0.245437 0.000000
vt -0.722545 -0.294524 0.000000
vt 0.365393 -0.294524 0.000000
vt -0.674009 -0.343612 0.000000
vt 0.372592 -0.343612 0.000000
vt -0.625000 -0.392699 0.000000
vt 0.375000 -0.392699 0.000000
vt 0.750000 1.250000 0.000000
vt -0.250000 1.250000 0.000000
vt 0.750000 -1.250000 0.000000
vt -0.250000 -1.250000 0.000000
vt 0.328217 -1.743844 0.000000
vt 0.750000 -1.250000 0.000000
vt 0.250000 -1.750000 0.000000
vt 0.250000 1.750000 0.000000
vt -0.750000 -1.750000 0.000000
vt -0.750000 1.750000 0.000000
vt 0.404508 -1.725528 0.000000
vt 0.476995 -1.695503 0.000000
vt 0.543893 -1.654508 0.000000
vt 0.603553 -1.603553 0.000000
vt 0.654508 -1.543893 0.000000
vt 0.695503 -1.476995 0.000000
vt 0.725528 -1.404508 0.000000
vt 0.743844 -1.328217 0.000000
vt 0.750000 1.250000 0.000000
vt 0.328217 1.743844 0.000000
vt 0.404508 1.725528 0.000000
vt 0.476995 1.695503 0.000000
vt 0.543893 1.654508 0.000000
vt 0.603553 1.603553 0.000000
vt 0.654508 1.543893 0.000000
vt 0.695503 1.476995 0.000000
vt 0.725528 1.404508 0.000000
vt 0.743844 1.328217 0.000000
vt 0.805812 0.547863 0.000000
vt 0.500000 1.000000 0.000000
vt 0.800000 0.500000 0.000000
vt 0.500000 0.000000 0.000000
vt 0.805812 0.452137 0.000000
vt 0.822909 0.407055 0.000000
vt 0.850298 0.367375 0.000000
vt 0.886387 0.335403 0.000000
vt 0.929079 0.312997 0.000000
vt 0.975893 0.301458 0.000000
vt 1.024107 0.301458 0.000000
vt 1.070921 0.312997 0.000000
vt 3.000000 0.000000 0.000000
vt 2.429079 0.312997 0.000000
vt 2.475893 0.301458 0.000000
vt 2.524107 0.301458 0.000000
vt 2.570921 0.312997 0.000000
vt 2.613613 0.335403 0.000000
vt 2.649702 0.367375 0.000000
vt 2.677091 0.407055 0.000000
vt 2.694188 0.452137 0.000000
vt 2.700000 0.500000 0.000000
vt 3.000000 1.000000 0.000000
vt 2.694188 0.547863 0.000000
vt 2.677091 0.592945 0.000000
vt 2.649702 0.632625 0.000000
vt 2.613613 0.664597 0.000000
vt 2.570921 0.687003 0.000000
vt 2.524107 0.698542 0.000000
vt 2.475893 0.698542 0.000000
vt 2.429079 0.687003 0.000000
vt 1.070921 0.687003 0.000000
vt 1.024107 0.698542 0.000000
vt 0.975893 0.698542 0.000000
vt 0.929079 0.687003 0.000000
vt 0.886387 0.664597 0.000000
vt 0.850298 0.632625 0.000000
vt 0.822909 0.592945 0.000000
vt 2.386387 0.664597 0.000000
vt 1.113613 0.664597 0.000000
vt 2.350298 0.632625 0.000000
vt 1.149702 0.632625 0.000000
vt 2.322909 0.592945 0.000000
vt 1.177091 0.592945 0.000000
vt 2.305812 0.547863 0.000000
vt 1.194188 0.547863 0.000000
vt 2.300000 0.500000 0.000000
vt 1.200000 0.500000 0.000000
vt 2.305812 0.452137 0.000000
vt 1.194188 0.452137 0.000000
vt 2.322909 0.407055 0.000000
vt 1.177091 0.407055 0.000000
vt 2.350298 0.367375 0.000000
vt 1.149702 0.367375 0.000000
vt 2.386387 0.335403 0.000000
vt 1.113613 0.335403 0.000000
vt 1.000000 0.500000 0.000000
vt 0.000000 0.500000 0.000000
vt 1.000000 0.000000 0.000000
vt 0.000000 0.000000 0.000000
vt 3.500000 0.500000 0.000000
vt 0.000000 0.500000 0.000000
vt 3.500000 0.000000 0.000000
vt 0.000000 0.000000 0.000000
vt 0.500000 0.000000 0.000000
vt 1.500000 0.000000 0.000000
vt 0.500000 0.500000 0.000000
vt 1.500000 0.500000 0.000000
vn 0.000000 0.970942 -0.239316
vn 0.000000 0.970942 -0.239316
vn 0.000000 1.000000 -0.000000
vn 0.000000 1.000000 -0.000000
vn 0.000000 0.970942 0.239316
vn 0.000000 0.970942 0.239316
vn 0.000000 0.885456 0.464723
vn 0.000000 0.885456 -0.464723
vn 0.000000 0.885456 -0.464723
vn 0.000000 0.748511 -0.663123
vn 0.000000 0.748511 -0.663123
vn 0.000000 0.568065 -0.822984
vn 0.000000 0.568065 -0.822984
vn 0.000000 0.354605 -0.935016
vn 0.000000 0.354605 -0.935016
vn 0.000000 0.120537 -0.992709
vn 0.000000 0.120537 -0.992709
vn -0.000000 -0.120537 -0.992709
vn -0.000000 -0.120537 -0.992709
vn -0.000000 -0.354605 -0.935016
vn -0.000000 -0.354605 -0.935016
vn -0.000000 -0.568065 -0.822984
vn -0.000000 -0.568065 -0.822984
vn -0.000000 -0.748511 -0.663123
vn -0.000000 -0.748511 -0.663123
vn -0.000000 -0.885456 -0.464723
vn -0.000000 -0.885456 -0.464723
vn -0.000000 -0.970942 -0.239316
vn -0.000000 -0.970942 -0.239316
vn -0.000000 -1.000000 -0.000000
vn -0.000000 -1.000000 -0.000000
vn 0.000000 -0.970942 0.239316
vn 0.000000 -0.970942 0.239316
vn 0.000000 -0.885456 0.464723
vn 0.000000 -0.885456 0.464723
vn 0.000000 -0.748511 0.663123
vn 0.000000 -0.748511 0.663123
vn 0.000000 -0.568065 0.822984
vn 0.000000 -0.568065 0.822984
vn 0.000000 -0.354605 0.935016
vn 0.000000 -0.354605 0.935016
vn 0.000000 -0.120537 0.992709
vn 0.000000 -0.120537 0.992709
vn 0.000000 0.120537 0.992709
vn 0.000000 0.120537 0.992709
vn 0.000000 0.354605 0.935016
vn 0.000000 0.354605 0.935016
vn 0.000000 0.568065 0.822984
vn 0.000000 0.568065 0.822984
vn 0.000000 0.748511 0.663123
vn 0.000000 0.748511 0.663123
vn 0.000000 0.885456 0.464723
vn 1.000000 0.000000 0.000000
vn 1.000000 0.000000 0.000000
vn 1.000000 0.000000 0.000000
vn 1.000000 0.000000 0.000000
vn 1.000000 0.000000 0.000000
vn 1.000000 0.000000 0.000000
vn 1.000000 0.000000 0.000000
vn 1.000000 0.000000 0.000000
vn 1.000000 0.000000 0.000000
vn 1.000000 0.000000 0.000000
vn 1.000000 0.000000 0.000000
vn 1.000000 0.000000 0.000000
vn 1.000000 0.000000 0.000000
vn 1.000000 0.000000 0.000000
vn 1.000000 0.000000 0.000000
vn 1.000000 0.000000 0.000000
vn 1.000000 0.000000 0.000000
vn 1.000000 0.000000 0.000000
vn 1.000000 0.000000 0.000000
vn 1.000000 0.000000 0.000000
vn 1.000000 0.000000 0.000000
vn 1.000000 0.000000 0.000000
vn 1.000000 0.000000 0.000000
vn 1.000000 0.000000 0.000000
vn 1.000000 0.000000 0.000000
vn 1.000000 0.000000 0.000000
vn 0.000000 0.970942 -0.239316
vn 0.000000 0.970942 -0.239316
vn 0.000000 1.000000 -0.000000
vn 0.000000 1.000000 -0.000000
vn 0.000000 0.970942 0.239316
vn 0.000000 0.970942 0.239316
vn 0.000000 0.885456 0.464723
vn 0.000000 0.885456 -0.464723
vn 0.000000 0.885456 -0.464723
vn 0.000000 0.748511 -0.663123
vn 0.000000 0.748511 -0.663123
vn 0.000000 0.568065 -0.822984
vn 0.000000 0.568065 -0.822984
vn 0.000000 0.354605 -0.935016
vn 0.000000 0.354605 -0.935016
vn 0.000000 0.120537 -0.992709
vn 0.000000 0.120537 -0.992709
vn -0.000000 -0.120537 -0.992709
vn -0.000000 -0.120537 -0.992709
vn -0.000000 -0.354605 -0.935016
vn -0.000000 -0.354605 -0.935016
vn -0.000000 -0.568065 -0.822984
vn -0.000000 -0.568065 -0.822984
vn -0.000000 -0.748511 -0.663123
vn -0.000000 -0.748511 -0.663123
vn -0.000000 -0.885456 -0.464723
vn -0.000000 -0.885456 -0.464723
vn -0.000000 -0.970942 -0.239316
vn -0.000000 -0.970942 -0.239316
vn -0.000000 -1.000000 -0.000000
vn -0.000000 -1.000000 -0.000000
vn 0.000000 -0.970942 0.239316
vn 0.000000 -0.970942 0.239316
vn 0.000000 -0.885456 0.464723
vn 0.000000 -0.885456 0.464723
vn 0.000000 -0.748511 0.663123
vn 0.000000 -0.748511 0.663123
vn 0.000000 -0.568065 0.822984
vn 0.000000 -0.568065 0.822984
vn 0.000000 -0.354605 0.935016
vn 0.000000 -0.354605 0.935016
vn 0.000000 -0.120537 0.992709
vn 0.000000 -0.120537 0.992709
vn 0.000000 0.120537 0.992709
vn 0.000000 0.120537 0.992709
vn 0.000000 0.354605 0.935016
vn 0.000000 0.354605 0.935016
vn 0.000000 0.568065 0.822984
vn 0.000000 0.568065 0.822984
vn 0.000000 0.748511 0.663123
vn 0.000000 0.748511 0.663123
vn 0.000000 0.885456 0.464723
vn 1.000000 0.000000 0.000000
vn 1.000000 0.000000 0.000000
vn 1.000000 0.000000 0.000000
vn 1.000000 0.000000 0.000000
vn 1.000000 0.000000 0.000000
vn 1.000000 0.000000 0.000000
vn 1.000000 0.000000 0.000000
vn 1.000000 0.000000 0.000000
vn 1.000000 0.000000 0.000000
vn 1.000000 0.000000 0.000000
vn 1.000000 0.000000 0.000000
vn 1.000000 0.000000 0.000000
vn 1.000000 0.000000 0.000000
vn 1.000000 0.000000 0.000000
vn 1.000000 0.000000 0.000000
vn 1.000000 0.000000 0.000000
vn 1.000000 0.000000 0.000000
vn 1.000000 0.000000 0.000000
vn 1.000000 0.000000 0.000000
vn 1.000000 0.000000 0.000000
vn 1.000000 0.000000 0.000000
vn 1.000000 0.000000 0.000000
vn 1.000000 0.000000 0.000000
vn 1.000000 0.000000 0.000000
vn 1.000000 0.000000 0.000000
vn 1.000000 0.000000 0.000000
vn 1.000000 -0.000000 -0.000000
vn 1.000000 -0.000000 -0.000000
vn 0.995185 0.098017 -0.000000
vn 0.987688 0.156434 -0.000000
vn 0.980785 0.195090 -0.000000
vn 0.951057 0.309017 -0.000000
vn 0.956940 0.290285 -0.000000
vn 0.923880 0.382683 -0.000000
vn 0.891007 0.453990 -0.000000
vn 0.881921 0.471397 -0.000000
vn 0.831470 0.555570 -0.000000
vn 0.809017 0.587785 -0.000000
vn 0.773010 0.634393 -0.000000
vn 0.707107 0.707107 -0.000000
vn 0.707107 0.707107 -0.000000
vn 0.634393 0.773010 -0.000000
vn 0.587785 0.809017 -0.000000
vn 0.555570 0.831470 -0.000000
vn 0.453990 0.891007 -0.000000
vn 0.471397 0.881921 -0.000000
vn 0.382683 0.923880 -0.000000
vn 0.309017 0.951057 -0.000000
vn 0.290285 0.956940 -0.000000
vn 0.195090 0.980785 -0.000000
vn 0.156434 0.987688 -0.000000
vn 0.098017 0.995185 -0.000000
vn 0.000000 1.000000 -0.000000
vn 0.000000 1.000000 -0.000000
vn -0.000000 -1.000000 -0.000000
vn -0.000000 -1.000000 -0.000000
vn 0.098017 -0.995185 -0.000000
vn 0.156434 -0.987688 -0.000000
vn 0.195090 -0.980785 -0.000000
vn 0.309017 -0.951057 -0.000000
vn 0.290285 -0.956940 -0.000000
vn 0.382683 -0.923880 -0.000000
vn 0.453990 -0.891007 -0.000000
vn 0.471397 -0.881921 -0.000000
vn 0.555570 -0.831470 -0.000000
vn 0.587785 -0.809017 -0.000000
vn 0.634393 -0.773010 -0.000000
vn 0.707107 -0.707107 -0.000000
vn 0.707107 -0.707107 -0.000000
vn 0.773010 -0.634393 -0.000000
vn 0.809017 -0.587785 -0.000000
vn 0.831470 -0.555570 -0.000000
vn 0.891007 -0.453990 -0.000000
vn 0.881921 -0.471397 -0.000000
vn 0.923880 -0.382683 -0.000000
vn 0.951057 -0.309017 -0.000000
vn 0.956940 -0.290285 -0.000000
vn 0.980785 -0.195090 -0.000000
vn 0.987688 -0.156434 -0.000000
vn 0.995185 -0.098017 -0.000000
vn 1.000000 -0.000000 -0.000000
vn 1.000000 -0.000000 -0.000000
vn 0.000000 -1.000000 -0.000000
vn -0.000000 -0.995185 0.098017
vn -0.000000 -0.995185 0.098017
vn -0.000000 -0.980785 0.195090
vn -0.000000 -0.980785 0.195090
vn -0.000000 -0.956940 0.290285
vn -0.000000 -0.956940 0.290285
vn -0.000000 -0.923880 0.382683
vn -0.000000 -0.923880 0.382683
vn -0.000000 -0.881921 0.471397
vn -0.000000 -0.881921 0.471397
vn -0.000000 -0.831470 0.555570
vn -0.000000 -0.831470 0.555570
vn -0.000000 -0.773010 0.634393
vn -0.000000 -0.773010 0.634393
vn -0.000000 -0.707107 0.707107
vn -0.000000 -0.707107 0.707107
vn -0.000000 -0.634393 0.773010
vn -0.000000 -0.634393 0.773010
vn -0.000000 -0.555570 0.831470
vn -0.000000 -0.555570 0.831470
vn -0.000000 -0.471397 0.881921
vn -0.000000 -0.471397 0.881921
vn -0.000000 -0.382683 0.923880
vn -0.000000 -0.382683 0.923880
vn -0.000000 -0.290285 0.956940
vn -0.000000 -0.290285 0.956940
vn -0.000000 -0.195090 0.980785
vn -0.000000 -0.195090 0.980785
vn -0.000000 -0.098017 0.995185
vn -0.000000 -0.098017 0.995185
vn -0.000000 -0.000000 1.000000
vn -0.000000 -0.000000 1.000000
vn -1.000000 -0.000000 -0.000000
vn -1.000000 -0.000000 -0.000000
vn -0.995185 -0.000000 0.098017
vn -0.987688 -0.000000 0.156434
vn -0.980785 -0.000000 0.195090
vn -0.951057 -0.000000 0.309017
vn -0.956940 -0.000000 0.290285
vn -0.923880 -0.000000 0.382683
vn -0.891007 -0.000000 0.453990
vn -0.881921 -0.000000 0.471397
vn -0.831470 -0.000000 0.555570
vn -0.809017 -0.000000 0.587785
vn -0.773010 -0.000000 0.634393
vn -0.707107 -0.000000 0.707107
vn -0.707107 -0.000000 0.707107
vn -0.634393 -0.000000 0.773010
vn -0.587785 -0.000000 0.809017
vn -0.555570 -0.000000 0.831470
vn -0.453990 -0.000000 0.891007
vn -0.471397 -0.000000 0.881921
vn -0.382683 -0.000000 0.923880
vn -0.309017 -0.000000 0.951057
vn -0.290285 -0.000000 0.956940
vn -0.195090 -0.000000 0.980785
vn -0.156434 -0.000000 0.987688
vn -0.098017 -0.000000 0.995185
vn 0.000000 0.000000 1.000000
vn -0.098017 -0.000000 0.995185
vn -0.995185 -0.000000 0.098017
vn -0.980785 -0.000000 0.195090
vn -0.956940 -0.000000 0.290285
vn -0.923880 -0.000000 0.382683
vn -0.881921 -0.000000 0.471397
vn -0.831470 -0.000000 0.555570
vn -0.773010 -0.000000 0.634393
vn -0.707107 -0.000000 0.707107
vn -0.634393 -0.000000 0.773010
vn -0.555570 -0.000000 0.831470
vn -0.471397 -0.000000 0.881921
vn -0.382683 -0.000000 0.923880
vn -0.290285 -0.000000 0.956940
vn -0.195090 -0.000000 0.980785
vn 0.000000 1.000000 0.000000
vn 0.000000 0.995185 0.098017
vn 0.000000 0.995185 0.098017
vn 0.000000 0.980785 0.195090
vn 0.000000 0.980785 0.195090
vn 0.000000 0.956940 0.290285
vn 0.000000 0.956940 0.290285
vn 0.000000 0.923880 0.382683
vn 0.000000 0.923880 0.382683
vn 0.000000 0.881921 0.471397
vn 0.000000 0.881921 0.471397
vn 0.000000 0.831470 0.555570
vn 0.000000 0.831470 0.555570
vn 0.000000 0.773010 0.634393
vn 0.000000 0.773010 0.634393
vn 0.000000 0.707107 0.707107
vn 0.000000 0.707107 0.707107
vn 0.000000 0.634393 0.773010
vn 0.000000 0.634393 0.773010
vn 0.000000 0.555570 0.831470
vn 0.000000 0.555570 0.831470
vn 0.000000 0.471397 0.881921
vn 0.000000 0.471397 0.881921
vn 0.000000 0.382683 0.923880
vn 0.000000 0.382683 0.923880
vn 0.000000 0.290285 0.956940
vn 0.000000 0.290285 0.956940
vn 0.000000 0.195090 0.980785
vn 0.000000 0.195090 0.980785
vn 0.000000 0.098017 0.995185
vn 0.000000 0.098017 0.995185
vn -0.000000 -0.000000 1.000000
vn -0.000000 -0.000000 -1.000000
vn -0.000000 -0.000000 -1.000000
vn -0.000000 -0.000000 -1.000000
vn -0.000000 -0.000000 -1.000000
vn -0.000000 -0.000000 -1.000000
vn -0.000000 -0.000000 -1.000000
vn -0.000000 -0.000000 -1.000000
vn -0.000000 -0.000000 -1.000000
vn -0.000000 -0.000000 -1.000000
vn -0.000000 -0.000000 -1.000000
vn -0.000000 -0.000000 -1.000000
vn -0.000000 -0.000000 -1.000000
vn -0.000000 -0.000000 -1.000000
vn -0.000000 -0.000000 -1.000000
vn -0.000000 -0.000000 -1.000000
vn -0.000000 -0.000000 -1.000000
vn -0.000000 -0.000000 -1.000000
vn -0.000000 -0.000000 -1.000000
vn -0.000000 -0.000000 -1.000000
vn -0.000000 -0.000000 -1.000000
vn -0.000000 -0.000000 -1.000000
vn -0.000000 -0.000000 -1.000000
vn -0.000000 -0.000000 -1.000000
vn -0.000000 -0.000000 -1.000000
vn 1.000000 0.000000 0.000000
vn 1.000000 0.000000 0.000000
vn 1.000000 0.000000 0.000000
vn 1.000000 0.000000 0.000000
vn 1.000000 0.000000 0.000000
vn 1.000000 0.000000 0.000000
vn 1.000000 0.000000 0.000000
vn 1.000000 0.000000 0.000000
vn 1.000000 0.000000 0.000000
vn 1.000000 0.000000 0.000000
vn 1.000000 0.000000 0.000000
vn 1.000000 0.000000 0.000000
vn 1.000000 0.000000 0.000000
vn 1.000000 0.000000 0.000000
vn 1.000000 0.000000 0.000000
vn 1.000000 0.000000 0.000000
vn 1.000000 0.000000 0.000000
vn 1.000000 0.000000 0.000000
vn 1.000000 0.000000 0.000000
vn 1.000000 0.000000 0.000000
vn 1.000000 0.000000 0.000000
vn 1.000000 0.000000 0.000000
vn 1.000000 0.000000 0.000000
vn 1.000000 0.000000 0.000000
vn 1.000000 0.000000 0.000000
vn 1.000000 0.000000 0.000000
vn 1.000000 0.000000 0.000000
vn 1.000000 0.000000 0.000000
vn 1.000000 0.000000 0.000000
vn 1.000000 0.000000 0.000000
vn 1.000000 0.000000 0.000000
vn 1.000000 0.000000 0.000000
vn 1.000000 0.000000 0.000000
vn 1.000000 0.000000 0.000000
vn 1.000000 0.000000 0.000000
vn 1.000000 0.000000 0.000000
vn 1.000000 0.000000 0.000000
vn 1.000000 0.000000 0.000000
vn 1.000000 0.000000 0.000000
vn 1.000000 0.000000 0.000000
vn 1.000000 0.000000 0.000000
vn 1.000000 0.000000 0.000000
vn 1.000000 0.000000 0.000000
vn 1.000000 0.000000 0.000000
vn 1.000000 0.000000 0.000000
vn 1.000000 0.000000 0.000000
vn 1.000000 0.000000 0.000000
vn 1.000000 0.000000 0.000000
vn 1.000000 0.000000 0.000000
vn 1.000000 0.000000 0.000000
vn 1.000000 0.000000 0.000000
vn 1.000000 0.000000 0.000000
vn 0.000000 -1.000000 0.000000
vn -1.000000 0.000000 0.000000
vn -1.000000 0.000000 0.000000
vn 0.000000 1.000000 -0.000000
usemtl Plastic_-_Glossy_(Black)
f 2/1/1 52/2/2 1/3/3
f 1/3/3 52/2/2 27/4/4
f 1/5/3 27/6/4 26/7/5
f 26/7/5 27/6/4 28/8/6
f 26/7/5 28/8/6 29/9/7
f 2/1/1 3/10/8 52/2/2
f 52/2/2 3/10/8 51/11/9
f 51/11/9 3/10/8 4/12/10
f 51/11/9 4/12/10 50/13/11
f 50/13/11 4/12/10 5/14/12
f 50/13/11 5/14/12 49/15/13
f 49/15/13 5/14/12 6/16/14
f 49/15/13 6/16/14 48/17/15
f 48/17/15 6/16/14 7/18/16
f 48/17/15 7/18/16 47/19/17
f 47/19/17 7/18/16 8/20/18
f 47/19/17 8/20/18 46/21/19
f 46/21/19 8/20/18 9/22/20
f 46/21/19 9/22/20 45/23/21
f 45/23/21 9/22/20 10/24/22
f 45/23/21 10/24/22 44/25/23
f 44/25/23 10/24/22 11/26/24
f 44/25/23 11/26/24 43/27/25
f 43/27/25 11/26/24 12/28/26
f 43/27/25 12/28/26 42/29/27
f 42/29/27 12/28/26 13/30/28
f 42/29/27 13/30/28 41/31/29
f 41/31/29 13/30/28 14/32/30
f 41/31/29 14/32/30 40/33/31
f 40/33/31 14/32/30 15/34/32
f 40/33/31 15/34/32 39/35/33
f 39/35/33 15/34/32 16/36/34
f 39/35/33 16/36/34 38/37/35
f 38/37/35 16/36/34 17/38/36
f 38/37/35 17/38/36 37/39/37
f 37/39/37 17/38/36 18/40/38
f 37/39/37 18/40/38 36/41/39
f 36/41/39 18/40/38 19/42/40
f 36/41/39 19/42/40 35/43/41
f 35/43/41 19/42/40 20/44/42
f 35/43/41 20/44/42 34/45/43
f 34/45/43 20/44/42 21/46/44
f 34/45/43 21/46/44 33/47/45
f 33/47/45 21/46/44 22/48/46
f 33/47/45 22/48/46 32/49/47
f 32/49/47 22/48/46 23/50/48
f 32/49/47 23/50/48 31/51/49
f 31/51/49 23/50/48 24/52/50
f 31/51/49 24/52/50 30/53/51
f 30/53/51 24/52/50 25/54/52
f 30/53/51 25/54/52 29/9/7
f 29/9/7 25/54/52 26/7/5
f 26/55/53 15/56/54 1/57/55
f 1/57/55 15/56/54 14/58/56
f 1/57/55 14/58/56 2/59/57
f 2/59/57 14/58/56 13/60/58
f 2/59/57 13/60/58 3/61/59
f 3/61/59 13/60/58 12/62/60
f 3/61/59 12/62/60 4/63/61
f 4/63/61 12/62/60 11/64/62
f 4/63/61 11/64/62 5/65/63
f 5/65/63 11/64/62 10/66/64
f 5/65/63 10/66/64 6/67/65
f 6/67/65 10/66/64 9/68/66
f 6/67/65 9/68/66 7/69/67
f 7/69/67 9/68/66 8/70/68
f 15/56/54 26/55/53 16/71/69
f 16/71/69 26/55/53 25/72/70
f 16/71/69 25/72/70 17/73/71
f 17/73/71 25/72/70 24/74/72
f 17/73/71 24/74/72 18/75/73
f 18/75/73 24/74/72 23/76/74
f 18/75/73 23/76/74 19/77/75
f 19/77/75 23/76/74 22/78/76
f 19/77/75 22/78/76 20/79/77
f 20/79/77 22/78/76 21/80/78
f 54/81/79 104/82/80 53/83/81
f 53/83/81 104/82/80 79/84/82
f 53/85/81 79/86/82 78/87/83
f 78/87/83 79/86/82 80/88/84
f 78/87/83 80/88/84 81/89/85
f 54/81/79 55/90/86 104/82/80
f 104/82/80 55/90/86 103/91/87
f 103/91/87 55/90/86 56/92/88
f 103/91/87 56/92/88 102/93/89
f 102/93/89 56/92/88 57/94/90
f 102/93/89 57/94/90 101/95/91
f 101/95/91 57/94/90 58/96/92
f 101/95/91 58/96/92 100/97/93
f 100/97/93 58/96/92 59/98/94
f 100/97/93 59/98/94 99/99/95
f 99/99/95 59/98/94 60/100/96
f 99/99/95 60/100/96 98/101/97
f 98/101/97 60/100/96 61/102/98
f 98/101/97 61/102/98 97/103/99
f 97/103/99 61/102/98 62/104/100
f 97/103/99 62/104/100 96/105/101
f 96/105/101 62/104/100 63/106/102
f 96/105/101 63/106/102 95/107/103
f 95/107/103 63/106/102 64/108/104
f 95/107/103 64/108/104 94/109/105
f 94/109/105 64/108/104 65/110/106
f 94/109/105 65/110/106 93/111/107
f 93/111/107 65/110/106 66/112/108
f 93/111/107 66/112/108 92/113/109
f 92/113/109 66/112/108 67/114/110
f 92/113/109 67/114/110 91/115/111
f 91/115/111 67/114/110 68/116/112
f 91/115/111 68/116/112 90/117/113
f 90/117/113 68/116/112 69/118/114
f 90/117/113 69/118/114 89/119/115
f 89/119/115 69/118/114 70/120/116
f 89/119/115 70/120/116 88/121/117
f 88/121/117 70/120/116 71/122/118
f 88/121/117 71/122/118 87/123/119
f 87/123/119 71/122/118 72/124/120
f 87/123/119 72/124/120 86/125/121
f 86/125/121 72/124/120 73/126/122
f 86/125/121 73/126/122 85/127/123
f 85/127/123 73/126/122 74/128/124
f 85/127/123 74/128/124 84/129/125
f 84/129/125 74/128/124 75/130/126
f 84/129/125 75/130/126 83/131/127
f 83/131/127 75/130/126 76/132/128
f 83/131/127 76/132/128 82/133/129
f 82/133/129 76/132/128 77/134/130
f 82/133/129 77/134/130 81/89/85
f 81/89/85 77/134/130 78/87/83
f 78/135/131 67/136/132 53/137/133
f 53/137/133 67/136/132 66/138/134
f 53/137/133 66/138/134 54/139/135
f 54/139/135 66/138/134 65/140/136
f 54/139/135 65/140/136 55/141/137
f 55/141/137 65/140/136 64/142/138
f 55/141/137 64/142/138 56/143/139
f 56/143/139 64/142/138 63/144/140
f 56/143/139 63/144/140 57/145/141
f 57/145/141 63/144/140 62/146/142
f 57/145/141 62/146/142 58/147/143
f 58/147/143 62/146/142 61/148/144
f 58/147/143 61/148/144 59/149/145
f 59/149/145 61/148/144 60/150/146
f 67/136/132 78/135/131 68/151/147
f 68/151/147 78/135/131 77/152/148
f 68/151/147 77/152/148 69/153/149
f 69/153/149 77/152/148 76/154/150
f 69/153/149 76/154/150 70/155/151
f 70/155/151 76/154/150 75/156/152
f 70/155/151 75/156/152 71/157/153
f 71/157/153 75/156/152 74/158/154
f 71/157/153 74/158/154 72/159/155
f 72/159/155 74/158/154 73/160/156
f 105/161/157 106/162/158 132/163/159
f 132/163/159 106/162/158 107/164/160
f 132/163/159 107/164/160 131/165/161
f 131/165/161 107/164/160 108/166/162
f 131/165/161 108/166/162 130/167/163
f 130/167/163 108/166/162 129/168/164
f 129/168/164 108/166/162 109/169/165
f 129/168/164 109/169/165 128/170/166
f 128/170/166 109/169/165 127/171/167
f 127/171/167 109/169/165 110/172/168
f 127/171/167 110/172/168 126/173/169
f 126/173/169 110/172/168 111/174/170
f 126/173/169 111/174/170 125/175/171
f 125/175/171 111/174/170 124/176/172
f 124/176/172 111/174/170 112/177/173
f 124/176/172 112/177/173 123/178/174
f 123/178/174 112/177/173 113/179/175
f 123/178/174 113/179/175 122/180/176
f 122/180/176 113/179/175 121/181/177
f 121/181/177 113/179/175 114/182/178
f 121/181/177 114/182/178 120/183/179
f 120/183/179 114/182/178 119/184/180
f 119/184/180 114/182/178 115/185/181
f 119/184/180 115/185/181 118/186/182
f 118/186/182 115/185/181 116/187/183
f 118/186/182 116/187/183 117/188/184
f 133/189/185 134/190/186 160/191/187
f 160/191/187 134/190/186 135/192/188
f 160/191/187 135/192/188 159/193/189
f 159/193/189 135/192/188 136/194/190
f 159/193/189 136/194/190 158/195/191
f 158/195/191 136/194/190 157/196/192
f 157/196/192 136/194/190 137/197/193
f 157/196/192 137/197/193 156/198/194
f 156/198/194 137/197/193 155/199/195
f 155/199/195 137/197/193 138/200/196
f 155/199/195 138/200/196 154/201/197
f 154/201/197 138/200/196 139/202/198
f 154/201/197 139/202/198 153/203/199
f 153/203/199 139/202/198 152/204/200
f 152/204/200 139/202/198 140/205/201
f 152/204/200 140/205/201 151/206/202
f 151/206/202 140/205/201 141/207/203
f 151/206/202 141/207/203 150/208/204
f 150/208/204 141/207/203 149/209/205
f 149/209/205 141/207/203 142/210/206
f 149/209/205 142/210/206 148/211/207
f 148/211/207 142/210/206 147/212/208
f 147/212/208 142/210/206 143/213/209
f 147/212/208 143/213/209 146/214/210
f 146/214/210 143/213/209 144/215/211
f 146/214/210 144/215/211 145/216/212
f 161/217/213 133/218/185 177/219/214
f 177/219/214 133/218/185 160/220/215
f 177/219/214 160/220/215 176/221/216
f 176/221/216 160/220/215 159/222/217
f 176/221/216 159/222/217 175/223/218
f 175/223/218 159/222/217 158/224/219
f 175/223/218 158/224/219 174/225/220
f 174/225/220 158/224/219 157/226/221
f 174/225/220 157/226/221 173/227/222
f 173/227/222 157/226/221 156/228/223
f 173/227/222 156/228/223 172/229/224
f 172/229/224 156/228/223 155/230/225
f 172/229/224 155/230/225 171/231/226
f 171/231/226 155/230/225 154/232/227
f 171/231/226 154/232/227 170/233/228
f 170/233/228 154/232/227 153/234/229
f 170/233/228 153/234/229 169/235/230
f 169/235/230 153/234/229 152/236/231
f 169/235/230 152/236/231 168/237/232
f 168/237/232 152/236/231 151/238/233
f 168/237/232 151/238/233 167/239/234
f 167/239/234 151/238/233 150/240/235
f 167/239/234 150/240/235 166/241/236
f 166/241/236 150/240/235 149/242/237
f 166/241/236 149/242/237 165/243/238
f 165/243/238 149/242/237 148/244/239
f 165/243/238 148/244/239 164/245/240
f 164/245/240 148/244/239 147/246/241
f 164/245/240 147/246/241 163/247/242
f 163/247/242 147/246/241 146/248/243
f 163/247/242 146/248/243 162/249/244
f 162/249/244 146/248/243 145/250/245
f 178/251/246 161/252/247 194/253/248
f 194/253/248 161/252/247 195/254/249
f 194/253/248 195/254/249 193/255/250
f 193/255/250 195/254/249 196/256/251
f 193/255/250 196/256/251 192/257/252
f 192/257/252 196/256/251 191/258/253
f 191/258/253 196/256/251 197/259/254
f 191/258/253 197/259/254 190/260/255
f 190/260/255 197/259/254 189/261/256
f 189/261/256 197/259/254 198/262/257
f 189/261/256 198/262/257 188/263/258
f 188/263/258 198/262/257 199/264/259
f 188/263/258 199/264/259 187/265/260
f 187/265/260 199/264/259 186/266/261
f 186/266/261 199/264/259 200/267/262
f 186/266/261 200/267/262 185/268/263
f 185/268/263 200/267/262 201/269/264
f 185/268/263 201/269/264 184/270/265
f 184/270/265 201/269/264 183/271/266
f 183/271/266 201/269/264 202/272/267
f 183/271/266 202/272/267 182/273/268
f 182/273/268 202/272/267 181/274/269
f 181/274/269 202/272/267 203/275/270
f 181/274/269 203/275/270 180/276/271
f 180/276/271 203/275/270 179/277/272
f 179/277/272 203/275/270 163/278/273
f 179/277/272 163/278/273 162/279/244
f 161/252/247 177/280/274 195/254/249
f 195/254/249 177/280/274 176/281/275
f 195/254/249 176/281/275 196/256/251
f 196/256/251 176/281/275 175/282/276
f 196/256/251 175/282/276 174/283/277
f 196/256/251 174/283/277 197/259/254
f 197/259/254 174/283/277 173/284/278
f 197/259/254 173/284/278 172/285/279
f 197/259/254 172/285/279 198/262/257
f 198/262/257 172/285/279 171/286/280
f 198/262/257 171/286/280 199/264/259
f 199/264/259 171/286/280 170/287/281
f 199/264/259 170/287/281 169/288/282
f 199/264/259 169/288/282 200/267/262
f 200/267/262 169/288/282 168/289/283
f 200/267/262 168/289/283 201/269/264
f 201/269/264 168/289/283 167/290/284
f 201/269/264 167/290/284 166/291/285
f 201/269/264 166/291/285 202/272/267
f 202/272/267 166/291/285 165/292/286
f 202/272/267 165/292/286 164/293/287
f 202/272/267 164/293/287 203/275/270
f 203/275/270 164/293/287 163/278/273
f 178/294/288 194/295/289 117/296/184
f 117/296/184 194/295/289 118/297/290
f 118/297/290 194/295/289 193/298/291
f 118/297/290 193/298/291 119/299/292
f 119/299/292 193/298/291 192/300/293
f 119/299/292 192/300/293 120/301/294
f 120/301/294 192/300/293 191/302/295
f 120/301/294 191/302/295 121/303/296
f 121/303/296 191/302/295 190/304/297
f 121/303/296 190/304/297 122/305/298
f 122/305/298 190/304/297 189/306/299
f 122/305/298 189/306/299 123/307/300
f 123/307/300 189/306/299 188/308/301
f 123/307/300 188/308/301 124/309/302
f 124/309/302 188/308/301 187/310/303
f 124/309/302 187/310/303 125/311/304
f 125/311/304 187/310/303 186/312/305
f 125/311/304 186/312/305 126/313/306
f 126/313/306 186/312/305 185/314/307
f 126/313/306 185/314/307 127/315/308
f 127/315/308 185/314/307 184/316/309
f 127/315/308 184/316/309 128/317/310
f 128/317/310 184/316/309 183/318/311
f 128/317/310 183/318/311 129/319/312
f 129/319/312 183/318/311 182/320/313
f 129/319/312 182/320/313 130/321/314
f 130/321/314 182/320/313 181/322/315
f 130/321/314 181/322/315 131/323/316
f 131/323/316 181/322/315 180/324/317
f 131/323/316 180/324/317 132/325/318
f 132/325/318 180/324/317 179/326/272
f 132/325/318 179/326/272 105/327/319
f 105/328/319 179/329/272 145/330/245
f 145/330/245 179/329/272 162/331/244
f 115/332/320 106/333/321 116/334/322
f 116/334/322 106/333/321 134/335/323
f 116/334/322 134/335/323 205/336/324
f 205/336/324 134/335/323 204/337/325
f 115/332/320 114/338/326 106/333/321
f 106/333/321 114/338/326 113/339/327
f 106/333/321 113/339/327 112/340/328
f 112/340/328 111/341/329 106/333/321
f 106/333/321 111/341/329 110/342/330
f 106/333/321 110/342/330 109/343/331
f 109/343/331 108/344/332 106/333/321
f 106/333/321 108/344/332 107/345/333
f 106/333/321 144/346/334 134/335/323
f 134/335/323 144/346/334 135/347/335
f 135/347/335 144/346/334 136/348/336
f 136/348/336 144/346/334 137/349/337
f 137/349/337 144/346/334 138/350/338
f 138/350/338 144/346/334 139/351/339
f 139/351/339 144/346/334 140/352/340
f 140/352/340 144/346/334 141/353/341
f 141/353/341 144/346/334 142/354/342
f 142/354/342 144/346/334 143/355/343
f 52/356/344 145/357/212 27/358/345
f 27/358/345 145/357/212 144/359/211
f 27/358/345 144/359/211 28/360/346
f 28/360/346 144/359/211 29/361/347
f 29/361/347 144/359/211 30/362/348
f 30/362/348 144/359/211 31/363/349
f 31/363/349 144/359/211 32/364/350
f 32/364/350 144/359/211 33/365/351
f 33/365/351 144/359/211 34/366/352
f 34/366/352 144/359/211 35/367/353
f 35/367/353 144/359/211 106/368/158
f 35/367/353 106/368/158 84/369/354
f 84/369/354 106/368/158 85/370/355
f 85/370/355 106/368/158 86/371/356
f 86/371/356 106/368/158 87/372/357
f 87/372/357 106/368/158 88/373/358
f 88/373/358 106/368/158 89/374/359
f 89/374/359 106/368/158 90/375/360
f 90/375/360 106/368/158 91/376/361
f 91/376/361 106/368/158 92/377/362
f 92/377/362 106/368/158 105/378/157
f 92/377/362 105/378/157 93/379/363
f 93/379/363 105/378/157 94/380/364
f 94/380/364 105/378/157 95/381/365
f 95/381/365 105/378/157 96/382/366
f 96/382/366 105/378/157 97/383/367
f 97/383/367 105/378/157 98/384/368
f 98/384/368 105/378/157 99/385/369
f 99/385/369 105/378/157 100/386/370
f 100/386/370 105/378/157 145/357/212
f 100/386/370 145/357/212 45/387/371
f 45/387/371 145/357/212 46/388/372
f 46/388/372 145/357/212 47/389/373
f 47/389/373 145/357/212 48/390/374
f 48/390/374 145/357/212 49/391/375
f 49/391/375 145/357/212 50/392/376
f 50/392/376 145/357/212 51/393/377
f 51/393/377 145/357/212 52/356/344
f 100/386/370 45/387/371 101/394/378
f 101/394/378 45/387/371 44/395/379
f 101/394/378 44/395/379 102/396/380
f 102/396/380 44/395/379 43/397/381
f 102/396/380 43/397/381 103/398/382
f 103/398/382 43/397/381 42/399/383
f 103/398/382 42/399/383 104/400/384
f 104/400/384 42/399/383 41/401/385
f 104/400/384 41/401/385 79/402/386
f 79/402/386 41/401/385 40/403/387
f 79/402/386 40/403/387 80/404/388
f 80/404/388 40/403/387 39/405/389
f 80/404/388 39/405/389 81/406/390
f 81/406/390 39/405/389 38/407/391
f 81/406/390 38/407/391 82/408/392
f 82/408/392 38/407/391 37/409/393
f 82/408/392 37/409/393 83/410/394
f 83/410/394 37/409/393 36/411/395
f 83/410/394 36/411/395 84/369/354
f 84/369/354 36/411/395 35/367/353
f 133/412/185 161/413/213 134/414/186
f 134/414/186 161/413/213 204/415/396
f 161/416/247 178/417/246 204/418/397
f 204/418/397 178/417/246 205/419/398
f 116/420/183 205/421/399 117/422/184
f 117/422/184 205/421/399 178/423/288
# 205 vertices
# 423 texture params
# 399 normals
# 406 facets

# 1 groups
