# WaveFront *.obj file (generated by Autodesk ATF)

mtllib base_link_visual.mtl

g base_link

v 11.000000 -17.000000 2.500000
v 10.909539 -17.000000 1.986970
v 10.649067 -17.000000 1.535819
v 10.250000 -17.000000 1.200962
v 9.760472 -17.000000 1.022788
v 9.239528 -17.000000 1.022788
v 8.750000 -17.000000 1.200962
v 8.350933 -17.000000 1.535819
v 8.090461 -17.000000 1.986970
v 8.000000 -17.000000 2.500000
v 8.090461 -17.000000 3.013030
v 8.350933 -17.000000 3.464181
v 8.750000 -17.000000 3.799038
v 9.239528 -17.000000 3.977212
v 9.760472 -17.000000 3.977212
v 10.250000 -17.000000 3.799038
v 10.649067 -17.000000 3.464181
v 10.909539 -17.000000 3.013030
v 11.000000 -15.000000 2.500000
v 10.909539 -15.000000 3.013030
v 10.649067 -15.000000 3.464181
v 10.250000 -15.000000 3.799038
v 9.760472 -15.000000 3.977212
v 9.239528 -15.000000 3.977212
v 8.750000 -15.000000 3.799038
v 8.350933 -15.000000 3.464181
v 8.090461 -15.000000 3.013030
v 8.000000 -15.000000 2.500000
v 8.090461 -15.000000 1.986970
v 8.350933 -15.000000 1.535819
v 8.750000 -15.000000 1.200962
v 9.239528 -15.000000 1.022788
v 9.760472 -15.000000 1.022788
v 10.250000 -15.000000 1.200962
v 10.649067 -15.000000 1.535819
v 10.909539 -15.000000 1.986970
v 11.000000 17.000000 2.500000
v 10.909539 17.000000 3.013030
v 10.649067 17.000000 3.464181
v 10.250000 17.000000 3.799038
v 9.760472 17.000000 3.977212
v 9.239528 17.000000 3.977212
v 8.750000 17.000000 3.799038
v 8.350933 17.000000 3.464181
v 8.090461 17.000000 3.013030
v 8.000000 17.000000 2.500000
v 8.090461 17.000000 1.986970
v 8.350933 17.000000 1.535819
v 8.750000 17.000000 1.200962
v 9.239528 17.000000 1.022788
v 9.760472 17.000000 1.022788
v 10.250000 17.000000 1.200962
v 10.649067 17.000000 1.535819
v 10.909539 17.000000 1.986970
v 11.000000 15.000000 2.500000
v 10.909539 15.000000 1.986970
v 10.649067 15.000000 1.535819
v 10.250000 15.000000 1.200962
v 9.760472 15.000000 1.022788
v 9.239528 15.000000 1.022788
v 8.750000 15.000000 1.200962
v 8.350933 15.000000 1.535819
v 8.090461 15.000000 1.986970
v 8.000000 15.000000 2.500000
v 8.090461 15.000000 3.013030
v 8.350933 15.000000 3.464181
v 8.750000 15.000000 3.799038
v 9.239528 15.000000 3.977212
v 9.760472 15.000000 3.977212
v 10.250000 15.000000 3.799038
v 10.649067 15.000000 3.464181
v 10.909539 15.000000 3.013030
v -11.000000 -15.000000 2.500000
v -10.909539 -15.000000 3.013030
v -10.649067 -15.000000 3.464181
v -10.250000 -15.000000 3.799038
v -9.760472 -15.000000 3.977212
v -9.239528 -15.000000 3.977212
v -8.750000 -15.000000 3.799038
v -8.350933 -15.000000 3.464181
v -8.090461 -15.000000 3.013030
v -8.000000 -15.000000 2.500000
v -8.090461 -15.000000 1.986970
v -8.350933 -15.000000 1.535819
v -8.750000 -15.000000 1.200962
v -9.239528 -15.000000 1.022788
v -9.760472 -15.000000 1.022788
v -10.250000 -15.000000 1.200962
v -10.649067 -15.000000 1.535819
v -10.909539 -15.000000 1.986970
v -22.500000 -15.000000 10.000000
v -22.500000 -15.000000 0.000000
v 22.500000 -15.000000 0.000000
v 22.500000 -15.000000 10.000000
v -11.000000 15.000000 2.500000
v -10.909539 15.000000 1.986970
v -10.649067 15.000000 1.535819
v -10.250000 15.000000 1.200962
v -9.760472 15.000000 1.022788
v -9.239528 15.000000 1.022788
v -8.750000 15.000000 1.200962
v -8.350933 15.000000 1.535819
v -8.090461 15.000000 1.986970
v -8.000000 15.000000 2.500000
v -8.090461 15.000000 3.013030
v -8.350933 15.000000 3.464181
v -8.750000 15.000000 3.799038
v -9.239528 15.000000 3.977212
v -9.760472 15.000000 3.977212
v -10.250000 15.000000 3.799038
v -10.649067 15.000000 3.464181
v -10.909539 15.000000 3.013030
v -22.500000 15.000000 0.000000
v -22.500000 15.000000 10.000000
v 22.500000 15.000000 10.000000
v 22.500000 15.000000 0.000000
v 24.741152 -0.859913 11.000000
v 24.694261 -1.034913 11.000000
v 24.566152 -1.163022 11.000000
v 24.391152 -1.209913 11.000000
v 24.391152 -1.209913 10.000000
v 24.566152 -1.163022 10.000000
v 24.694261 -1.034913 10.000000
v 24.741152 -0.859913 10.000000
v 11.125369 -8.597504 7.000000
v 19.125369 -8.597504 7.000000
v 19.125369 -12.097504 7.000000
v 11.125369 -12.097504 7.000000
v 19.125369 8.597504 7.000000
v 11.125369 8.597504 7.000000
v 11.125369 12.097504 7.000000
v 19.125369 12.097504 7.000000
v -19.125369 -8.597504 7.000000
v -11.125369 -8.597504 7.000000
v -11.125369 -12.097504 7.000000
v -19.125369 -12.097504 7.000000
v -11.125369 8.597504 7.000000
v -19.125369 8.597504 7.000000
v -19.125369 12.097504 7.000000
v -11.125369 12.097504 7.000000
v 19.125369 -12.097504 0.000000
v 11.125369 -12.097504 0.000000
v 11.125369 -8.597504 0.000000
v 19.125369 -8.597504 0.000000
v 19.125369 8.597504 0.000000
v 11.125369 8.597504 0.000000
v 11.125369 12.097504 0.000000
v 19.125369 12.097504 0.000000
v -19.125369 -8.597504 0.000000
v -11.125369 -8.597504 0.000000
v -11.125369 -12.097504 0.000000
v -19.125369 -12.097504 0.000000
v -19.125369 12.097504 0.000000
v -11.125369 12.097504 0.000000
v -11.125369 8.597504 0.000000
v -19.125369 8.597504 0.000000
v -25.000000 12.500000 0.000000
v 25.000000 12.500000 0.000000
v 25.000000 -12.500000 0.000000
v -25.000000 -12.500000 0.000000
v -20.000000 -12.500000 12.500000
v 20.000000 -12.500000 12.500000
v 20.000000 12.500000 12.500000
v -20.000000 12.500000 12.500000
v 25.000000 12.500000 10.000000
v 25.000000 -12.500000 10.000000
v -25.000000 -12.500000 10.000000
v -25.000000 12.500000 10.000000
v -20.000000 -12.500000 10.000000
v 20.000000 -12.500000 10.000000
v 20.000000 12.500000 10.000000
v -20.000000 12.500000 10.000000
v 22.258848 1.209913 10.000000
v 22.258848 -1.209913 10.000000
v 22.258848 -1.209913 11.000000
v 22.258848 1.209913 11.000000
v 24.391152 1.209913 11.000000
v 24.391152 1.209913 10.000000
v 24.566152 1.163022 11.000000
v 24.694261 1.034913 11.000000
v 24.741152 0.859913 11.000000
v 24.741152 0.859913 10.000000
v 24.694261 1.034913 10.000000
v 24.566152 1.163022 10.000000
v -11.000000 17.000000 2.500000
v -10.909539 17.000000 1.986970
v -10.649067 17.000000 1.535819
v -10.250000 17.000000 1.200962
v -9.760472 17.000000 1.022788
v -9.239528 17.000000 1.022788
v -8.750000 17.000000 1.200962
v -8.350933 17.000000 1.535819
v -8.090461 17.000000 1.986970
v -8.000000 17.000000 2.500000
v -8.090461 17.000000 3.013030
v -8.350933 17.000000 3.464181
v -8.750000 17.000000 3.799038
v -9.239528 17.000000 3.977212
v -9.760472 17.000000 3.977212
v -10.250000 17.000000 3.799038
v -10.649067 17.000000 3.464181
v -10.909539 17.000000 3.013030
v -11.000000 -17.000000 2.500000
v -10.909539 -17.000000 3.013030
v -10.649067 -17.000000 3.464181
v -10.250000 -17.000000 3.799038
v -9.760472 -17.000000 3.977212
v -9.239528 -17.000000 3.977212
v -8.750000 -17.000000 3.799038
v -8.350933 -17.000000 3.464181
v -8.090461 -17.000000 3.013030
v -8.000000 -17.000000 2.500000
v -8.090461 -17.000000 1.986970
v -8.350933 -17.000000 1.535819
v -8.750000 -17.000000 1.200962
v -9.239528 -17.000000 1.022788
v -9.760472 -17.000000 1.022788
v -10.250000 -17.000000 1.200962
v -10.649067 -17.000000 1.535819
v -10.909539 -17.000000 1.986970
v 23.741152 -0.209913 9.000000
v 23.741152 0.209913 9.000000
v 23.258848 0.209913 9.000000
v 23.258848 -0.209913 9.000000
v -19.000000 11.500000 9.000000
v -19.000000 -11.500000 9.000000
v 19.000000 -11.500000 9.000000
v 19.000000 11.500000 9.000000
v 24.000000 12.085786 9.000000
v 24.000000 -12.085786 9.000000
v 22.085786 -14.000000 9.000000
v -22.085786 -14.000000 9.000000
v -24.000000 -12.085786 9.000000
v -24.000000 12.085786 9.000000
v -22.085786 14.000000 9.000000
v 22.085786 14.000000 9.000000
v 23.741152 0.209913 10.000000
v 23.258848 0.209913 10.000000
v 23.741152 -0.209913 10.000000
v 23.258848 -0.209913 10.000000
v 10.000000 -16.000000 2.500000
v 9.933013 -16.000000 2.750000
v 9.750000 -16.000000 2.933013
v 9.500000 -16.000000 3.000000
v 9.250000 -16.000000 2.933013
v 9.066987 -16.000000 2.750000
v 9.000000 -16.000000 2.500000
v 9.066987 -16.000000 2.250000
v 9.250000 -16.000000 2.066987
v 9.500000 -16.000000 2.000000
v 9.750000 -16.000000 2.066987
v 9.933013 -16.000000 2.250000
v 10.000000 -14.000000 2.500000
v 9.933013 -14.000000 2.250000
v 9.750000 -14.000000 2.066987
v 9.500000 -14.000000 2.000000
v 9.250000 -14.000000 2.066987
v 9.066987 -14.000000 2.250000
v 9.000000 -14.000000 2.500000
v 9.066987 -14.000000 2.750000
v 9.250000 -14.000000 2.933013
v 9.500000 -14.000000 3.000000
v 9.750000 -14.000000 2.933013
v 9.933013 -14.000000 2.750000
v 10.000000 16.000000 2.500000
v 9.933013 16.000000 2.250000
v 9.750000 16.000000 2.066987
v 9.500000 16.000000 2.000000
v 9.250000 16.000000 2.066987
v 9.066987 16.000000 2.250000
v 9.000000 16.000000 2.500000
v 9.066987 16.000000 2.750000
v 9.250000 16.000000 2.933013
v 9.500000 16.000000 3.000000
v 9.750000 16.000000 2.933013
v 9.933013 16.000000 2.750000
v 10.000000 14.000000 2.500000
v 9.933013 14.000000 2.750000
v 9.750000 14.000000 2.933013
v 9.500000 14.000000 3.000000
v 9.250000 14.000000 2.933013
v 9.066987 14.000000 2.750000
v 9.000000 14.000000 2.500000
v 9.066987 14.000000 2.250000
v 9.250000 14.000000 2.066987
v 9.500000 14.000000 2.000000
v 9.750000 14.000000 2.066987
v 9.933013 14.000000 2.250000
v -10.000000 -14.000000 2.500000
v -9.933013 -14.000000 2.250000
v -9.750000 -14.000000 2.066987
v -9.500000 -14.000000 2.000000
v -9.250000 -14.000000 2.066987
v -9.066987 -14.000000 2.250000
v -9.000000 -14.000000 2.500000
v -9.066987 -14.000000 2.750000
v -9.250000 -14.000000 2.933013
v -9.500000 -14.000000 3.000000
v -9.750000 -14.000000 2.933013
v -9.933013 -14.000000 2.750000
v -22.085786 -14.000000 1.000000
v 22.085786 -14.000000 1.000000
v -10.000000 14.000000 2.500000
v -9.933013 14.000000 2.750000
v -9.750000 14.000000 2.933013
v -9.500000 14.000000 3.000000
v -9.250000 14.000000 2.933013
v -9.066987 14.000000 2.750000
v -9.000000 14.000000 2.500000
v -9.066987 14.000000 2.250000
v -9.250000 14.000000 2.066987
v -9.500000 14.000000 2.000000
v -9.750000 14.000000 2.066987
v -9.933013 14.000000 2.250000
v -22.085786 14.000000 1.000000
v 22.085786 14.000000 1.000000
v 20.125369 -7.597504 8.000000
v 10.125369 -7.597504 8.000000
v 10.125369 -13.097504 8.000000
v 20.125369 -13.097504 8.000000
v 10.125369 7.597504 8.000000
v 20.125369 7.597504 8.000000
v 20.125369 13.097504 8.000000
v 10.125369 13.097504 8.000000
v -10.125369 -7.597504 8.000000
v -20.125369 -7.597504 8.000000
v -20.125369 -13.097504 8.000000
v -10.125369 -13.097504 8.000000
v -20.125369 7.597504 8.000000
v -10.125369 7.597504 8.000000
v -10.125369 13.097504 8.000000
v -20.125369 13.097504 8.000000
v 10.125369 -13.097504 1.000000
v 20.125369 -13.097504 1.000000
v 10.125369 -7.597504 1.000000
v 20.125369 -7.597504 1.000000
v 10.125369 7.597504 1.000000
v 20.125369 7.597504 1.000000
v 10.125369 13.097504 1.000000
v 20.125369 13.097504 1.000000
v -10.125369 -7.597504 1.000000
v -20.125369 -7.597504 1.000000
v -10.125369 -13.097504 1.000000
v -20.125369 -13.097504 1.000000
v -10.125369 13.097504 1.000000
v -20.125369 13.097504 1.000000
v -10.125369 7.597504 1.000000
v -20.125369 7.597504 1.000000
v -24.000000 12.085786 1.000000
v -24.000000 -12.085786 1.000000
v 24.000000 -12.085786 1.000000
v 24.000000 12.085786 1.000000
v 19.000000 -11.500000 11.500000
v -19.000000 -11.500000 11.500000
v -19.000000 11.500000 11.500000
v 19.000000 11.500000 11.500000
v -10.000000 16.000000 2.500000
v -9.933013 16.000000 2.750000
v -9.750000 16.000000 2.933013
v -9.500000 16.000000 3.000000
v -9.250000 16.000000 2.933013
v -9.066987 16.000000 2.750000
v -9.000000 16.000000 2.500000
v -9.066987 16.000000 2.250000
v -9.250000 16.000000 2.066987
v -9.500000 16.000000 2.000000
v -9.750000 16.000000 2.066987
v -9.933013 16.000000 2.250000
v -10.000000 -16.000000 2.500000
v -9.933013 -16.000000 2.250000
v -9.750000 -16.000000 2.066987
v -9.500000 -16.000000 2.000000
v -9.250000 -16.000000 2.066987
v -9.066987 -16.000000 2.250000
v -9.000000 -16.000000 2.500000
v -9.066987 -16.000000 2.750000
v -9.250000 -16.000000 2.933013
v -9.500000 -16.000000 3.000000
v -9.750000 -16.000000 2.933013
v -9.933013 -16.000000 2.750000
vt 2.000000 -4.188790 0.000000
vt -0.000000 -4.188790 0.000000
vt 2.000000 -4.712389 0.000000
vt -0.000000 -4.712389 0.000000
vt 2.000000 4.712389 0.000000
vt -0.000000 4.712389 0.000000
vt 2.000000 4.188790 0.000000
vt -0.000000 4.188790 0.000000
vt 2.000000 3.665191 0.000000
vt -0.000000 3.665191 0.000000
vt 2.000000 3.141593 0.000000
vt -0.000000 3.141593 0.000000
vt 2.000000 2.617994 0.000000
vt -0.000000 2.617994 0.000000
vt 2.000000 2.094395 0.000000
vt -0.000000 2.094395 0.000000
vt 2.000000 1.570796 0.000000
vt -0.000000 1.570796 0.000000
vt 2.000000 1.047198 0.000000
vt -0.000000 1.047198 0.000000
vt 2.000000 0.523599 0.000000
vt -0.000000 0.523599 0.000000
vt 2.000000 0.000000 0.000000
vt -0.000000 0.000000 0.000000
vt 2.000000 -0.523599 0.000000
vt -0.000000 -0.523599 0.000000
vt 2.000000 -1.047198 0.000000
vt -0.000000 -1.047198 0.000000
vt 2.000000 -1.570796 0.000000
vt -0.000000 -1.570796 0.000000
vt 2.000000 -2.094395 0.000000
vt -0.000000 -2.094395 0.000000
vt 2.000000 -2.617994 0.000000
vt -0.000000 -2.617994 0.000000
vt 2.000000 -3.141593 0.000000
vt -0.000000 -3.141593 0.000000
vt 2.000000 -3.665191 0.000000
vt -0.000000 -3.665191 0.000000
vt 1.409539 0.513030 0.000000
vt -1.409539 0.513030 0.000000
vt 1.500000 0.000000 0.000000
vt -1.500000 0.000000 0.000000
vt 1.409539 -0.513030 0.000000
vt -1.409539 -0.513030 0.000000
vt 1.149067 -0.964181 0.000000
vt -1.149067 -0.964181 0.000000
vt 0.750000 -1.299038 0.000000
vt -0.750000 -1.299038 0.000000
vt 0.260472 -1.477212 0.000000
vt -0.260472 -1.477212 0.000000
vt -1.149067 0.964181 0.000000
vt 1.149067 0.964181 0.000000
vt -0.750000 1.299038 0.000000
vt 0.750000 1.299038 0.000000
vt -0.260472 1.477212 0.000000
vt 0.260472 1.477212 0.000000
vt -2.000000 4.188790 0.000000
vt -0.000000 4.188790 0.000000
vt -2.000000 4.712389 0.000000
vt -0.000000 4.712389 0.000000
vt -2.000000 -4.712389 0.000000
vt -0.000000 -4.712389 0.000000
vt -2.000000 -4.188790 0.000000
vt -0.000000 -4.188790 0.000000
vt -2.000000 -3.665191 0.000000
vt -0.000000 -3.665191 0.000000
vt -2.000000 -3.141593 0.000000
vt -0.000000 -3.141593 0.000000
vt -2.000000 -2.617994 0.000000
vt -0.000000 -2.617994 0.000000
vt -2.000000 -2.094395 0.000000
vt -0.000000 -2.094395 0.000000
vt -2.000000 -1.570796 0.000000
vt -0.000000 -1.570796 0.000000
vt -2.000000 -1.047198 0.000000
vt -0.000000 -1.047198 0.000000
vt -2.000000 -0.523599 0.000000
vt -0.000000 -0.523599 0.000000
vt -2.000000 0.000000 0.000000
vt -0.000000 0.000000 0.000000
vt -2.000000 0.523599 0.000000
vt -0.000000 0.523599 0.000000
vt -2.000000 1.047198 0.000000
vt -0.000000 1.047198 0.000000
vt -2.000000 1.570796 0.000000
vt -0.000000 1.570796 0.000000
vt -2.000000 2.094395 0.000000
vt -0.000000 2.094395 0.000000
vt -2.000000 2.617994 0.000000
vt -0.000000 2.617994 0.000000
vt -2.000000 3.141593 0.000000
vt -0.000000 3.141593 0.000000
vt -2.000000 3.665191 0.000000
vt -0.000000 3.665191 0.000000
vt -1.409539 -0.513030 0.000000
vt 1.409539 -0.513030 0.000000
vt -1.500000 0.000000 0.000000
vt 1.500000 0.000000 0.000000
vt -1.409539 0.513030 0.000000
vt 1.409539 0.513030 0.000000
vt -1.149067 0.964181 0.000000
vt 1.149067 0.964181 0.000000
vt -0.750000 1.299038 0.000000
vt 0.750000 1.299038 0.000000
vt -0.260472 1.477212 0.000000
vt 0.260472 1.477212 0.000000
vt 1.149067 -0.964181 0.000000
vt -1.149067 -0.964181 0.000000
vt 0.750000 -1.299038 0.000000
vt -0.750000 -1.299038 0.000000
vt 0.260472 -1.477212 0.000000
vt -0.260472 -1.477212 0.000000
vt 14.090461 1.986970 0.000000
vt 14.000000 2.500000 0.000000
vt 2.500000 0.000000 0.000000
vt 14.090461 3.013030 0.000000
vt 14.350933 3.464181 0.000000
vt 2.500000 10.000000 0.000000
vt 14.750000 3.799038 0.000000
vt 15.239528 3.977212 0.000000
vt 15.760472 3.977212 0.000000
vt 34.239528 3.977212 0.000000
vt 47.500000 10.000000 0.000000
vt 34.760472 3.977212 0.000000
vt 35.250000 3.799038 0.000000
vt 33.750000 3.799038 0.000000
vt 16.250000 3.799038 0.000000
vt 33.350933 3.464181 0.000000
vt 16.649067 3.464181 0.000000
vt 33.090461 3.013030 0.000000
vt 16.909539 3.013030 0.000000
vt 33.000000 2.500000 0.000000
vt 17.000000 2.500000 0.000000
vt 33.090461 1.986970 0.000000
vt 16.909539 1.986970 0.000000
vt 33.350933 1.535819 0.000000
vt 16.649067 1.535819 0.000000
vt 33.750000 1.200962 0.000000
vt 16.250000 1.200962 0.000000
vt 34.239528 1.022788 0.000000
vt 15.760472 1.022788 0.000000
vt 47.500000 0.000000 0.000000
vt 15.239528 1.022788 0.000000
vt 14.750000 1.200962 0.000000
vt 14.350933 1.535819 0.000000
vt 35.909539 3.013030 0.000000
vt 36.000000 2.500000 0.000000
vt 35.909539 1.986970 0.000000
vt 35.649067 1.535819 0.000000
vt 35.250000 1.200962 0.000000
vt 34.760472 1.022788 0.000000
vt 35.649067 3.464181 0.000000
vt 35.909539 3.013030 0.000000
vt 36.000000 2.500000 0.000000
vt 47.500000 0.000000 0.000000
vt 35.909539 1.986970 0.000000
vt 35.649067 1.535819 0.000000
vt 35.250000 1.200962 0.000000
vt 34.760472 1.022788 0.000000
vt 34.239528 1.022788 0.000000
vt 33.750000 1.200962 0.000000
vt 16.250000 1.200962 0.000000
vt 15.760472 1.022788 0.000000
vt 2.500000 0.000000 0.000000
vt 15.239528 1.022788 0.000000
vt 14.750000 1.200962 0.000000
vt 16.649067 1.535819 0.000000
vt 33.350933 1.535819 0.000000
vt 16.909539 1.986970 0.000000
vt 33.090461 1.986970 0.000000
vt 17.000000 2.500000 0.000000
vt 33.000000 2.500000 0.000000
vt 16.909539 3.013030 0.000000
vt 33.090461 3.013030 0.000000
vt 16.649067 3.464181 0.000000
vt 33.350933 3.464181 0.000000
vt 16.250000 3.799038 0.000000
vt 33.750000 3.799038 0.000000
vt 15.760472 3.977212 0.000000
vt 34.239528 3.977212 0.000000
vt 2.500000 10.000000 0.000000
vt 47.500000 10.000000 0.000000
vt 34.760472 3.977212 0.000000
vt 35.250000 3.799038 0.000000
vt 35.649067 3.464181 0.000000
vt 14.090461 1.986970 0.000000
vt 14.000000 2.500000 0.000000
vt 14.090461 3.013030 0.000000
vt 14.350933 3.464181 0.000000
vt 14.750000 3.799038 0.000000
vt 15.239528 3.977212 0.000000
vt 14.350933 1.535819 0.000000
vt -0.000000 0.274889 0.000000
vt -1.000000 0.274889 0.000000
vt -0.000000 0.091630 0.000000
vt -1.000000 0.091630 0.000000
vt -0.000000 -0.091630 0.000000
vt -1.000000 -0.091630 0.000000
vt -0.000000 -0.274889 0.000000
vt -1.000000 -0.274889 0.000000
vt 4.000000 1.750000 0.000000
vt -4.000000 1.750000 0.000000
vt 4.000000 -1.750000 0.000000
vt -4.000000 -1.750000 0.000000
vt 4.000000 1.750000 0.000000
vt -4.000000 1.750000 0.000000
vt 4.000000 -1.750000 0.000000
vt -4.000000 -1.750000 0.000000
vt 4.000000 1.750000 0.000000
vt -4.000000 1.750000 0.000000
vt 4.000000 -1.750000 0.000000
vt -4.000000 -1.750000 0.000000
vt 4.000000 1.750000 0.000000
vt -4.000000 1.750000 0.000000
vt 4.000000 -1.750000 0.000000
vt -4.000000 -1.750000 0.000000
vt -8.000000 0.000000 0.000000
vt -0.000000 0.000000 0.000000
vt -8.000000 7.000000 0.000000
vt -0.000000 7.000000 0.000000
vt -3.500000 0.000000 0.000000
vt -0.000000 0.000000 0.000000
vt -3.500000 7.000000 0.000000
vt -0.000000 7.000000 0.000000
vt -8.000000 0.000000 0.000000
vt -0.000000 0.000000 0.000000
vt -8.000000 7.000000 0.000000
vt -0.000000 7.000000 0.000000
vt -3.500000 0.000000 0.000000
vt -0.000000 0.000000 0.000000
vt -3.500000 7.000000 0.000000
vt -0.000000 7.000000 0.000000
vt 0.000000 0.000000 0.000000
vt 8.000000 0.000000 0.000000
vt 0.000000 7.000000 0.000000
vt 8.000000 7.000000 0.000000
vt 0.000000 0.000000 0.000000
vt 3.500000 0.000000 0.000000
vt 0.000000 7.000000 0.000000
vt 3.500000 7.000000 0.000000
vt 0.000000 0.000000 0.000000
vt 8.000000 0.000000 0.000000
vt 0.000000 7.000000 0.000000
vt 8.000000 7.000000 0.000000
vt 0.000000 0.000000 0.000000
vt 3.500000 0.000000 0.000000
vt 0.000000 7.000000 0.000000
vt 3.500000 7.000000 0.000000
vt -38.250738 0.000000 0.000000
vt -30.250738 0.000000 0.000000
vt -38.250738 7.000000 0.000000
vt -30.250738 7.000000 0.000000
vt 0.000000 0.000000 0.000000
vt 3.500000 0.000000 0.000000
vt 0.000000 7.000000 0.000000
vt 3.500000 7.000000 0.000000
vt 22.250738 0.000000 0.000000
vt 30.250738 0.000000 0.000000
vt 22.250738 7.000000 0.000000
vt 30.250738 7.000000 0.000000
vt 0.000000 0.000000 0.000000
vt 3.500000 0.000000 0.000000
vt 0.000000 7.000000 0.000000
vt 3.500000 7.000000 0.000000
vt -30.250738 0.000000 0.000000
vt -22.250738 0.000000 0.000000
vt -30.250738 7.000000 0.000000
vt -22.250738 7.000000 0.000000
vt -3.500000 0.000000 0.000000
vt -0.000000 0.000000 0.000000
vt -3.500000 7.000000 0.000000
vt -0.000000 7.000000 0.000000
vt 30.250738 0.000000 0.000000
vt 38.250738 0.000000 0.000000
vt 30.250738 7.000000 0.000000
vt 38.250738 7.000000 0.000000
vt -3.500000 0.000000 0.000000
vt -0.000000 0.000000 0.000000
vt -3.500000 7.000000 0.000000
vt -0.000000 7.000000 0.000000
vt 19.125369 8.597504 0.000000
vt 25.000000 12.500000 0.000000
vt 19.125369 12.097504 0.000000
vt 22.500000 15.000000 0.000000
vt 11.125369 12.097504 0.000000
vt -22.500000 15.000000 0.000000
vt -11.125369 12.097504 0.000000
vt -19.125369 12.097504 0.000000
vt -25.000000 12.500000 0.000000
vt -19.125369 8.597504 0.000000
vt -25.000000 -12.500000 0.000000
vt -19.125369 -8.597504 0.000000
vt -19.125369 -12.097504 0.000000
vt -22.500000 -15.000000 0.000000
vt -11.125369 -12.097504 0.000000
vt 22.500000 -15.000000 0.000000
vt 11.125369 -12.097504 0.000000
vt 19.125369 -12.097504 0.000000
vt 25.000000 -12.500000 0.000000
vt 19.125369 -8.597504 0.000000
vt 11.125369 8.597504 0.000000
vt -11.125369 8.597504 0.000000
vt 11.125369 -8.597504 0.000000
vt -11.125369 -8.597504 0.000000
vt -20.000000 -12.500000 0.000000
vt 20.000000 -12.500000 0.000000
vt -20.000000 12.500000 0.000000
vt 20.000000 12.500000 0.000000
vt -10.000000 -1.767767 0.000000
vt 0.000000 -1.767767 0.000000
vt -10.000000 1.767767 0.000000
vt 0.000000 1.767767 0.000000
vt 27.500000 10.000000 0.000000
vt 2.500000 10.000000 0.000000
vt 27.500000 0.000000 0.000000
vt 2.500000 0.000000 0.000000
vt -10.000000 -1.767767 0.000000
vt -0.000000 -1.767767 0.000000
vt -10.000000 1.767767 0.000000
vt 0.000000 1.767767 0.000000
vt 10.000000 1.767767 0.000000
vt 0.000000 1.767767 0.000000
vt 10.000000 -1.767767 0.000000
vt 0.000000 -1.767767 0.000000
vt 2.500000 0.000000 0.000000
vt 27.500000 0.000000 0.000000
vt 2.500000 10.000000 0.000000
vt 27.500000 10.000000 0.000000
vt 10.000000 1.767767 0.000000
vt 0.000000 1.767767 0.000000
vt 10.000000 -1.767767 0.000000
vt 0.000000 -1.767767 0.000000
vt 0.000000 0.000000 0.000000
vt 40.000000 0.000000 0.000000
vt 0.000000 2.500000 0.000000
vt 40.000000 2.500000 0.000000
vt 0.000000 0.000000 0.000000
vt 25.000000 0.000000 0.000000
vt 0.000000 2.500000 0.000000
vt 25.000000 2.500000 0.000000
vt -0.000000 0.000000 0.000000
vt 40.000000 0.000000 0.000000
vt -0.000000 2.500000 0.000000
vt 40.000000 2.500000 0.000000
vt -0.000000 0.000000 0.000000
vt 25.000000 0.000000 0.000000
vt -0.000000 2.500000 0.000000
vt 25.000000 2.500000 0.000000
vt -0.000000 0.000000 0.000000
vt 2.419827 0.000000 0.000000
vt -0.000000 1.000000 0.000000
vt 2.419827 1.000000 0.000000
vt 0.350000 0.000000 0.000000
vt 2.482304 0.000000 0.000000
vt 0.350000 1.000000 0.000000
vt 2.482304 1.000000 0.000000
vt -0.000000 0.274889 0.000000
vt -1.000000 0.274889 0.000000
vt -0.000000 0.091630 0.000000
vt -1.000000 0.091630 0.000000
vt -0.000000 -0.091630 0.000000
vt -1.000000 -0.091630 0.000000
vt -0.000000 -0.274889 0.000000
vt -1.000000 -0.274889 0.000000
vt 0.350000 0.000000 0.000000
vt 2.069827 0.000000 0.000000
vt 0.350000 1.000000 0.000000
vt 2.069827 1.000000 0.000000
vt 22.258848 1.209913 0.000000
vt 20.000000 -12.500000 0.000000
vt 22.258848 -1.209913 0.000000
vt 25.000000 -12.500000 0.000000
vt 24.391152 -1.209913 0.000000
vt 24.566152 -1.163022 0.000000
vt 24.694261 -1.034913 0.000000
vt 24.741152 -0.859913 0.000000
vt 24.741152 0.859913 0.000000
vt 25.000000 12.500000 0.000000
vt 24.694261 1.034913 0.000000
vt 24.566152 1.163022 0.000000
vt 24.391152 1.209913 0.000000
vt 20.000000 12.500000 0.000000
vt -20.000000 12.500000 0.000000
vt -25.000000 12.500000 0.000000
vt -20.000000 -12.500000 0.000000
vt -25.000000 -12.500000 0.000000
vt -22.500000 -15.000000 0.000000
vt -22.500000 15.000000 0.000000
vt 22.500000 15.000000 0.000000
vt 22.500000 -15.000000 0.000000
vt 2.132304 1.000000 0.000000
vt 0.000000 1.000000 0.000000
vt 2.132304 0.000000 0.000000
vt 0.000000 0.000000 0.000000
vt 1.066152 -1.163022 0.000000
vt 1.194261 -1.034913 0.000000
vt 0.891152 -1.209913 0.000000
vt 1.241152 -0.859913 0.000000
vt 0.891152 1.209913 0.000000
vt 1.241152 0.859913 0.000000
vt 1.194261 1.034913 0.000000
vt 1.066152 1.163022 0.000000
vt -1.241152 1.209913 0.000000
vt -1.241152 -1.209913 0.000000
vt 2.000000 -4.188790 0.000000
vt -0.000000 -4.188790 0.000000
vt 2.000000 -4.712389 0.000000
vt -0.000000 -4.712389 0.000000
vt 2.000000 4.712389 0.000000
vt -0.000000 4.712389 0.000000
vt 2.000000 4.188790 0.000000
vt -0.000000 4.188790 0.000000
vt 2.000000 3.665191 0.000000
vt -0.000000 3.665191 0.000000
vt 2.000000 3.141593 0.000000
vt -0.000000 3.141593 0.000000
vt 2.000000 2.617994 0.000000
vt -0.000000 2.617994 0.000000
vt 2.000000 2.094395 0.000000
vt -0.000000 2.094395 0.000000
vt 2.000000 1.570796 0.000000
vt -0.000000 1.570796 0.000000
vt 2.000000 1.047198 0.000000
vt -0.000000 1.047198 0.000000
vt 2.000000 0.523599 0.000000
vt -0.000000 0.523599 0.000000
vt 2.000000 0.000000 0.000000
vt -0.000000 0.000000 0.000000
vt 2.000000 -0.523599 0.000000
vt -0.000000 -0.523599 0.000000
vt 2.000000 -1.047198 0.000000
vt -0.000000 -1.047198 0.000000
vt 2.000000 -1.570796 0.000000
vt -0.000000 -1.570796 0.000000
vt 2.000000 -2.094395 0.000000
vt -0.000000 -2.094395 0.000000
vt 2.000000 -2.617994 0.000000
vt -0.000000 -2.617994 0.000000
vt 2.000000 -3.141593 0.000000
vt -0.000000 -3.141593 0.000000
vt 2.000000 -3.665191 0.000000
vt -0.000000 -3.665191 0.000000
vt 1.409539 0.513030 0.000000
vt -1.409539 0.513030 0.000000
vt 1.500000 0.000000 0.000000
vt -1.500000 0.000000 0.000000
vt 1.409539 -0.513030 0.000000
vt -1.409539 -0.513030 0.000000
vt 1.149067 -0.964181 0.000000
vt -1.149067 -0.964181 0.000000
vt 0.750000 -1.299038 0.000000
vt -0.750000 -1.299038 0.000000
vt 0.260472 -1.477212 0.000000
vt -0.260472 -1.477212 0.000000
vt -1.149067 0.964181 0.000000
vt 1.149067 0.964181 0.000000
vt -0.750000 1.299038 0.000000
vt 0.750000 1.299038 0.000000
vt -0.260472 1.477212 0.000000
vt 0.260472 1.477212 0.000000
vt -2.000000 4.188790 0.000000
vt -0.000000 4.188790 0.000000
vt -2.000000 4.712389 0.000000
vt -0.000000 4.712389 0.000000
vt -2.000000 -4.712389 0.000000
vt -0.000000 -4.712389 0.000000
vt -2.000000 -4.188790 0.000000
vt -0.000000 -4.188790 0.000000
vt -2.000000 -3.665191 0.000000
vt -0.000000 -3.665191 0.000000
vt -2.000000 -3.141593 0.000000
vt -0.000000 -3.141593 0.000000
vt -2.000000 -2.617994 0.000000
vt -0.000000 -2.617994 0.000000
vt -2.000000 -2.094395 0.000000
vt -0.000000 -2.094395 0.000000
vt -2.000000 -1.570796 0.000000
vt -0.000000 -1.570796 0.000000
vt -2.000000 -1.047198 0.000000
vt -0.000000 -1.047198 0.000000
vt -2.000000 -0.523599 0.000000
vt -0.000000 -0.523599 0.000000
vt -2.000000 0.000000 0.000000
vt 0.000000 0.000000 0.000000
vt -2.000000 0.523599 0.000000
vt 0.000000 0.523599 0.000000
vt -2.000000 1.047198 0.000000
vt 0.000000 1.047198 0.000000
vt -2.000000 1.570796 0.000000
vt 0.000000 1.570796 0.000000
vt -2.000000 2.094395 0.000000
vt 0.000000 2.094395 0.000000
vt -2.000000 2.617994 0.000000
vt -0.000000 2.617994 0.000000
vt -2.000000 3.141593 0.000000
vt -0.000000 3.141593 0.000000
vt -2.000000 3.665191 0.000000
vt -0.000000 3.665191 0.000000
vt -1.409539 -0.513030 0.000000
vt 1.409539 -0.513030 0.000000
vt -1.500000 0.000000 0.000000
vt 1.500000 0.000000 0.000000
vt -1.409539 0.513030 0.000000
vt 1.409539 0.513030 0.000000
vt -1.149067 0.964181 0.000000
vt 1.149067 0.964181 0.000000
vt -0.750000 1.299038 0.000000
vt 0.750000 1.299038 0.000000
vt -0.260472 1.477212 0.000000
vt 0.260472 1.477212 0.000000
vt 1.149067 -0.964181 0.000000
vt -1.149067 -0.964181 0.000000
vt 0.750000 -1.299038 0.000000
vt -0.750000 -1.299038 0.000000
vt 0.260472 -1.477212 0.000000
vt -0.260472 -1.477212 0.000000
vt -23.258848 -0.209913 0.000000
vt -23.741152 -0.209913 0.000000
vt -24.000000 -12.085786 0.000000
vt -23.741152 0.209913 0.000000
vt -24.000000 12.085786 0.000000
vt -23.258848 0.209913 0.000000
vt -19.000000 11.500000 0.000000
vt -19.000000 -11.500000 0.000000
vt 19.000000 -11.500000 0.000000
vt 24.000000 -12.085786 0.000000
vt 19.000000 11.500000 0.000000
vt 24.000000 12.085786 0.000000
vt 22.085786 14.000000 0.000000
vt 22.085786 -14.000000 0.000000
vt -22.085786 -14.000000 0.000000
vt -22.085786 14.000000 0.000000
vt -1.482304 -1.000000 0.000000
vt -1.000000 -1.000000 0.000000
vt -1.482304 0.000000 0.000000
vt -1.000000 0.000000 0.000000
vt -1.419827 -1.000000 0.000000
vt -1.000000 -1.000000 0.000000
vt -1.419827 0.000000 0.000000
vt -1.000000 0.000000 0.000000
vt -1.482304 -1.000000 0.000000
vt -1.000000 -1.000000 0.000000
vt -1.482304 0.000000 0.000000
vt -1.000000 0.000000 0.000000
vt -1.000000 1.308997 0.000000
vt 1.000000 1.308997 0.000000
vt -1.000000 1.570796 0.000000
vt 1.000000 1.570796 0.000000
vt -1.000000 -1.570796 0.000000
vt 1.000000 -1.570796 0.000000
vt -1.000000 -1.308997 0.000000
vt 1.000000 -1.308997 0.000000
vt -1.000000 -1.047198 0.000000
vt 1.000000 -1.047198 0.000000
vt -1.000000 -0.785398 0.000000
vt 1.000000 -0.785398 0.000000
vt -1.000000 -0.523599 0.000000
vt 1.000000 -0.523599 0.000000
vt -1.000000 -0.261799 0.000000
vt 1.000000 -0.261799 0.000000
vt -1.000000 0.000000 0.000000
vt 1.000000 0.000000 0.000000
vt -1.000000 0.261799 0.000000
vt 1.000000 0.261799 0.000000
vt -1.000000 0.523599 0.000000
vt 1.000000 0.523599 0.000000
vt -1.000000 0.785398 0.000000
vt 1.000000 0.785398 0.000000
vt -1.000000 1.047198 0.000000
vt 1.000000 1.047198 0.000000
vt -0.433013 -0.250000 0.000000
vt 0.433013 -0.250000 0.000000
vt -0.500000 0.000000 0.000000
vt 0.500000 0.000000 0.000000
vt -0.433013 0.250000 0.000000
vt 0.433013 0.250000 0.000000
vt -0.250000 0.433013 0.000000
vt 0.250000 0.433013 0.000000
vt 0.000000 0.500000 0.000000
vt 0.250000 -0.433013 0.000000
vt -0.250000 -0.433013 0.000000
vt 0.000000 -0.500000 0.000000
vt 1.000000 -1.308997 0.000000
vt -1.000000 -1.308997 0.000000
vt 1.000000 -1.570796 0.000000
vt -1.000000 -1.570796 0.000000
vt 1.000000 1.570796 0.000000
vt -1.000000 1.570796 0.000000
vt 1.000000 1.308997 0.000000
vt -1.000000 1.308997 0.000000
vt 1.000000 1.047198 0.000000
vt -1.000000 1.047198 0.000000
vt 1.000000 0.785398 0.000000
vt -1.000000 0.785398 0.000000
vt 1.000000 0.523599 0.000000
vt -1.000000 0.523599 0.000000
vt 1.000000 0.261799 0.000000
vt -1.000000 0.261799 0.000000
vt 1.000000 0.000000 0.000000
vt -1.000000 0.000000 0.000000
vt 1.000000 -0.261799 0.000000
vt -1.000000 -0.261799 0.000000
vt 1.000000 -0.523599 0.000000
vt -1.000000 -0.523599 0.000000
vt 1.000000 -0.785398 0.000000
vt -1.000000 -0.785398 0.000000
vt 1.000000 -1.047198 0.000000
vt -1.000000 -1.047198 0.000000
vt 0.433013 0.250000 0.000000
vt -0.433013 0.250000 0.000000
vt 0.500000 0.000000 0.000000
vt -0.500000 0.000000 0.000000
vt 0.433013 -0.250000 0.000000
vt -0.433013 -0.250000 0.000000
vt 0.250000 -0.433013 0.000000
vt -0.250000 -0.433013 0.000000
vt -0.000000 -0.500000 0.000000
vt -0.250000 0.433013 0.000000
vt 0.250000 0.433013 0.000000
vt -0.000000 0.500000 0.000000
vt -15.066987 2.750000 0.000000
vt -15.000000 2.500000 0.000000
vt -2.914214 1.000000 0.000000
vt -15.066987 2.250000 0.000000
vt -15.250000 2.066987 0.000000
vt -15.500000 2.000000 0.000000
vt -34.500000 2.000000 0.000000
vt -47.085786 1.000000 0.000000
vt -34.750000 2.066987 0.000000
vt -34.933013 2.250000 0.000000
vt -34.250000 2.066987 0.000000
vt -15.750000 2.066987 0.000000
vt -34.066987 2.250000 0.000000
vt -15.933013 2.250000 0.000000
vt -34.000000 2.500000 0.000000
vt -16.000000 2.500000 0.000000
vt -34.066987 2.750000 0.000000
vt -15.933013 2.750000 0.000000
vt -34.250000 2.933013 0.000000
vt -15.750000 2.933013 0.000000
vt -34.500000 3.000000 0.000000
vt -15.500000 3.000000 0.000000
vt -47.085786 9.000000 0.000000
vt -2.914214 9.000000 0.000000
vt -15.250000 2.933013 0.000000
vt -35.000000 2.500000 0.000000
vt -34.933013 2.750000 0.000000
vt -34.750000 2.933013 0.000000
vt -34.933013 2.250000 0.000000
vt -35.000000 2.500000 0.000000
vt -47.085786 1.000000 0.000000
vt -34.933013 2.750000 0.000000
vt -34.750000 2.933013 0.000000
vt -47.085786 9.000000 0.000000
vt -34.500000 3.000000 0.000000
vt -15.500000 3.000000 0.000000
vt -15.750000 2.933013 0.000000
vt -34.250000 2.933013 0.000000
vt -15.933013 2.750000 0.000000
vt -34.066987 2.750000 0.000000
vt -16.000000 2.500000 0.000000
vt -34.000000 2.500000 0.000000
vt -15.933013 2.250000 0.000000
vt -34.066987 2.250000 0.000000
vt -15.750000 2.066987 0.000000
vt -34.250000 2.066987 0.000000
vt -15.500000 2.000000 0.000000
vt -34.500000 2.000000 0.000000
vt -2.914214 1.000000 0.000000
vt -34.750000 2.066987 0.000000
vt -15.066987 2.750000 0.000000
vt -15.000000 2.500000 0.000000
vt -15.066987 2.250000 0.000000
vt -15.250000 2.066987 0.000000
vt -2.914214 9.000000 0.000000
vt -15.250000 2.933013 0.000000
vt 5.000000 2.750000 0.000000
vt -5.000000 2.750000 0.000000
vt 5.000000 -2.750000 0.000000
vt -5.000000 -2.750000 0.000000
vt 5.000000 2.750000 0.000000
vt -5.000000 2.750000 0.000000
vt 5.000000 -2.750000 0.000000
vt -5.000000 -2.750000 0.000000
vt 5.000000 2.750000 0.000000
vt -5.000000 2.750000 0.000000
vt 5.000000 -2.750000 0.000000
vt -5.000000 -2.750000 0.000000
vt 5.000000 2.750000 0.000000
vt -5.000000 2.750000 0.000000
vt 5.000000 -2.750000 0.000000
vt -5.000000 -2.750000 0.000000
vt -1.000000 1.000000 0.000000
vt 9.000000 1.000000 0.000000
vt -1.000000 8.000000 0.000000
vt 9.000000 8.000000 0.000000
vt -1.000000 1.000000 0.000000
vt 4.500000 1.000000 0.000000
vt -1.000000 8.000000 0.000000
vt 4.500000 8.000000 0.000000
vt -1.000000 1.000000 0.000000
vt 9.000000 1.000000 0.000000
vt -1.000000 8.000000 0.000000
vt 9.000000 8.000000 0.000000
vt -1.000000 1.000000 0.000000
vt 4.500000 1.000000 0.000000
vt -1.000000 8.000000 0.000000
vt 4.500000 8.000000 0.000000
vt -9.000000 1.000000 0.000000
vt 1.000000 1.000000 0.000000
vt -9.000000 8.000000 0.000000
vt 1.000000 8.000000 0.000000
vt -4.500000 1.000000 0.000000
vt 1.000000 1.000000 0.000000
vt -4.500000 8.000000 0.000000
vt 1.000000 8.000000 0.000000
vt -9.000000 1.000000 0.000000
vt 1.000000 1.000000 0.000000
vt -9.000000 8.000000 0.000000
vt 1.000000 8.000000 0.000000
vt -4.500000 1.000000 0.000000
vt 1.000000 1.000000 0.000000
vt -4.500000 8.000000 0.000000
vt 1.000000 8.000000 0.000000
vt 29.250738 1.000000 0.000000
vt 39.250738 1.000000 0.000000
vt 29.250738 8.000000 0.000000
vt 39.250738 8.000000 0.000000
vt -4.500000 1.000000 0.000000
vt 1.000000 1.000000 0.000000
vt -4.500000 8.000000 0.000000
vt 1.000000 8.000000 0.000000
vt -31.250738 1.000000 0.000000
vt -21.250738 1.000000 0.000000
vt -31.250738 8.000000 0.000000
vt -21.250738 8.000000 0.000000
vt -4.500000 1.000000 0.000000
vt 1.000000 1.000000 0.000000
vt -4.500000 8.000000 0.000000
vt 1.000000 8.000000 0.000000
vt 21.250738 1.000000 0.000000
vt 31.250738 1.000000 0.000000
vt 21.250738 8.000000 0.000000
vt 31.250738 8.000000 0.000000
vt -1.000000 1.000000 0.000000
vt 4.500000 1.000000 0.000000
vt -1.000000 8.000000 0.000000
vt 4.500000 8.000000 0.000000
vt -39.250738 1.000000 0.000000
vt -29.250738 1.000000 0.000000
vt -39.250738 8.000000 0.000000
vt -29.250738 8.000000 0.000000
vt -1.000000 1.000000 0.000000
vt 4.500000 1.000000 0.000000
vt -1.000000 8.000000 0.000000
vt 4.500000 8.000000 0.000000
vt -20.125369 13.097504 0.000000
vt -24.000000 12.085786 0.000000
vt -20.125369 7.597504 0.000000
vt -24.000000 -12.085786 0.000000
vt -20.125369 -7.597504 0.000000
vt -20.125369 -13.097504 0.000000
vt -22.085786 -14.000000 0.000000
vt -10.125369 -13.097504 0.000000
vt 22.085786 -14.000000 0.000000
vt 10.125369 -13.097504 0.000000
vt 20.125369 -13.097504 0.000000
vt 24.000000 -12.085786 0.000000
vt 20.125369 -7.597504 0.000000
vt 20.125369 7.597504 0.000000
vt 10.125369 7.597504 0.000000
vt -22.085786 14.000000 0.000000
vt -10.125369 13.097504 0.000000
vt 10.125369 13.097504 0.000000
vt -10.125369 7.597504 0.000000
vt 10.125369 -7.597504 0.000000
vt -10.125369 -7.597504 0.000000
vt 24.000000 12.085786 0.000000
vt 20.125369 13.097504 0.000000
vt 22.085786 14.000000 0.000000
vt -19.000000 -11.500000 0.000000
vt 19.000000 -11.500000 0.000000
vt -19.000000 11.500000 0.000000
vt 19.000000 11.500000 0.000000
vt 9.000000 1.353553 0.000000
vt 1.000000 1.353553 0.000000
vt 9.000000 -1.353553 0.000000
vt 1.000000 -1.353553 0.000000
vt -27.085786 1.000000 0.000000
vt -2.914214 1.000000 0.000000
vt -27.085786 9.000000 0.000000
vt -2.914214 9.000000 0.000000
vt 9.000000 1.353553 0.000000
vt 1.000000 1.353553 0.000000
vt 9.000000 -1.353553 0.000000
vt 1.000000 -1.353553 0.000000
vt -9.000000 -1.353553 0.000000
vt -1.000000 -1.353553 0.000000
vt -9.000000 1.353553 0.000000
vt -1.000000 1.353553 0.000000
vt -2.914214 9.000000 0.000000
vt -27.085786 9.000000 0.000000
vt -2.914214 1.000000 0.000000
vt -27.085786 1.000000 0.000000
vt -9.000000 -1.353553 0.000000
vt -1.000000 -1.353553 0.000000
vt -9.000000 1.353553 0.000000
vt -1.000000 1.353553 0.000000
vt -39.000000 -1.000000 0.000000
vt -1.000000 -1.000000 0.000000
vt -39.000000 1.500000 0.000000
vt -1.000000 1.500000 0.000000
vt -24.000000 -1.000000 0.000000
vt -1.000000 -1.000000 0.000000
vt -24.000000 1.500000 0.000000
vt -1.000000 1.500000 0.000000
vt -39.000000 -1.000000 0.000000
vt -1.000000 -1.000000 0.000000
vt -39.000000 1.500000 0.000000
vt -1.000000 1.500000 0.000000
vt -24.000000 -1.000000 0.000000
vt -1.000000 -1.000000 0.000000
vt -24.000000 1.500000 0.000000
vt -1.000000 1.500000 0.000000
vt -1.419827 -1.000000 0.000000
vt -1.000000 -1.000000 0.000000
vt -1.419827 0.000000 0.000000
vt -1.000000 0.000000 0.000000
vt 0.241152 0.209913 0.000000
vt -0.241152 0.209913 0.000000
vt 0.241152 -0.209913 0.000000
vt -0.241152 -0.209913 0.000000
vt -1.000000 1.308997 0.000000
vt 1.000000 1.308997 0.000000
vt -1.000000 1.570796 0.000000
vt 1.000000 1.570796 0.000000
vt -1.000000 -1.570796 0.000000
vt 1.000000 -1.570796 0.000000
vt -1.000000 -1.308997 0.000000
vt 1.000000 -1.308997 0.000000
vt -1.000000 -1.047198 0.000000
vt 1.000000 -1.047198 0.000000
vt -1.000000 -0.785398 0.000000
vt 1.000000 -0.785398 0.000000
vt -1.000000 -0.523599 0.000000
vt 1.000000 -0.523599 0.000000
vt -1.000000 -0.261799 0.000000
vt 1.000000 -0.261799 0.000000
vt -1.000000 0.000000 0.000000
vt 1.000000 0.000000 0.000000
vt -1.000000 0.261799 0.000000
vt 1.000000 0.261799 0.000000
vt -1.000000 0.523599 0.000000
vt 1.000000 0.523599 0.000000
vt -1.000000 0.785398 0.000000
vt 1.000000 0.785398 0.000000
vt -1.000000 1.047198 0.000000
vt 1.000000 1.047198 0.000000
vt -0.433013 -0.250000 0.000000
vt 0.433013 -0.250000 0.000000
vt -0.500000 0.000000 0.000000
vt 0.500000 0.000000 0.000000
vt -0.433013 0.250000 0.000000
vt 0.433013 0.250000 0.000000
vt -0.250000 0.433013 0.000000
vt 0.250000 0.433013 0.000000
vt 0.000000 0.500000 0.000000
vt 0.250000 -0.433013 0.000000
vt -0.250000 -0.433013 0.000000
vt 0.000000 -0.500000 0.000000
vt 1.000000 -1.308997 0.000000
vt -1.000000 -1.308997 0.000000
vt 1.000000 -1.570796 0.000000
vt -1.000000 -1.570796 0.000000
vt 1.000000 1.570796 0.000000
vt -1.000000 1.570796 0.000000
vt 1.000000 1.308997 0.000000
vt -1.000000 1.308997 0.000000
vt 1.000000 1.047198 0.000000
vt -1.000000 1.047198 0.000000
vt 1.000000 0.785398 0.000000
vt -1.000000 0.785398 0.000000
vt 1.000000 0.523599 0.000000
vt -1.000000 0.523599 0.000000
vt 1.000000 0.261799 0.000000
vt -1.000000 0.261799 0.000000
vt 1.000000 0.000000 0.000000
vt -1.000000 0.000000 0.000000
vt 1.000000 -0.261799 0.000000
vt -1.000000 -0.261799 0.000000
vt 1.000000 -0.523599 0.000000
vt -1.000000 -0.523599 0.000000
vt 1.000000 -0.785398 0.000000
vt -1.000000 -0.785398 0.000000
vt 1.000000 -1.047198 0.000000
vt -1.000000 -1.047198 0.000000
vt 0.433013 0.250000 0.000000
vt -0.433013 0.250000 0.000000
vt 0.500000 0.000000 0.000000
vt -0.500000 0.000000 0.000000
vt 0.433013 -0.250000 0.000000
vt -0.433013 -0.250000 0.000000
vt 0.250000 -0.433013 0.000000
vt -0.250000 -0.433013 0.000000
vt -0.000000 -0.500000 0.000000
vt -0.250000 0.433013 0.000000
vt 0.250000 0.433013 0.000000
vt -0.000000 0.500000 0.000000
vn 0.939693 0.000000 -0.342020
vn 0.939693 0.000000 -0.342020
vn 1.000000 0.000000 -0.000000
vn 1.000000 0.000000 -0.000000
vn 0.939693 0.000000 0.342020
vn 0.939693 0.000000 0.342020
vn 0.766044 0.000000 0.642788
vn 0.766044 0.000000 0.642788
vn 0.500000 0.000000 0.866025
vn 0.500000 0.000000 0.866025
vn 0.173648 0.000000 0.984808
vn 0.173648 0.000000 0.984808
vn -0.173648 0.000000 0.984808
vn -0.173648 0.000000 0.984808
vn -0.500000 0.000000 0.866025
vn -0.500000 0.000000 0.866025
vn -0.766044 0.000000 0.642788
vn -0.766044 0.000000 0.642788
vn -0.939693 0.000000 0.342020
vn -0.939693 0.000000 0.342020
vn -1.000000 0.000000 0.000000
vn -1.000000 0.000000 0.000000
vn -0.939693 -0.000000 -0.342020
vn -0.939693 -0.000000 -0.342020
vn -0.766044 -0.000000 -0.642788
vn -0.766044 -0.000000 -0.642788
vn -0.500000 -0.000000 -0.866025
vn -0.500000 -0.000000 -0.866025
vn -0.173648 -0.000000 -0.984808
vn -0.173648 -0.000000 -0.984808
vn 0.173648 0.000000 -0.984808
vn 0.173648 0.000000 -0.984808
vn 0.500000 0.000000 -0.866025
vn 0.500000 0.000000 -0.866025
vn 0.766044 0.000000 -0.642788
vn 0.766044 0.000000 -0.642788
vn 0.000000 -1.000000 0.000000
vn 0.000000 -1.000000 0.000000
vn 0.000000 -1.000000 0.000000
vn 0.000000 -1.000000 0.000000
vn 0.000000 -1.000000 0.000000
vn 0.000000 -1.000000 0.000000
vn 0.000000 -1.000000 0.000000
vn 0.000000 -1.000000 0.000000
vn 0.000000 -1.000000 0.000000
vn 0.000000 -1.000000 0.000000
vn 0.000000 -1.000000 0.000000
vn 0.000000 -1.000000 0.000000
vn 0.000000 -1.000000 0.000000
vn 0.000000 -1.000000 0.000000
vn 0.000000 -1.000000 0.000000
vn 0.000000 -1.000000 0.000000
vn 0.000000 -1.000000 0.000000
vn 0.000000 -1.000000 0.000000
vn 0.939693 -0.000000 0.342020
vn 0.939693 -0.000000 0.342020
vn 1.000000 -0.000000 0.000000
vn 1.000000 -0.000000 0.000000
vn 0.939693 -0.000000 -0.342020
vn 0.939693 -0.000000 -0.342020
vn 0.766044 -0.000000 -0.642788
vn 0.766044 -0.000000 -0.642788
vn 0.500000 -0.000000 -0.866025
vn 0.500000 -0.000000 -0.866025
vn 0.173648 -0.000000 -0.984808
vn 0.173648 -0.000000 -0.984808
vn -0.173648 0.000000 -0.984808
vn -0.173648 0.000000 -0.984808
vn -0.500000 0.000000 -0.866025
vn -0.500000 0.000000 -0.866025
vn -0.766044 0.000000 -0.642788
vn -0.766044 0.000000 -0.642788
vn -0.939693 0.000000 -0.342020
vn -0.939693 0.000000 -0.342020
vn -1.000000 -0.000000 0.000000
vn -1.000000 -0.000000 0.000000
vn -0.939693 -0.000000 0.342020
vn -0.939693 -0.000000 0.342020
vn -0.766044 -0.000000 0.642788
vn -0.766044 -0.000000 0.642788
vn -0.500000 -0.000000 0.866025
vn -0.500000 -0.000000 0.866025
vn -0.173648 -0.000000 0.984808
vn -0.173648 -0.000000 0.984808
vn 0.173648 -0.000000 0.984808
vn 0.173648 -0.000000 0.984808
vn 0.500000 -0.000000 0.866025
vn 0.500000 -0.000000 0.866025
vn 0.766044 -0.000000 0.642788
vn 0.766044 -0.000000 0.642788
vn 0.000000 1.000000 0.000000
vn 0.000000 1.000000 0.000000
vn 0.000000 1.000000 0.000000
vn 0.000000 1.000000 0.000000
vn 0.000000 1.000000 0.000000
vn 0.000000 1.000000 0.000000
vn 0.000000 1.000000 0.000000
vn 0.000000 1.000000 0.000000
vn 0.000000 1.000000 0.000000
vn 0.000000 1.000000 0.000000
vn 0.000000 1.000000 0.000000
vn 0.000000 1.000000 0.000000
vn 0.000000 1.000000 0.000000
vn 0.000000 1.000000 0.000000
vn 0.000000 1.000000 0.000000
vn 0.000000 1.000000 0.000000
vn 0.000000 1.000000 0.000000
vn 0.000000 1.000000 0.000000
vn 0.000000 -1.000000 0.000000
vn 0.000000 -1.000000 0.000000
vn 0.000000 -1.000000 0.000000
vn 0.000000 -1.000000 0.000000
vn 0.000000 -1.000000 0.000000
vn 0.000000 -1.000000 0.000000
vn 0.000000 -1.000000 0.000000
vn 0.000000 -1.000000 0.000000
vn 0.000000 -1.000000 0.000000
vn 0.000000 -1.000000 0.000000
vn 0.000000 -1.000000 0.000000
vn 0.000000 -1.000000 0.000000
vn 0.000000 -1.000000 0.000000
vn 0.000000 -1.000000 0.000000
vn 0.000000 -1.000000 0.000000
vn 0.000000 -1.000000 0.000000
vn 0.000000 -1.000000 0.000000
vn 0.000000 -1.000000 0.000000
vn 0.000000 -1.000000 0.000000
vn 0.000000 -1.000000 0.000000
vn 0.000000 -1.000000 0.000000
vn 0.000000 -1.000000 0.000000
vn 0.000000 -1.000000 0.000000
vn 0.000000 -1.000000 0.000000
vn 0.000000 -1.000000 0.000000
vn 0.000000 -1.000000 0.000000
vn 0.000000 -1.000000 0.000000
vn 0.000000 -1.000000 0.000000
vn 0.000000 -1.000000 0.000000
vn 0.000000 -1.000000 0.000000
vn 0.000000 -1.000000 0.000000
vn 0.000000 -1.000000 0.000000
vn 0.000000 -1.000000 0.000000
vn 0.000000 -1.000000 0.000000
vn 0.000000 -1.000000 0.000000
vn 0.000000 -1.000000 0.000000
vn 0.000000 -1.000000 0.000000
vn 0.000000 -1.000000 0.000000
vn 0.000000 -1.000000 0.000000
vn 0.000000 -1.000000 0.000000
vn 0.000000 1.000000 0.000000
vn 0.000000 1.000000 0.000000
vn 0.000000 1.000000 0.000000
vn 0.000000 1.000000 0.000000
vn 0.000000 1.000000 0.000000
vn 0.000000 1.000000 0.000000
vn 0.000000 1.000000 0.000000
vn 0.000000 1.000000 0.000000
vn 0.000000 1.000000 0.000000
vn 0.000000 1.000000 0.000000
vn 0.000000 1.000000 0.000000
vn 0.000000 1.000000 0.000000
vn 0.000000 1.000000 0.000000
vn 0.000000 1.000000 0.000000
vn 0.000000 1.000000 0.000000
vn 0.000000 1.000000 0.000000
vn 0.000000 1.000000 0.000000
vn 0.000000 1.000000 0.000000
vn 0.000000 1.000000 0.000000
vn 0.000000 1.000000 0.000000
vn 0.000000 1.000000 0.000000
vn 0.000000 1.000000 0.000000
vn 0.000000 1.000000 0.000000
vn 0.000000 1.000000 0.000000
vn 0.000000 1.000000 0.000000
vn 0.000000 1.000000 0.000000
vn 0.000000 1.000000 0.000000
vn 0.000000 1.000000 0.000000
vn 0.000000 1.000000 0.000000
vn 0.000000 1.000000 0.000000
vn 0.000000 1.000000 0.000000
vn 0.000000 1.000000 0.000000
vn 0.000000 1.000000 0.000000
vn 0.000000 1.000000 0.000000
vn 0.000000 1.000000 0.000000
vn 0.000000 1.000000 0.000000
vn 0.000000 1.000000 0.000000
vn 0.000000 1.000000 0.000000
vn 0.000000 1.000000 0.000000
vn 0.000000 1.000000 0.000000
vn 1.000000 -0.000000 -0.000000
vn 1.000000 -0.000000 -0.000000
vn 0.866025 -0.500000 -0.000000
vn 0.866025 -0.500000 -0.000000
vn 0.500000 -0.866025 -0.000000
vn 0.500000 -0.866025 -0.000000
vn -0.000000 -1.000000 -0.000000
vn -0.000000 -1.000000 -0.000000
vn -0.000000 -0.000000 -1.000000
vn -0.000000 -0.000000 -1.000000
vn -0.000000 -0.000000 -1.000000
vn -0.000000 -0.000000 -1.000000
vn -0.000000 -0.000000 -1.000000
vn -0.000000 -0.000000 -1.000000
vn -0.000000 -0.000000 -1.000000
vn -0.000000 -0.000000 -1.000000
vn -0.000000 -0.000000 -1.000000
vn -0.000000 -0.000000 -1.000000
vn -0.000000 -0.000000 -1.000000
vn -0.000000 -0.000000 -1.000000
vn -0.000000 -0.000000 -1.000000
vn -0.000000 -0.000000 -1.000000
vn -0.000000 -0.000000 -1.000000
vn -0.000000 -0.000000 -1.000000
vn -0.000000 1.000000 -0.000000
vn -0.000000 1.000000 -0.000000
vn -0.000000 1.000000 -0.000000
vn -0.000000 1.000000 -0.000000
vn 1.000000 -0.000000 -0.000000
vn 1.000000 -0.000000 -0.000000
vn 1.000000 -0.000000 -0.000000
vn 1.000000 -0.000000 -0.000000
vn -0.000000 -1.000000 0.000000
vn -0.000000 -1.000000 0.000000
vn -0.000000 -1.000000 0.000000
vn -0.000000 -1.000000 0.000000
vn -1.000000 -0.000000 -0.000000
vn -1.000000 -0.000000 -0.000000
vn -1.000000 -0.000000 -0.000000
vn -1.000000 -0.000000 -0.000000
vn -0.000000 1.000000 -0.000000
vn -0.000000 1.000000 -0.000000
vn -0.000000 1.000000 -0.000000
vn -0.000000 1.000000 -0.000000
vn 1.000000 -0.000000 -0.000000
vn 1.000000 -0.000000 -0.000000
vn 1.000000 -0.000000 -0.000000
vn 1.000000 -0.000000 -0.000000
vn -0.000000 -1.000000 -0.000000
vn -0.000000 -1.000000 -0.000000
vn -0.000000 -1.000000 -0.000000
vn -0.000000 -1.000000 -0.000000
vn -1.000000 -0.000000 -0.000000
vn -1.000000 -0.000000 -0.000000
vn -1.000000 -0.000000 -0.000000
vn -1.000000 -0.000000 -0.000000
vn -0.000000 -1.000000 0.000000
vn -0.000000 -1.000000 0.000000
vn -0.000000 -1.000000 0.000000
vn -0.000000 -1.000000 0.000000
vn -1.000000 -0.000000 -0.000000
vn -1.000000 -0.000000 -0.000000
vn -1.000000 -0.000000 -0.000000
vn -1.000000 -0.000000 -0.000000
vn -0.000000 1.000000 -0.000000
vn -0.000000 1.000000 -0.000000
vn -0.000000 1.000000 -0.000000
vn -0.000000 1.000000 -0.000000
vn 1.000000 -0.000000 -0.000000
vn 1.000000 -0.000000 -0.000000
vn 1.000000 -0.000000 -0.000000
vn 1.000000 -0.000000 -0.000000
vn -0.000000 -1.000000 -0.000000
vn -0.000000 -1.000000 -0.000000
vn -0.000000 -1.000000 -0.000000
vn -0.000000 -1.000000 -0.000000
vn -1.000000 -0.000000 -0.000000
vn -1.000000 -0.000000 -0.000000
vn -1.000000 -0.000000 -0.000000
vn -1.000000 -0.000000 -0.000000
vn -0.000000 1.000000 -0.000000
vn -0.000000 1.000000 -0.000000
vn -0.000000 1.000000 -0.000000
vn -0.000000 1.000000 -0.000000
vn 1.000000 -0.000000 -0.000000
vn 1.000000 -0.000000 -0.000000
vn 1.000000 -0.000000 -0.000000
vn 1.000000 -0.000000 -0.000000
vn -0.000000 0.000000 -1.000000
vn -0.000000 0.000000 -1.000000
vn -0.000000 0.000000 -1.000000
vn -0.000000 0.000000 -1.000000
vn -0.000000 0.000000 -1.000000
vn -0.000000 0.000000 -1.000000
vn -0.000000 0.000000 -1.000000
vn -0.000000 0.000000 -1.000000
vn -0.000000 0.000000 -1.000000
vn -0.000000 0.000000 -1.000000
vn -0.000000 0.000000 -1.000000
vn -0.000000 0.000000 -1.000000
vn -0.000000 0.000000 -1.000000
vn -0.000000 0.000000 -1.000000
vn -0.000000 0.000000 -1.000000
vn -0.000000 0.000000 -1.000000
vn -0.000000 0.000000 -1.000000
vn -0.000000 0.000000 -1.000000
vn -0.000000 0.000000 -1.000000
vn -0.000000 0.000000 -1.000000
vn -0.000000 0.000000 -1.000000
vn -0.000000 0.000000 -1.000000
vn -0.000000 0.000000 -1.000000
vn -0.000000 0.000000 -1.000000
vn 0.000000 0.000000 1.000000
vn 0.000000 0.000000 1.000000
vn 0.000000 0.000000 1.000000
vn 0.000000 0.000000 1.000000
vn 0.707107 0.707107 0.000000
vn 0.707107 0.707107 0.000000
vn 0.707107 0.707107 0.000000
vn 0.707107 0.707107 0.000000
vn 1.000000 0.000000 -0.000000
vn 1.000000 0.000000 -0.000000
vn 1.000000 0.000000 -0.000000
vn 1.000000 0.000000 -0.000000
vn 0.707107 -0.707107 0.000000
vn 0.707107 -0.707107 0.000000
vn 0.707107 -0.707107 0.000000
vn 0.707107 -0.707107 0.000000
vn -0.707107 -0.707107 0.000000
vn -0.707107 -0.707107 0.000000
vn -0.707107 -0.707107 0.000000
vn -0.707107 -0.707107 0.000000
vn -1.000000 0.000000 0.000000
vn -1.000000 0.000000 0.000000
vn -1.000000 0.000000 0.000000
vn -1.000000 0.000000 0.000000
vn -0.707107 0.707107 0.000000
vn -0.707107 0.707107 0.000000
vn -0.707107 0.707107 0.000000
vn -0.707107 0.707107 0.000000
vn 0.000000 -1.000000 0.000000
vn 0.000000 -1.000000 0.000000
vn 0.000000 -1.000000 0.000000
vn 0.000000 -1.000000 0.000000
vn 1.000000 0.000000 -0.000000
vn 1.000000 0.000000 -0.000000
vn 1.000000 0.000000 -0.000000
vn 1.000000 0.000000 -0.000000
vn 0.000000 1.000000 0.000000
vn 0.000000 1.000000 0.000000
vn 0.000000 1.000000 0.000000
vn 0.000000 1.000000 0.000000
vn -1.000000 0.000000 0.000000
vn -1.000000 0.000000 0.000000
vn -1.000000 0.000000 0.000000
vn -1.000000 0.000000 0.000000
vn -1.000000 0.000000 0.000000
vn -1.000000 0.000000 0.000000
vn -1.000000 0.000000 0.000000
vn -1.000000 0.000000 0.000000
vn 0.000000 1.000000 0.000000
vn 0.000000 1.000000 0.000000
vn 0.000000 1.000000 0.000000
vn 0.000000 1.000000 0.000000
vn 0.500000 0.866025 -0.000000
vn 0.500000 0.866025 -0.000000
vn 0.866025 0.500000 -0.000000
vn 0.866025 0.500000 -0.000000
vn 1.000000 -0.000000 -0.000000
vn 1.000000 -0.000000 -0.000000
vn 0.000000 0.000000 1.000000
vn 0.000000 0.000000 1.000000
vn 0.000000 0.000000 1.000000
vn 0.000000 0.000000 1.000000
vn 0.000000 0.000000 1.000000
vn 0.000000 0.000000 1.000000
vn 0.000000 0.000000 1.000000
vn 0.000000 0.000000 1.000000
vn 0.000000 0.000000 1.000000
vn 0.000000 0.000000 1.000000
vn 0.000000 0.000000 1.000000
vn 0.000000 0.000000 1.000000
vn 0.000000 0.000000 1.000000
vn 0.000000 0.000000 1.000000
vn 0.000000 0.000000 1.000000
vn 0.000000 0.000000 1.000000
vn 0.000000 0.000000 1.000000
vn 0.000000 0.000000 1.000000
vn 0.000000 0.000000 1.000000
vn 0.000000 0.000000 1.000000
vn 0.000000 0.000000 1.000000
vn 0.000000 0.000000 1.000000
vn 0.000000 -1.000000 0.000000
vn 0.000000 -1.000000 0.000000
vn 0.000000 0.000000 1.000000
vn 0.000000 0.000000 1.000000
vn 0.000000 0.000000 1.000000
vn 0.000000 0.000000 1.000000
vn 0.000000 0.000000 1.000000
vn 0.000000 0.000000 1.000000
vn 0.000000 0.000000 1.000000
vn 0.000000 0.000000 1.000000
vn 0.000000 0.000000 1.000000
vn 0.000000 0.000000 1.000000
vn -0.939693 0.000000 -0.342020
vn -0.939693 0.000000 -0.342020
vn -1.000000 0.000000 -0.000000
vn -1.000000 0.000000 -0.000000
vn -0.939693 -0.000000 0.342020
vn -0.939693 -0.000000 0.342020
vn -0.766044 -0.000000 0.642788
vn -0.766044 -0.000000 0.642788
vn -0.500000 -0.000000 0.866025
vn -0.500000 -0.000000 0.866025
vn -0.173648 -0.000000 0.984808
vn -0.173648 -0.000000 0.984808
vn 0.173648 -0.000000 0.984808
vn 0.173648 -0.000000 0.984808
vn 0.500000 -0.000000 0.866025
vn 0.500000 -0.000000 0.866025
vn 0.766044 -0.000000 0.642788
vn 0.766044 -0.000000 0.642788
vn 0.939693 -0.000000 0.342020
vn 0.939693 -0.000000 0.342020
vn 1.000000 0.000000 -0.000000
vn 1.000000 0.000000 -0.000000
vn 0.939693 0.000000 -0.342020
vn 0.939693 0.000000 -0.342020
vn 0.766044 0.000000 -0.642788
vn 0.766044 0.000000 -0.642788
vn 0.500000 0.000000 -0.866025
vn 0.500000 0.000000 -0.866025
vn 0.173648 0.000000 -0.984808
vn 0.173648 0.000000 -0.984808
vn -0.173648 0.000000 -0.984808
vn -0.173648 0.000000 -0.984808
vn -0.500000 0.000000 -0.866025
vn -0.500000 0.000000 -0.866025
vn -0.766044 0.000000 -0.642788
vn -0.766044 0.000000 -0.642788
vn -0.000000 1.000000 0.000000
vn -0.000000 1.000000 0.000000
vn -0.000000 1.000000 0.000000
vn -0.000000 1.000000 0.000000
vn -0.000000 1.000000 0.000000
vn -0.000000 1.000000 0.000000
vn -0.000000 1.000000 0.000000
vn -0.000000 1.000000 0.000000
vn -0.000000 1.000000 0.000000
vn -0.000000 1.000000 0.000000
vn -0.000000 1.000000 0.000000
vn -0.000000 1.000000 0.000000
vn -0.000000 1.000000 0.000000
vn -0.000000 1.000000 0.000000
vn -0.000000 1.000000 0.000000
vn -0.000000 1.000000 0.000000
vn -0.000000 1.000000 0.000000
vn -0.000000 1.000000 0.000000
vn -0.939693 0.000000 0.342020
vn -0.939693 0.000000 0.342020
vn -1.000000 0.000000 0.000000
vn -1.000000 0.000000 0.000000
vn -0.939693 0.000000 -0.342020
vn -0.939693 0.000000 -0.342020
vn -0.766044 0.000000 -0.642788
vn -0.766044 0.000000 -0.642788
vn -0.500000 0.000000 -0.866025
vn -0.500000 0.000000 -0.866025
vn -0.173648 0.000000 -0.984808
vn -0.173648 0.000000 -0.984808
vn 0.173648 0.000000 -0.984808
vn 0.173648 0.000000 -0.984808
vn 0.500000 0.000000 -0.866025
vn 0.500000 0.000000 -0.866025
vn 0.766044 0.000000 -0.642788
vn 0.766044 0.000000 -0.642788
vn 0.939693 0.000000 -0.342020
vn 0.939693 0.000000 -0.342020
vn 1.000000 -0.000000 -0.000000
vn 1.000000 -0.000000 -0.000000
vn 0.939693 0.000000 0.342020
vn 0.939693 0.000000 0.342020
vn 0.766044 0.000000 0.642788
vn 0.766044 0.000000 0.642788
vn 0.500000 0.000000 0.866025
vn 0.500000 0.000000 0.866025
vn 0.173648 0.000000 0.984808
vn 0.173648 0.000000 0.984808
vn -0.173648 0.000000 0.984808
vn -0.173648 0.000000 0.984808
vn -0.500000 0.000000 0.866025
vn -0.500000 0.000000 0.866025
vn -0.766044 0.000000 0.642788
vn -0.766044 0.000000 0.642788
vn 0.000000 -1.000000 0.000000
vn 0.000000 -1.000000 0.000000
vn 0.000000 -1.000000 0.000000
vn 0.000000 -1.000000 0.000000
vn 0.000000 -1.000000 0.000000
vn 0.000000 -1.000000 0.000000
vn 0.000000 -1.000000 0.000000
vn 0.000000 -1.000000 0.000000
vn 0.000000 -1.000000 0.000000
vn 0.000000 -1.000000 0.000000
vn 0.000000 -1.000000 0.000000
vn 0.000000 -1.000000 0.000000
vn 0.000000 -1.000000 0.000000
vn 0.000000 -1.000000 0.000000
vn 0.000000 -1.000000 0.000000
vn 0.000000 -1.000000 0.000000
vn 0.000000 -1.000000 0.000000
vn 0.000000 -1.000000 0.000000
vn -0.000000 -0.000000 -1.000000
vn -0.000000 -0.000000 -1.000000
vn -0.000000 -0.000000 -1.000000
vn -0.000000 -0.000000 -1.000000
vn -0.000000 -0.000000 -1.000000
vn -0.000000 -0.000000 -1.000000
vn -0.000000 -0.000000 -1.000000
vn -0.000000 -0.000000 -1.000000
vn -0.000000 -0.000000 -1.000000
vn -0.000000 -0.000000 -1.000000
vn -0.000000 -0.000000 -1.000000
vn -0.000000 -0.000000 -1.000000
vn -0.000000 -0.000000 -1.000000
vn -0.000000 -0.000000 -1.000000
vn -0.000000 -0.000000 -1.000000
vn -0.000000 -0.000000 -1.000000
vn -0.000000 -1.000000 -0.000000
vn -0.000000 -1.000000 -0.000000
vn -0.000000 -1.000000 -0.000000
vn -0.000000 -1.000000 -0.000000
vn -1.000000 -0.000000 0.000000
vn -1.000000 -0.000000 0.000000
vn -1.000000 -0.000000 0.000000
vn -1.000000 -0.000000 0.000000
vn -0.000000 1.000000 -0.000000
vn -0.000000 1.000000 -0.000000
vn -0.000000 1.000000 -0.000000
vn -0.000000 1.000000 -0.000000
vn -0.866025 -0.000000 -0.500000
vn -0.866025 -0.000000 -0.500000
vn -1.000000 -0.000000 -0.000000
vn -1.000000 -0.000000 -0.000000
vn -0.866025 -0.000000 0.500000
vn -0.866025 -0.000000 0.500000
vn -0.500000 -0.000000 0.866025
vn -0.500000 -0.000000 0.866025
vn 0.000000 0.000000 1.000000
vn 0.000000 0.000000 1.000000
vn 0.500000 0.000000 0.866025
vn 0.500000 0.000000 0.866025
vn 0.866025 0.000000 0.500000
vn 0.866025 0.000000 0.500000
vn 1.000000 -0.000000 -0.000000
vn 1.000000 -0.000000 -0.000000
vn 0.866025 -0.000000 -0.500000
vn 0.866025 -0.000000 -0.500000
vn 0.500000 -0.000000 -0.866025
vn 0.500000 -0.000000 -0.866025
vn 0.000000 -0.000000 -1.000000
vn 0.000000 -0.000000 -1.000000
vn -0.500000 -0.000000 -0.866025
vn -0.500000 -0.000000 -0.866025
vn -0.000000 1.000000 -0.000000
vn -0.000000 1.000000 -0.000000
vn -0.000000 1.000000 -0.000000
vn -0.000000 1.000000 -0.000000
vn -0.000000 1.000000 -0.000000
vn -0.000000 1.000000 -0.000000
vn -0.000000 1.000000 -0.000000
vn -0.000000 1.000000 -0.000000
vn -0.000000 1.000000 -0.000000
vn -0.000000 1.000000 -0.000000
vn -0.000000 1.000000 -0.000000
vn -0.000000 1.000000 -0.000000
vn -0.866025 0.000000 0.500000
vn -0.866025 0.000000 0.500000
vn -1.000000 0.000000 0.000000
vn -1.000000 0.000000 0.000000
vn -0.866025 0.000000 -0.500000
vn -0.866025 0.000000 -0.500000
vn -0.500000 0.000000 -0.866025
vn -0.500000 0.000000 -0.866025
vn 0.000000 0.000000 -1.000000
vn 0.000000 0.000000 -1.000000
vn 0.500000 0.000000 -0.866025
vn 0.500000 0.000000 -0.866025
vn 0.866025 0.000000 -0.500000
vn 0.866025 0.000000 -0.500000
vn 1.000000 0.000000 -0.000000
vn 1.000000 0.000000 -0.000000
vn 0.866025 -0.000000 0.500000
vn 0.866025 -0.000000 0.500000
vn 0.500000 -0.000000 0.866025
vn 0.500000 -0.000000 0.866025
vn 0.000000 -0.000000 1.000000
vn 0.000000 -0.000000 1.000000
vn -0.500000 0.000000 0.866025
vn -0.500000 0.000000 0.866025
vn -0.000000 -1.000000 -0.000000
vn -0.000000 -1.000000 -0.000000
vn -0.000000 -1.000000 -0.000000
vn -0.000000 -1.000000 -0.000000
vn -0.000000 -1.000000 -0.000000
vn -0.000000 -1.000000 -0.000000
vn -0.000000 -1.000000 -0.000000
vn -0.000000 -1.000000 -0.000000
vn -0.000000 -1.000000 -0.000000
vn -0.000000 -1.000000 -0.000000
vn -0.000000 -1.000000 -0.000000
vn -0.000000 -1.000000 -0.000000
vn -0.000000 1.000000 -0.000000
vn -0.000000 1.000000 -0.000000
vn -0.000000 1.000000 -0.000000
vn -0.000000 1.000000 -0.000000
vn -0.000000 1.000000 -0.000000
vn -0.000000 1.000000 -0.000000
vn -0.000000 1.000000 -0.000000
vn -0.000000 1.000000 -0.000000
vn -0.000000 1.000000 -0.000000
vn -0.000000 1.000000 -0.000000
vn -0.000000 1.000000 -0.000000
vn -0.000000 1.000000 -0.000000
vn -0.000000 1.000000 -0.000000
vn -0.000000 1.000000 -0.000000
vn -0.000000 1.000000 -0.000000
vn -0.000000 1.000000 -0.000000
vn -0.000000 1.000000 -0.000000
vn -0.000000 1.000000 -0.000000
vn -0.000000 1.000000 -0.000000
vn -0.000000 1.000000 -0.000000
vn -0.000000 1.000000 -0.000000
vn -0.000000 1.000000 -0.000000
vn -0.000000 1.000000 -0.000000
vn -0.000000 1.000000 -0.000000
vn -0.000000 1.000000 -0.000000
vn -0.000000 1.000000 -0.000000
vn -0.000000 1.000000 -0.000000
vn -0.000000 1.000000 -0.000000
vn -0.000000 -1.000000 -0.000000
vn -0.000000 -1.000000 -0.000000
vn -0.000000 -1.000000 -0.000000
vn -0.000000 -1.000000 -0.000000
vn -0.000000 -1.000000 -0.000000
vn -0.000000 -1.000000 -0.000000
vn -0.000000 -1.000000 -0.000000
vn -0.000000 -1.000000 -0.000000
vn -0.000000 -1.000000 -0.000000
vn -0.000000 -1.000000 -0.000000
vn -0.000000 -1.000000 -0.000000
vn -0.000000 -1.000000 -0.000000
vn -0.000000 -1.000000 -0.000000
vn -0.000000 -1.000000 -0.000000
vn -0.000000 -1.000000 -0.000000
vn -0.000000 -1.000000 -0.000000
vn -0.000000 -1.000000 -0.000000
vn -0.000000 -1.000000 -0.000000
vn -0.000000 -1.000000 -0.000000
vn -0.000000 -1.000000 -0.000000
vn -0.000000 -1.000000 -0.000000
vn -0.000000 -1.000000 -0.000000
vn -0.000000 -1.000000 -0.000000
vn -0.000000 -1.000000 -0.000000
vn -0.000000 -1.000000 -0.000000
vn -0.000000 -1.000000 -0.000000
vn -0.000000 -1.000000 -0.000000
vn -0.000000 -1.000000 -0.000000
vn 0.000000 0.000000 1.000000
vn 0.000000 0.000000 1.000000
vn 0.000000 0.000000 1.000000
vn 0.000000 0.000000 1.000000
vn 0.000000 0.000000 1.000000
vn 0.000000 0.000000 1.000000
vn 0.000000 0.000000 1.000000
vn 0.000000 0.000000 1.000000
vn 0.000000 0.000000 1.000000
vn 0.000000 0.000000 1.000000
vn 0.000000 0.000000 1.000000
vn 0.000000 0.000000 1.000000
vn 0.000000 0.000000 1.000000
vn 0.000000 0.000000 1.000000
vn 0.000000 0.000000 1.000000
vn 0.000000 0.000000 1.000000
vn 0.000000 -1.000000 0.000000
vn 0.000000 -1.000000 0.000000
vn 0.000000 -1.000000 0.000000
vn 0.000000 -1.000000 0.000000
vn -1.000000 0.000000 0.000000
vn -1.000000 0.000000 0.000000
vn -1.000000 0.000000 0.000000
vn -1.000000 0.000000 0.000000
vn 0.000000 1.000000 -0.000000
vn 0.000000 1.000000 -0.000000
vn 0.000000 1.000000 -0.000000
vn 0.000000 1.000000 -0.000000
vn 1.000000 0.000000 0.000000
vn 1.000000 0.000000 0.000000
vn 1.000000 0.000000 0.000000
vn 1.000000 0.000000 0.000000
vn 0.000000 -1.000000 0.000000
vn 0.000000 -1.000000 0.000000
vn 0.000000 -1.000000 0.000000
vn 0.000000 -1.000000 0.000000
vn -1.000000 0.000000 0.000000
vn -1.000000 0.000000 0.000000
vn -1.000000 0.000000 0.000000
vn -1.000000 0.000000 0.000000
vn 0.000000 1.000000 0.000000
vn 0.000000 1.000000 0.000000
vn 0.000000 1.000000 0.000000
vn 0.000000 1.000000 0.000000
vn 1.000000 0.000000 0.000000
vn 1.000000 0.000000 0.000000
vn 1.000000 0.000000 0.000000
vn 1.000000 0.000000 0.000000
vn 0.000000 1.000000 -0.000000
vn 0.000000 1.000000 -0.000000
vn 0.000000 1.000000 -0.000000
vn 0.000000 1.000000 -0.000000
vn 1.000000 0.000000 0.000000
vn 1.000000 0.000000 0.000000
vn 1.000000 0.000000 0.000000
vn 1.000000 0.000000 0.000000
vn 0.000000 -1.000000 0.000000
vn 0.000000 -1.000000 0.000000
vn 0.000000 -1.000000 0.000000
vn 0.000000 -1.000000 0.000000
vn -1.000000 0.000000 0.000000
vn -1.000000 0.000000 0.000000
vn -1.000000 0.000000 0.000000
vn -1.000000 0.000000 0.000000
vn 0.000000 1.000000 0.000000
vn 0.000000 1.000000 0.000000
vn 0.000000 1.000000 0.000000
vn 0.000000 1.000000 0.000000
vn 1.000000 0.000000 0.000000
vn 1.000000 0.000000 0.000000
vn 1.000000 0.000000 0.000000
vn 1.000000 0.000000 0.000000
vn 0.000000 -1.000000 0.000000
vn 0.000000 -1.000000 0.000000
vn 0.000000 -1.000000 0.000000
vn 0.000000 -1.000000 0.000000
vn -1.000000 0.000000 0.000000
vn -1.000000 0.000000 0.000000
vn -1.000000 0.000000 0.000000
vn -1.000000 0.000000 0.000000
vn 0.000000 -0.000000 1.000000
vn 0.000000 -0.000000 1.000000
vn 0.000000 -0.000000 1.000000
vn 0.000000 -0.000000 1.000000
vn 0.000000 -0.000000 1.000000
vn 0.000000 -0.000000 1.000000
vn 0.000000 -0.000000 1.000000
vn 0.000000 -0.000000 1.000000
vn 0.000000 -0.000000 1.000000
vn 0.000000 -0.000000 1.000000
vn 0.000000 -0.000000 1.000000
vn 0.000000 -0.000000 1.000000
vn 0.000000 -0.000000 1.000000
vn 0.000000 -0.000000 1.000000
vn 0.000000 -0.000000 1.000000
vn 0.000000 -0.000000 1.000000
vn 0.000000 -0.000000 1.000000
vn 0.000000 -0.000000 1.000000
vn 0.000000 -0.000000 1.000000
vn 0.000000 -0.000000 1.000000
vn 0.000000 -0.000000 1.000000
vn 0.000000 -0.000000 1.000000
vn 0.000000 -0.000000 1.000000
vn 0.000000 -0.000000 1.000000
vn -0.000000 -0.000000 -1.000000
vn -0.000000 -0.000000 -1.000000
vn -0.000000 -0.000000 -1.000000
vn -0.000000 -0.000000 -1.000000
vn -0.707107 -0.707107 -0.000000
vn -0.707107 -0.707107 -0.000000
vn -0.707107 -0.707107 -0.000000
vn -0.707107 -0.707107 -0.000000
vn -1.000000 -0.000000 0.000000
vn -1.000000 -0.000000 0.000000
vn -1.000000 -0.000000 0.000000
vn -1.000000 -0.000000 0.000000
vn -0.707107 0.707107 -0.000000
vn -0.707107 0.707107 -0.000000
vn -0.707107 0.707107 -0.000000
vn -0.707107 0.707107 -0.000000
vn 0.707107 0.707107 -0.000000
vn 0.707107 0.707107 -0.000000
vn 0.707107 0.707107 -0.000000
vn 0.707107 0.707107 -0.000000
vn 1.000000 -0.000000 -0.000000
vn 1.000000 -0.000000 -0.000000
vn 1.000000 -0.000000 -0.000000
vn 1.000000 -0.000000 -0.000000
vn 0.707107 -0.707107 -0.000000
vn 0.707107 -0.707107 -0.000000
vn 0.707107 -0.707107 -0.000000
vn 0.707107 -0.707107 -0.000000
vn -0.000000 1.000000 -0.000000
vn -0.000000 1.000000 -0.000000
vn -0.000000 1.000000 -0.000000
vn -0.000000 1.000000 -0.000000
vn -1.000000 -0.000000 0.000000
vn -1.000000 -0.000000 0.000000
vn -1.000000 -0.000000 0.000000
vn -1.000000 -0.000000 0.000000
vn -0.000000 -1.000000 -0.000000
vn -0.000000 -1.000000 -0.000000
vn -0.000000 -1.000000 -0.000000
vn -0.000000 -1.000000 -0.000000
vn 1.000000 -0.000000 -0.000000
vn 1.000000 -0.000000 -0.000000
vn 1.000000 -0.000000 -0.000000
vn 1.000000 -0.000000 -0.000000
vn 1.000000 -0.000000 -0.000000
vn 1.000000 -0.000000 -0.000000
vn 1.000000 -0.000000 -0.000000
vn 1.000000 -0.000000 -0.000000
vn -0.000000 -0.000000 -1.000000
vn -0.000000 -0.000000 -1.000000
vn -0.000000 -0.000000 -1.000000
vn -0.000000 -0.000000 -1.000000
vn 0.866025 0.000000 -0.500000
vn 0.866025 0.000000 -0.500000
vn 1.000000 0.000000 -0.000000
vn 1.000000 0.000000 -0.000000
vn 0.866025 -0.000000 0.500000
vn 0.866025 -0.000000 0.500000
vn 0.500000 -0.000000 0.866025
vn 0.500000 -0.000000 0.866025
vn -0.000000 -0.000000 1.000000
vn -0.000000 -0.000000 1.000000
vn -0.500000 -0.000000 0.866025
vn -0.500000 -0.000000 0.866025
vn -0.866025 -0.000000 0.500000
vn -0.866025 -0.000000 0.500000
vn -1.000000 -0.000000 0.000000
vn -1.000000 -0.000000 0.000000
vn -0.866025 0.000000 -0.500000
vn -0.866025 0.000000 -0.500000
vn -0.500000 0.000000 -0.866025
vn -0.500000 0.000000 -0.866025
vn -0.000000 0.000000 -1.000000
vn -0.000000 0.000000 -1.000000
vn 0.500000 0.000000 -0.866025
vn 0.500000 0.000000 -0.866025
vn 0.000000 -1.000000 -0.000000
vn 0.000000 -1.000000 -0.000000
vn 0.000000 -1.000000 -0.000000
vn 0.000000 -1.000000 -0.000000
vn 0.000000 -1.000000 -0.000000
vn 0.000000 -1.000000 -0.000000
vn 0.000000 -1.000000 -0.000000
vn 0.000000 -1.000000 -0.000000
vn 0.000000 -1.000000 -0.000000
vn 0.000000 -1.000000 -0.000000
vn 0.000000 -1.000000 -0.000000
vn 0.000000 -1.000000 -0.000000
vn 0.866025 -0.000000 0.500000
vn 0.866025 -0.000000 0.500000
vn 1.000000 -0.000000 0.000000
vn 1.000000 -0.000000 0.000000
vn 0.866025 -0.000000 -0.500000
vn 0.866025 -0.000000 -0.500000
vn 0.500000 -0.000000 -0.866025
vn 0.500000 -0.000000 -0.866025
vn -0.000000 -0.000000 -1.000000
vn -0.000000 -0.000000 -1.000000
vn -0.500000 -0.000000 -0.866025
vn -0.500000 -0.000000 -0.866025
vn -0.866025 -0.000000 -0.500000
vn -0.866025 -0.000000 -0.500000
vn -1.000000 0.000000 0.000000
vn -1.000000 0.000000 0.000000
vn -0.866025 -0.000000 0.500000
vn -0.866025 -0.000000 0.500000
vn -0.500000 -0.000000 0.866025
vn -0.500000 -0.000000 0.866025
vn -0.000000 -0.000000 1.000000
vn -0.000000 -0.000000 1.000000
vn 0.500000 -0.000000 0.866025
vn 0.500000 -0.000000 0.866025
vn -0.000000 1.000000 -0.000000
vn -0.000000 1.000000 -0.000000
vn -0.000000 1.000000 -0.000000
vn -0.000000 1.000000 -0.000000
vn -0.000000 1.000000 -0.000000
vn -0.000000 1.000000 -0.000000
vn -0.000000 1.000000 -0.000000
vn -0.000000 1.000000 -0.000000
vn -0.000000 1.000000 -0.000000
vn -0.000000 1.000000 -0.000000
vn -0.000000 1.000000 -0.000000
vn -0.000000 1.000000 -0.000000
usemtl Aluminum_-_Anodized_Glossy_(Grey)
f 2/1/1 36/2/2 1/3/3
f 1/3/3 36/2/2 19/4/4
f 1/5/3 19/6/4 18/7/5
f 18/7/5 19/6/4 20/8/6
f 18/7/5 20/8/6 17/9/7
f 17/9/7 20/8/6 21/10/8
f 17/9/7 21/10/8 16/11/9
f 16/11/9 21/10/8 22/12/10
f 16/11/9 22/12/10 15/13/11
f 15/13/11 22/12/10 23/14/12
f 15/13/11 23/14/12 14/15/13
f 14/15/13 23/14/12 24/16/14
f 14/15/13 24/16/14 13/17/15
f 13/17/15 24/16/14 25/18/16
f 13/17/15 25/18/16 12/19/17
f 12/19/17 25/18/16 26/20/18
f 12/19/17 26/20/18 11/21/19
f 11/21/19 26/20/18 27/22/20
f 11/21/19 27/22/20 10/23/21
f 10/23/21 27/22/20 28/24/22
f 10/23/21 28/24/22 9/25/23
f 9/25/23 28/24/22 29/26/24
f 9/25/23 29/26/24 8/27/25
f 8/27/25 29/26/24 30/28/26
f 8/27/25 30/28/26 7/29/27
f 7/29/27 30/28/26 31/30/28
f 7/29/27 31/30/28 6/31/29
f 6/31/29 31/30/28 32/32/30
f 6/31/29 32/32/30 5/33/31
f 5/33/31 32/32/30 33/34/32
f 5/33/31 33/34/32 4/35/33
f 4/35/33 33/34/32 34/36/34
f 4/35/33 34/36/34 3/37/35
f 3/37/35 34/36/34 35/38/36
f 3/37/35 35/38/36 2/1/1
f 2/1/1 35/38/36 36/2/2
f 18/39/37 11/40/38 1/41/39
f 1/41/39 11/40/38 10/42/40
f 1/41/39 10/42/40 2/43/41
f 2/43/41 10/42/40 9/44/42
f 2/43/41 9/44/42 3/45/43
f 3/45/43 9/44/42 8/46/44
f 3/45/43 8/46/44 4/47/45
f 4/47/45 8/46/44 7/48/46
f 4/47/45 7/48/46 5/49/47
f 5/49/47 7/48/46 6/50/48
f 11/40/38 18/39/37 12/51/49
f 12/51/49 18/39/37 17/52/50
f 12/51/49 17/52/50 13/53/51
f 13/53/51 17/52/50 16/54/52
f 13/53/51 16/54/52 14/55/53
f 14/55/53 16/54/52 15/56/54
f 38/57/55 72/58/56 37/59/57
f 37/59/57 72/58/56 55/60/58
f 37/61/57 55/62/58 54/63/59
f 54/63/59 55/62/58 56/64/60
f 54/63/59 56/64/60 53/65/61
f 53/65/61 56/64/60 57/66/62
f 53/65/61 57/66/62 52/67/63
f 52/67/63 57/66/62 58/68/64
f 52/67/63 58/68/64 51/69/65
f 51/69/65 58/68/64 59/70/66
f 51/69/65 59/70/66 50/71/67
f 50/71/67 59/70/66 60/72/68
f 50/71/67 60/72/68 49/73/69
f 49/73/69 60/72/68 61/74/70
f 49/73/69 61/74/70 48/75/71
f 48/75/71 61/74/70 62/76/72
f 48/75/71 62/76/72 47/77/73
f 47/77/73 62/76/72 63/78/74
f 47/77/73 63/78/74 46/79/75
f 46/79/75 63/78/74 64/80/76
f 46/79/75 64/80/76 45/81/77
f 45/81/77 64/80/76 65/82/78
f 45/81/77 65/82/78 44/83/79
f 44/83/79 65/82/78 66/84/80
f 44/83/79 66/84/80 43/85/81
f 43/85/81 66/84/80 67/86/82
f 43/85/81 67/86/82 42/87/83
f 42/87/83 67/86/82 68/88/84
f 42/87/83 68/88/84 41/89/85
f 41/89/85 68/88/84 69/90/86
f 41/89/85 69/90/86 40/91/87
f 40/91/87 69/90/86 70/92/88
f 40/91/87 70/92/88 39/93/89
f 39/93/89 70/92/88 71/94/90
f 39/93/89 71/94/90 38/57/55
f 38/57/55 71/94/90 72/58/56
f 54/95/91 47/96/92 37/97/93
f 37/97/93 47/96/92 46/98/94
f 37/97/93 46/98/94 38/99/95
f 38/99/95 46/98/94 45/100/96
f 38/99/95 45/100/96 39/101/97
f 39/101/97 45/100/96 44/102/98
f 39/101/97 44/102/98 40/103/99
f 40/103/99 44/102/98 43/104/100
f 40/103/99 43/104/100 41/105/101
f 41/105/101 43/104/100 42/106/102
f 47/96/92 54/95/91 48/107/103
f 48/107/103 54/95/91 53/108/104
f 48/107/103 53/108/104 49/109/105
f 49/109/105 53/108/104 52/110/106
f 49/109/105 52/110/106 50/111/107
f 50/111/107 52/110/106 51/112/108
usemtl Paint_-_Enamel_Glossy_(White)
f 90/113/109 73/114/110 92/115/111
f 92/115/111 73/114/110 74/116/112
f 92/115/111 74/116/112 75/117/113
f 92/115/111 75/117/113 91/118/114
f 91/118/114 75/117/113 76/119/115
f 91/118/114 76/119/115 77/120/116
f 77/120/116 78/121/117 91/118/114
f 91/118/114 78/121/117 24/122/118
f 91/118/114 24/122/118 94/123/119
f 94/123/119 24/122/118 23/124/120
f 94/123/119 23/124/120 22/125/121
f 24/122/118 78/121/117 25/126/122
f 25/126/122 78/121/117 79/127/123
f 25/126/122 79/127/123 26/128/124
f 26/128/124 79/127/123 80/129/125
f 26/128/124 80/129/125 27/130/126
f 27/130/126 80/129/125 81/131/127
f 27/130/126 81/131/127 28/132/128
f 28/132/128 81/131/127 82/133/129
f 28/132/128 82/133/129 29/134/130
f 29/134/130 82/133/129 83/135/131
f 29/134/130 83/135/131 30/136/132
f 30/136/132 83/135/131 84/137/133
f 30/136/132 84/137/133 31/138/134
f 31/138/134 84/137/133 85/139/135
f 31/138/134 85/139/135 32/140/136
f 32/140/136 85/139/135 86/141/137
f 32/140/136 86/141/137 93/142/138
f 93/142/138 86/141/137 92/115/111
f 92/115/111 86/141/137 87/143/139
f 92/115/111 87/143/139 88/144/140
f 88/144/140 89/145/141 92/115/111
f 92/115/111 89/145/141 90/113/109
f 20/146/142 19/147/143 93/142/138
f 93/142/138 19/147/143 36/148/144
f 93/142/138 36/148/144 35/149/145
f 35/149/145 34/150/146 93/142/138
f 93/142/138 34/150/146 33/151/147
f 93/142/138 33/151/147 32/140/136
f 22/125/121 21/152/148 94/123/119
f 94/123/119 21/152/148 93/142/138
f 93/142/138 21/152/148 20/146/142
f 112/153/149 95/154/150 113/155/151
f 113/155/151 95/154/150 96/156/152
f 113/155/151 96/156/152 97/157/153
f 97/157/153 98/158/154 113/155/151
f 113/155/151 98/158/154 99/159/155
f 113/155/151 99/159/155 100/160/156
f 101/161/157 61/162/158 100/160/156
f 100/160/156 61/162/158 60/163/159
f 100/160/156 60/163/159 113/155/151
f 113/155/151 60/163/159 116/164/160
f 116/164/160 60/163/159 59/165/161
f 116/164/160 59/165/161 58/166/162
f 61/162/158 101/161/157 62/167/163
f 62/167/163 101/161/157 102/168/164
f 62/167/163 102/168/164 63/169/165
f 63/169/165 102/168/164 103/170/166
f 63/169/165 103/170/166 64/171/167
f 64/171/167 103/170/166 104/172/168
f 64/171/167 104/172/168 65/173/169
f 65/173/169 104/172/168 105/174/170
f 65/173/169 105/174/170 66/175/171
f 66/175/171 105/174/170 106/176/172
f 66/175/171 106/176/172 67/177/173
f 67/177/173 106/176/172 107/178/174
f 67/177/173 107/178/174 68/179/175
f 68/179/175 107/178/174 108/180/176
f 68/179/175 108/180/176 115/181/177
f 115/181/177 108/180/176 114/182/178
f 114/182/178 108/180/176 109/183/179
f 114/182/178 109/183/179 110/184/180
f 110/184/180 111/185/181 114/182/178
f 114/182/178 111/185/181 113/155/151
f 113/155/151 111/185/181 112/153/149
f 56/186/182 55/187/183 116/164/160
f 116/164/160 55/187/183 72/188/184
f 116/164/160 72/188/184 71/189/185
f 116/164/160 71/189/185 115/181/177
f 115/181/177 71/189/185 70/190/186
f 115/181/177 70/190/186 69/191/187
f 69/191/187 68/179/175 115/181/177
f 58/166/162 57/192/188 116/164/160
f 116/164/160 57/192/188 56/186/182
usemtl Aluminum_-_Anodized_Glossy_(Grey)
f 124/193/189 117/194/190 123/195/191
f 123/195/191 117/194/190 118/196/192
f 123/195/191 118/196/192 122/197/193
f 122/197/193 118/196/192 119/198/194
f 122/197/193 119/198/194 121/199/195
f 121/199/195 119/198/194 120/200/196
f 125/201/197 126/202/198 128/203/199
f 128/203/199 126/202/198 127/204/200
f 129/205/201 130/206/202 132/207/203
f 132/207/203 130/206/202 131/208/204
f 133/209/205 134/210/206 136/211/207
f 136/211/207 134/210/206 135/212/208
f 137/213/209 138/214/210 140/215/211
f 140/215/211 138/214/210 139/216/212
f 141/217/213 142/218/214 127/219/215
f 127/219/215 142/218/214 128/220/216
f 142/221/217 143/222/218 128/223/219
f 128/223/219 143/222/218 125/224/220
f 143/225/221 144/226/222 125/227/223
f 125/227/223 144/226/222 126/228/224
f 144/229/225 141/230/226 126/231/227
f 126/231/227 141/230/226 127/232/228
f 145/233/229 146/234/230 129/235/231
f 129/235/231 146/234/230 130/236/232
f 146/237/233 147/238/234 130/239/235
f 130/239/235 147/238/234 131/240/236
f 147/241/237 148/242/238 131/243/239
f 131/243/239 148/242/238 132/244/240
f 148/245/241 145/246/242 132/247/243
f 132/247/243 145/246/242 129/248/244
f 149/249/245 150/250/246 133/251/247
f 133/251/247 150/250/246 134/252/248
f 150/253/249 151/254/250 134/255/251
f 134/255/251 151/254/250 135/256/252
f 151/257/253 152/258/254 135/259/255
f 135/259/255 152/258/254 136/260/256
f 152/261/257 149/262/258 136/263/259
f 136/263/259 149/262/258 133/264/260
f 153/265/261 154/266/262 139/267/263
f 139/267/263 154/266/262 140/268/264
f 154/269/265 155/270/266 140/271/267
f 140/271/267 155/270/266 137/272/268
f 155/273/269 156/274/270 137/275/271
f 137/275/271 156/274/270 138/276/272
f 156/277/273 153/278/274 138/279/275
f 138/279/275 153/278/274 139/280/276
f 156/281/277 157/282/278 153/283/279
f 153/283/279 157/282/278 113/284/280
f 153/283/279 113/284/280 154/285/281
f 154/285/281 113/284/280 116/286/282
f 154/285/281 116/286/282 147/287/283
f 147/287/283 116/286/282 148/288/284
f 148/288/284 116/286/282 158/289/285
f 148/288/284 158/289/285 145/290/286
f 145/290/286 158/289/285 159/291/287
f 145/290/286 159/291/287 144/292/288
f 144/292/288 159/291/287 141/293/289
f 141/293/289 159/291/287 93/294/290
f 141/293/289 93/294/290 142/295/291
f 142/295/291 93/294/290 92/296/292
f 142/295/291 92/296/292 151/297/293
f 151/297/293 92/296/292 152/298/294
f 152/298/294 92/296/292 160/299/295
f 152/298/294 160/299/295 149/300/296
f 149/300/296 160/299/295 156/281/277
f 149/300/296 156/281/277 155/301/297
f 154/285/281 147/287/283 155/301/297
f 155/301/297 147/287/283 146/302/298
f 155/301/297 146/302/298 150/303/299
f 150/303/299 146/302/298 143/304/300
f 150/303/299 143/304/300 151/297/293
f 151/297/293 143/304/300 142/295/291
f 150/303/299 149/300/296 155/301/297
f 146/302/298 145/290/286 143/304/300
f 143/304/300 145/290/286 144/292/288
f 160/299/295 157/282/278 156/281/277
f 161/305/301 162/306/302 164/307/303
f 164/307/303 162/306/302 163/308/304
usemtl Carbon_Fiber_-_Twill
f 165/309/305 158/310/306 115/311/307
f 115/311/307 158/310/306 116/312/308
usemtl Paint_-_Enamel_Glossy_(White)
f 165/313/309 166/314/310 158/315/311
f 158/315/311 166/314/310 159/316/312
usemtl Carbon_Fiber_-_Twill
f 94/317/313 93/318/314 166/319/315
f 166/319/315 93/318/314 159/320/316
f 167/321/317 160/322/318 91/323/319
f 91/323/319 160/322/318 92/324/320
usemtl Paint_-_Enamel_Glossy_(White)
f 157/325/321 160/326/322 168/327/323
f 168/327/323 160/326/322 167/328/324
usemtl Carbon_Fiber_-_Twill
f 114/329/325 113/330/326 168/331/327
f 168/331/327 113/330/326 157/332/328
usemtl Paint_-_Enamel_Glossy_(Red)
f 169/333/329 170/334/330 161/335/331
f 161/335/331 170/334/330 162/336/332
f 170/337/333 171/338/334 162/339/335
f 162/339/335 171/338/334 163/340/336
f 171/341/337 172/342/338 163/343/339
f 163/343/339 172/342/338 164/344/340
f 172/345/341 169/346/342 164/347/343
f 164/347/343 169/346/342 161/348/344
usemtl Aluminum_-_Anodized_Glossy_(Grey)
f 173/349/345 174/350/346 176/351/347
f 176/351/347 174/350/346 175/352/348
f 178/353/349 173/354/350 177/355/351
f 177/355/351 173/354/350 176/356/352
f 178/357/349 177/358/351 184/359/353
f 184/359/353 177/358/351 179/360/354
f 184/359/353 179/360/354 183/361/355
f 183/361/355 179/360/354 180/362/356
f 183/361/355 180/362/356 182/363/357
f 182/363/357 180/362/356 181/364/358
f 124/365/189 182/366/357 117/367/190
f 117/367/190 182/366/357 181/368/358
usemtl Paint_-_Enamel_Glossy_(White)
f 173/369/359 170/370/360 174/371/361
f 174/371/361 170/370/360 166/372/362
f 174/371/361 166/372/362 121/373/363
f 121/373/363 166/372/362 122/374/364
f 122/374/364 166/372/362 123/375/365
f 123/375/365 166/372/362 124/376/366
f 124/376/366 166/372/362 182/377/367
f 182/377/367 166/372/362 165/378/368
f 182/377/367 165/378/368 183/379/369
f 183/379/369 165/378/368 184/380/370
f 184/380/370 165/378/368 178/381/371
f 178/381/371 165/378/368 173/369/359
f 173/369/359 165/378/368 171/382/372
f 173/369/359 171/382/372 170/370/360
f 172/383/373 168/384/374 169/385/375
f 169/385/375 168/384/374 167/386/376
f 169/385/375 167/386/376 91/387/377
f 168/384/374 172/383/373 114/388/378
f 114/388/378 172/383/373 171/382/372
f 114/388/378 171/382/372 115/389/379
f 115/389/379 171/382/372 165/378/368
f 166/372/362 170/370/360 94/390/380
f 94/390/380 170/370/360 169/385/375
f 94/390/380 169/385/375 91/387/377
usemtl Aluminum_-_Anodized_Glossy_(Grey)
f 120/391/196 175/392/381 121/393/195
f 121/393/195 175/392/381 174/394/382
f 119/395/383 118/396/384 120/397/385
f 120/397/385 118/396/384 117/398/386
f 120/397/385 117/398/386 177/399/387
f 177/399/387 117/398/386 181/400/388
f 177/399/387 181/400/388 180/401/389
f 180/401/389 179/402/390 177/399/387
f 176/403/391 175/404/392 177/399/387
f 177/399/387 175/404/392 120/397/385
f 186/405/393 96/406/394 185/407/395
f 185/407/395 96/406/394 95/408/396
f 185/409/395 95/410/396 202/411/397
f 202/411/397 95/410/396 112/412/398
f 202/411/397 112/412/398 201/413/399
f 201/413/399 112/412/398 111/414/400
f 201/413/399 111/414/400 200/415/401
f 200/415/401 111/414/400 110/416/402
f 200/415/401 110/416/402 199/417/403
f 199/417/403 110/416/402 109/418/404
f 199/417/403 109/418/404 198/419/405
f 198/419/405 109/418/404 108/420/406
f 198/419/405 108/420/406 197/421/407
f 197/421/407 108/420/406 107/422/408
f 197/421/407 107/422/408 196/423/409
f 196/423/409 107/422/408 106/424/410
f 196/423/409 106/424/410 195/425/411
f 195/425/411 106/424/410 105/426/412
f 195/425/411 105/426/412 194/427/413
f 194/427/413 105/426/412 104/428/414
f 194/427/413 104/428/414 193/429/415
f 193/429/415 104/428/414 103/430/416
f 193/429/415 103/430/416 192/431/417
f 192/431/417 103/430/416 102/432/418
f 192/431/417 102/432/418 191/433/419
f 191/433/419 102/432/418 101/434/420
f 191/433/419 101/434/420 190/435/421
f 190/435/421 101/434/420 100/436/422
f 190/435/421 100/436/422 189/437/423
f 189/437/423 100/436/422 99/438/424
f 189/437/423 99/438/424 188/439/425
f 188/439/425 99/438/424 98/440/426
f 188/439/425 98/440/426 187/441/427
f 187/441/427 98/440/426 97/442/428
f 187/441/427 97/442/428 186/405/393
f 186/405/393 97/442/428 96/406/394
f 202/443/429 195/444/430 185/445/431
f 185/445/431 195/444/430 194/446/432
f 185/445/431 194/446/432 186/447/433
f 186/447/433 194/446/432 193/448/434
f 186/447/433 193/448/434 187/449/435
f 187/449/435 193/448/434 192/450/436
f 187/449/435 192/450/436 188/451/437
f 188/451/437 192/450/436 191/452/438
f 188/451/437 191/452/438 189/453/439
f 189/453/439 191/452/438 190/454/440
f 195/444/430 202/443/429 196/455/441
f 196/455/441 202/443/429 201/456/442
f 196/455/441 201/456/442 197/457/443
f 197/457/443 201/456/442 200/458/444
f 197/457/443 200/458/444 198/459/445
f 198/459/445 200/458/444 199/460/446
f 204/461/447 74/462/448 203/463/449
f 203/463/449 74/462/448 73/464/450
f 203/465/449 73/466/450 220/467/451
f 220/467/451 73/466/450 90/468/452
f 220/467/451 90/468/452 219/469/453
f 219/469/453 90/468/452 89/470/454
f 219/469/453 89/470/454 218/471/455
f 218/471/455 89/470/454 88/472/456
f 218/471/455 88/472/456 217/473/457
f 217/473/457 88/472/456 87/474/458
f 217/473/457 87/474/458 216/475/459
f 216/475/459 87/474/458 86/476/460
f 216/475/459 86/476/460 215/477/461
f 215/477/461 86/476/460 85/478/462
f 215/477/461 85/478/462 214/479/463
f 214/479/463 85/478/462 84/480/464
f 214/479/463 84/480/464 213/481/465
f 213/481/465 84/480/464 83/482/466
f 213/481/465 83/482/466 212/483/467
f 212/483/467 83/482/466 82/484/468
f 212/483/467 82/484/468 211/485/469
f 211/485/469 82/484/468 81/486/470
f 211/485/469 81/486/470 210/487/471
f 210/487/471 81/486/470 80/488/472
f 210/487/471 80/488/472 209/489/473
f 209/489/473 80/488/472 79/490/474
f 209/489/473 79/490/474 208/491/475
f 208/491/475 79/490/474 78/492/476
f 208/491/475 78/492/476 207/493/477
f 207/493/477 78/492/476 77/494/478
f 207/493/477 77/494/478 206/495/479
f 206/495/479 77/494/478 76/496/480
f 206/495/479 76/496/480 205/497/481
f 205/497/481 76/496/480 75/498/482
f 205/497/481 75/498/482 204/461/447
f 204/461/447 75/498/482 74/462/448
f 220/499/483 213/500/484 203/501/485
f 203/501/485 213/500/484 212/502/486
f 203/501/485 212/502/486 204/503/487
f 204/503/487 212/502/486 211/504/488
f 204/503/487 211/504/488 205/505/489
f 205/505/489 211/504/488 210/506/490
f 205/505/489 210/506/490 206/507/491
f 206/507/491 210/506/490 209/508/492
f 206/507/491 209/508/492 207/509/493
f 207/509/493 209/508/492 208/510/494
f 213/500/484 220/499/483 214/511/495
f 214/511/495 220/499/483 219/512/496
f 214/511/495 219/512/496 215/513/497
f 215/513/497 219/512/496 218/514/498
f 215/513/497 218/514/498 216/515/499
f 216/515/499 218/514/498 217/516/500
usemtl Paint_-_Enamel_Glossy_(White)
f 224/517/501 221/518/502 230/519/503
f 230/519/503 221/518/502 222/520/504
f 230/519/503 222/520/504 229/521/505
f 229/521/505 222/520/504 223/522/506
f 229/521/505 223/522/506 228/523/507
f 228/523/507 223/522/506 227/524/508
f 227/524/508 223/522/506 224/517/501
f 227/524/508 224/517/501 230/519/503
f 226/525/509 233/526/510 225/527/511
f 225/527/511 233/526/510 234/528/512
f 225/527/511 234/528/512 235/529/513
f 233/526/510 226/525/509 232/530/514
f 232/530/514 226/525/509 227/524/508
f 232/530/514 227/524/508 231/531/515
f 231/531/515 227/524/508 230/519/503
f 229/521/505 228/523/507 236/532/516
f 236/532/516 228/523/507 225/527/511
f 236/532/516 225/527/511 235/529/513
usemtl Aluminum_-_Anodized_Glossy_(Grey)
f 223/533/517 222/534/518 238/535/519
f 238/535/519 222/534/518 237/536/520
f 222/537/521 221/538/522 237/539/523
f 237/539/523 221/538/522 239/540/524
f 221/541/525 224/542/526 239/543/527
f 239/543/527 224/542/526 240/544/528
f 242/545/529 264/546/530 241/547/531
f 241/547/531 264/546/530 253/548/532
f 241/549/531 253/550/532 252/551/533
f 252/551/533 253/550/532 254/552/534
f 252/551/533 254/552/534 251/553/535
f 251/553/535 254/552/534 255/554/536
f 251/553/535 255/554/536 250/555/537
f 250/555/537 255/554/536 256/556/538
f 250/555/537 256/556/538 249/557/539
f 249/557/539 256/556/538 257/558/540
f 249/557/539 257/558/540 248/559/541
f 248/559/541 257/558/540 258/560/542
f 248/559/541 258/560/542 247/561/543
f 247/561/543 258/560/542 259/562/544
f 247/561/543 259/562/544 246/563/545
f 246/563/545 259/562/544 260/564/546
f 246/563/545 260/564/546 245/565/547
f 245/565/547 260/564/546 261/566/548
f 245/565/547 261/566/548 244/567/549
f 244/567/549 261/566/548 262/568/550
f 244/567/549 262/568/550 243/569/551
f 243/569/551 262/568/550 263/570/552
f 243/569/551 263/570/552 242/545/529
f 242/545/529 263/570/552 264/546/530
f 252/571/553 248/572/554 241/573/555
f 241/573/555 248/572/554 247/574/556
f 241/573/555 247/574/556 242/575/557
f 242/575/557 247/574/556 246/576/558
f 242/575/557 246/576/558 243/577/559
f 243/577/559 246/576/558 245/578/560
f 243/577/559 245/578/560 244/579/561
f 248/572/554 252/571/553 249/580/562
f 249/580/562 252/571/553 251/581/563
f 249/580/562 251/581/563 250/582/564
f 266/583/565 288/584/566 265/585/567
f 265/585/567 288/584/566 277/586/568
f 265/587/567 277/588/568 276/589/569
f 276/589/569 277/588/568 278/590/570
f 276/589/569 278/590/570 275/591/571
f 275/591/571 278/590/570 279/592/572
f 275/591/571 279/592/572 274/593/573
f 274/593/573 279/592/572 280/594/574
f 274/593/573 280/594/574 273/595/575
f 273/595/575 280/594/574 281/596/576
f 273/595/575 281/596/576 272/597/577
f 272/597/577 281/596/576 282/598/578
f 272/597/577 282/598/578 271/599/579
f 271/599/579 282/598/578 283/600/580
f 271/599/579 283/600/580 270/601/581
f 270/601/581 283/600/580 284/602/582
f 270/601/581 284/602/582 269/603/583
f 269/603/583 284/602/582 285/604/584
f 269/603/583 285/604/584 268/605/585
f 268/605/585 285/604/584 286/606/586
f 268/605/585 286/606/586 267/607/587
f 267/607/587 286/606/586 287/608/588
f 267/607/587 287/608/588 266/583/565
f 266/583/565 287/608/588 288/584/566
f 276/609/589 272/610/590 265/611/591
f 265/611/591 272/610/590 271/612/592
f 265/611/591 271/612/592 266/613/593
f 266/613/593 271/612/592 270/614/594
f 266/613/593 270/614/594 267/615/595
f 267/615/595 270/614/594 269/616/596
f 267/615/595 269/616/596 268/617/597
f 272/610/590 276/609/589 273/618/598
f 273/618/598 276/609/589 275/619/599
f 273/618/598 275/619/599 274/620/600
usemtl Paint_-_Enamel_Glossy_(White)
f 300/621/601 289/622/602 301/623/603
f 301/623/603 289/622/602 290/624/604
f 301/623/603 290/624/604 291/625/605
f 291/625/605 292/626/606 301/623/603
f 301/623/603 292/626/606 256/627/607
f 301/623/603 256/627/607 302/628/608
f 302/628/608 256/627/607 255/629/609
f 302/628/608 255/629/609 254/630/610
f 256/627/607 292/626/606 257/631/611
f 257/631/611 292/626/606 293/632/612
f 257/631/611 293/632/612 258/633/613
f 258/633/613 293/632/612 294/634/614
f 258/633/613 294/634/614 259/635/615
f 259/635/615 294/634/614 295/636/616
f 259/635/615 295/636/616 260/637/617
f 260/637/617 295/636/616 296/638/618
f 260/637/617 296/638/618 261/639/619
f 261/639/619 296/638/618 297/640/620
f 261/639/619 297/640/620 262/641/621
f 262/641/621 297/640/620 298/642/622
f 262/641/621 298/642/622 231/643/623
f 231/643/623 298/642/622 232/644/624
f 232/644/624 298/642/622 299/645/625
f 232/644/624 299/645/625 301/623/603
f 301/623/603 299/645/625 300/621/601
f 254/630/610 253/646/626 302/628/608
f 302/628/608 253/646/626 264/647/627
f 302/628/608 264/647/627 263/648/628
f 302/628/608 263/648/628 231/643/623
f 231/643/623 263/648/628 262/641/621
f 314/649/629 303/650/630 315/651/631
f 315/651/631 303/650/630 304/652/632
f 315/651/631 304/652/632 305/653/633
f 315/651/631 305/653/633 235/654/634
f 235/654/634 305/653/633 306/655/635
f 235/654/634 306/655/635 280/656/636
f 280/656/636 306/655/635 281/657/637
f 281/657/637 306/655/635 307/658/638
f 281/657/637 307/658/638 282/659/639
f 282/659/639 307/658/638 308/660/640
f 282/659/639 308/660/640 283/661/641
f 283/661/641 308/660/640 309/662/642
f 283/661/641 309/662/642 284/663/643
f 284/663/643 309/662/642 310/664/644
f 284/663/643 310/664/644 285/665/645
f 285/665/645 310/664/644 311/666/646
f 285/665/645 311/666/646 286/667/647
f 286/667/647 311/666/646 312/668/648
f 286/667/647 312/668/648 316/669/649
f 316/669/649 312/668/648 315/651/631
f 315/651/631 312/668/648 313/670/650
f 315/651/631 313/670/650 314/649/629
f 278/671/651 277/672/652 316/669/649
f 316/669/649 277/672/652 288/673/653
f 316/669/649 288/673/653 287/674/654
f 287/674/654 286/667/647 316/669/649
f 235/654/634 280/656/636 236/675/655
f 236/675/655 280/656/636 279/676/656
f 236/675/655 279/676/656 316/669/649
f 316/669/649 279/676/656 278/671/651
usemtl Aluminum_-_Anodized_Glossy_(Grey)
f 317/677/657 318/678/658 320/679/659
f 320/679/659 318/678/658 319/680/660
f 321/681/661 322/682/662 324/683/663
f 324/683/663 322/682/662 323/684/664
f 325/685/665 326/686/666 328/687/667
f 328/687/667 326/686/666 327/688/668
f 329/689/669 330/690/670 332/691/671
f 332/691/671 330/690/670 331/692/672
f 333/693/673 334/694/674 319/695/675
f 319/695/675 334/694/674 320/696/676
f 335/697/677 333/698/678 318/699/679
f 318/699/679 333/698/678 319/700/680
f 336/701/681 335/702/682 317/703/683
f 317/703/683 335/702/682 318/704/684
f 334/705/685 336/706/686 320/707/687
f 320/707/687 336/706/686 317/708/688
f 337/709/689 338/710/690 321/711/691
f 321/711/691 338/710/690 322/712/692
f 339/713/693 337/714/694 324/715/695
f 324/715/695 337/714/694 321/716/696
f 340/717/697 339/718/698 323/719/699
f 323/719/699 339/718/698 324/720/700
f 338/721/701 340/722/702 322/723/703
f 322/723/703 340/722/702 323/724/704
f 341/725/705 342/726/706 325/727/707
f 325/727/707 342/726/706 326/728/708
f 343/729/709 341/730/710 328/731/711
f 328/731/711 341/730/710 325/732/712
f 344/733/713 343/734/714 327/735/715
f 327/735/715 343/734/714 328/736/716
f 342/737/717 344/738/718 326/739/719
f 326/739/719 344/738/718 327/740/720
f 345/741/721 346/742/722 331/743/723
f 331/743/723 346/742/722 332/744/724
f 347/745/725 345/746/726 330/747/727
f 330/747/727 345/746/726 331/748/728
f 348/749/729 347/750/730 329/751/731
f 329/751/731 347/750/730 330/752/732
f 346/753/733 348/754/734 332/755/735
f 332/755/735 348/754/734 329/756/736
f 346/757/737 349/758/738 348/759/739
f 348/759/739 349/758/738 350/760/740
f 348/759/739 350/760/740 342/761/741
f 342/761/741 350/760/740 344/762/742
f 344/762/742 350/760/740 301/763/743
f 344/762/742 301/763/743 343/764/744
f 343/764/744 301/763/743 302/765/745
f 343/764/744 302/765/745 333/766/746
f 333/766/746 302/765/745 334/767/747
f 334/767/747 302/765/745 351/768/748
f 334/767/747 351/768/748 336/769/749
f 336/769/749 351/768/748 338/770/750
f 336/769/749 338/770/750 337/771/751
f 349/758/738 346/757/737 315/772/752
f 315/772/752 346/757/737 345/773/753
f 315/772/752 345/773/753 339/774/754
f 339/774/754 345/773/753 337/771/751
f 337/771/751 345/773/753 347/775/755
f 337/771/751 347/775/755 335/776/756
f 335/776/756 347/775/755 341/777/757
f 335/776/756 341/777/757 333/766/746
f 333/766/746 341/777/757 343/764/744
f 347/775/755 348/759/739 341/777/757
f 341/777/757 348/759/739 342/761/741
f 338/770/750 352/778/758 340/779/759
f 340/779/759 352/778/758 316/780/760
f 340/779/759 316/780/760 339/774/754
f 339/774/754 316/780/760 315/772/752
f 335/776/756 336/769/749 337/771/751
f 351/768/748 352/778/758 338/770/750
f 353/781/761 354/782/762 356/783/763
f 356/783/763 354/782/762 355/784/764
usemtl Carbon_Fiber_-_Twill
f 236/785/765 316/786/766 229/787/767
f 229/787/767 316/786/766 352/788/768
usemtl Paint_-_Enamel_Glossy_(White)
f 352/789/769 351/790/770 229/791/771
f 229/791/771 351/790/770 230/792/772
usemtl Carbon_Fiber_-_Twill
f 230/793/773 351/794/774 231/795/775
f 231/795/775 351/794/774 302/796/776
f 232/797/777 301/798/778 233/799/779
f 233/799/779 301/798/778 350/800/780
usemtl Paint_-_Enamel_Glossy_(White)
f 234/801/781 233/802/782 349/803/783
f 349/803/783 233/802/782 350/804/784
usemtl Carbon_Fiber_-_Twill
f 234/805/785 349/806/786 235/807/787
f 235/807/787 349/806/786 315/808/788
usemtl Paint_-_Enamel_Glossy_(Red)
f 227/809/789 226/810/790 353/811/791
f 353/811/791 226/810/790 354/812/792
f 228/813/793 227/814/794 356/815/795
f 356/815/795 227/814/794 353/816/796
f 225/817/797 228/818/798 355/819/799
f 355/819/799 228/818/798 356/820/800
f 226/821/801 225/822/802 354/823/803
f 354/823/803 225/822/802 355/824/804
usemtl Aluminum_-_Anodized_Glossy_(Grey)
f 224/825/805 223/826/806 240/827/807
f 240/827/807 223/826/806 238/828/808
f 238/829/809 237/830/810 240/831/811
f 240/831/811 237/830/810 239/832/812
f 358/833/813 304/834/814 357/835/815
f 357/835/815 304/834/814 303/836/816
f 357/837/815 303/838/816 368/839/817
f 368/839/817 303/838/816 314/840/818
f 368/839/817 314/840/818 367/841/819
f 367/841/819 314/840/818 313/842/820
f 367/841/819 313/842/820 366/843/821
f 366/843/821 313/842/820 312/844/822
f 366/843/821 312/844/822 365/845/823
f 365/845/823 312/844/822 311/846/824
f 365/845/823 311/846/824 364/847/825
f 364/847/825 311/846/824 310/848/826
f 364/847/825 310/848/826 363/849/827
f 363/849/827 310/848/826 309/850/828
f 363/849/827 309/850/828 362/851/829
f 362/851/829 309/850/828 308/852/830
f 362/851/829 308/852/830 361/853/831
f 361/853/831 308/852/830 307/854/832
f 361/853/831 307/854/832 360/855/833
f 360/855/833 307/854/832 306/856/834
f 360/855/833 306/856/834 359/857/835
f 359/857/835 306/856/834 305/858/836
f 359/857/835 305/858/836 358/833/813
f 358/833/813 305/858/836 304/834/814
f 368/859/837 364/860/838 357/861/839
f 357/861/839 364/860/838 363/862/840
f 357/861/839 363/862/840 358/863/841
f 358/863/841 363/862/840 362/864/842
f 358/863/841 362/864/842 359/865/843
f 359/865/843 362/864/842 361/866/844
f 359/865/843 361/866/844 360/867/845
f 364/860/838 368/859/837 365/868/846
f 365/868/846 368/859/837 367/869/847
f 365/868/846 367/869/847 366/870/848
f 370/871/849 290/872/850 369/873/851
f 369/873/851 290/872/850 289/874/852
f 369/875/851 289/876/852 380/877/853
f 380/877/853 289/876/852 300/878/854
f 380/877/853 300/878/854 379/879/855
f 379/879/855 300/878/854 299/880/856
f 379/879/855 299/880/856 378/881/857
f 378/881/857 299/880/856 298/882/858
f 378/881/857 298/882/858 377/883/859
f 377/883/859 298/882/858 297/884/860
f 377/883/859 297/884/860 376/885/861
f 376/885/861 297/884/860 296/886/862
f 376/885/861 296/886/862 375/887/863
f 375/887/863 296/886/862 295/888/864
f 375/887/863 295/888/864 374/889/865
f 374/889/865 295/888/864 294/890/866
f 374/889/865 294/890/866 373/891/867
f 373/891/867 294/890/866 293/892/868
f 373/891/867 293/892/868 372/893/869
f 372/893/869 293/892/868 292/894/870
f 372/893/869 292/894/870 371/895/871
f 371/895/871 292/894/870 291/896/872
f 371/895/871 291/896/872 370/871/849
f 370/871/849 291/896/872 290/872/850
f 380/897/873 376/898/874 369/899/875
f 369/899/875 376/898/874 375/900/876
f 369/899/875 375/900/876 370/901/877
f 370/901/877 375/900/876 374/902/878
f 370/901/877 374/902/878 371/903/879
f 371/903/879 374/902/878 373/904/880
f 371/903/879 373/904/880 372/905/881
f 376/898/874 380/897/873 377/906/882
f 377/906/882 380/897/873 379/907/883
f 377/906/882 379/907/883 378/908/884
# 380 vertices
# 908 texture params
# 884 normals
# 752 facets

# 1 groups
